SplineFontDB: 3.2
FontName: Bravura
FullName: Bravura
FamilyName: Bravura
Weight: Normal

StartChar: onequarter
Encoding: 188 188 4
Width: 631
GlyphClass: 2
Flags: MW
HStem: -15 21G<75 75 75 119> -3 22<447 480 480 483.5 562 582 447 480> 84 27<388 495 388 495 545 545 545 607> 221 22<38 82 82 85.5 163 214 38 82> 509 19<29 46 29 83 29 46>
VStem: 97 51<259 497 497 501.5> 495 49<35 336 84 336 111 263 263 263>
LayerCount: 2
Fore
SplineSet
495 84 m 1
 358 84 l 1
 358 108 l 1
 521 336 l 1
 544 336 l 1
 544 111 l 1
 607 111 l 1
 607 84 l 1
 545 84 l 1
 545 32 l 2
 545 27 550 19 562 19 c 2
 582 19 l 1
 582 -3 l 1
 447 -3 l 1
 447 19 l 1
 480 19 l 2
 487 19 495 29 495 35 c 2
 495 84 l 1
75 -15 m 1
 477 561 l 1
 521 561 l 1
 119 -15 l 1
 75 -15 l 1
83 509 m 2
 29 509 l 1
 29 528 l 1
 63 528 98 538 121 563 c 1
 148 563 l 1
 148 259 l 2
 148 251 158 243 163 243 c 2
 214 243 l 1
 214 221 l 1
 38 221 l 1
 38 243 l 1
 82 243 l 2
 89 243 97 252 97 259 c 2
 97 497 l 2
 97 506 91 509 83 509 c 2
388 111 m 1
 495 111 l 1
 495 263 l 1
 388 111 l 1
EndSplineSet
EndChar

StartChar: onehalf
Encoding: 189 189 5
Width: 652
GlyphClass: 2
Flags: MW
HStem: -15 21G<75 75 75 119> -3 47<567 583 567 610> 221 22<38 82 82 85.5 163 214 38 82> 312 23<478 514> 509 19<29 46 29 83 29 46>
VStem: 97 51<259 497 497 501.5> 386 32<257 274.5> 561 52<238.5 272> 600 14
LayerCount: 2
Fore
SplineSet
371 11 m 1xfe80
 394 35 443 83 448 89 c 0
 526 159 561 224 561 253 c 0
 561 291 535 312 493 312 c 0
 463 312 418 301 418 267 c 0
 418 247 455 260 455 224 c 0
 455 207 442 197 423 197 c 0
 403 197 386 211 386 246 c 0
 386 303 441 335 500 335 c 0
 559 335 613 303 613 246 c 0xff
 613 199 576 171 542 137 c 0
 507 103 479 82 438 43 c 1
 567 44 l 2
 599 44 595 76 600 96 c 1
 618 96 l 1
 610 -3 l 1
 371 -3 l 1
 371 11 l 1xfe80
75 -15 m 1
 477 561 l 1
 521 561 l 1
 119 -15 l 1
 75 -15 l 1
29 528 m 1
 63 528 98 538 121 563 c 1
 148 563 l 1
 148 259 l 2
 148 251 158 243 163 243 c 2
 214 243 l 1
 214 221 l 1
 38 221 l 1
 38 243 l 1
 82 243 l 2
 89 243 97 252 97 259 c 2
 97 497 l 2
 97 506 91 509 83 509 c 2
 29 509 l 1
 29 528 l 1
EndSplineSet
EndChar

StartChar: threequarters
Encoding: 190 190 6
Width: 639
GlyphClass: 2
Flags: MW
HStem: -15 21G<122 122 122 166> -3 22<446 479 479 482.5 560 580 446 479> 84 27<387 494 387 494 543 606> 216 23<119 159.5 119 168> 385 27<137 145 99 171> 540 22<125.5 155>
VStem: 21 43<268 274.5 253 305.5> 36 43<511 515> 193 55<460 484.5> 201 63<295.5 327> 494 49<35 84 111 263 263 263>
LayerCount: 2
Fore
SplineSet
356 84 m 1xfe60
 356 108 l 1
 519 336 l 1
 543 336 l 1
 543 111 l 1
 606 111 l 1
 606 84 l 1
 543 84 l 1
 543 32 l 2
 543 27 548 19 560 19 c 2
 580 19 l 1
 580 -3 l 1
 446 -3 l 1
 446 19 l 1
 479 19 l 2
 486 19 494 29 494 35 c 2
 494 84 l 1
 356 84 l 1xfe60
135 216 m 0
 80 216 21 240 21 296 c 0
 21 315 31 335 55 335 c 0
 76 335 86 323 86 304 c 0
 86 283 64 282 64 267 c 0
 64 239 108 239 130 239 c 0
 189 239 201 278 201 313 c 0xfe60
 201 341 198 385 144 385 c 0
 130 385 118 384 105 384 c 0
 95 384 88 387 88 397 c 0
 88 405 91 412 99 412 c 2
 145 412 l 2
 187 415 193 449 193 471 c 0
 193 498 175 540 135 540 c 0
 116 540 82 539 79 517 c 0
 79 505 95 504 95 483 c 0
 95 469 82 456 66 456 c 0
 42 456 36 475 36 491 c 0
 36 539 90 562 137 562 c 0
 195 562 248 537 248 479 c 0xfda0
 248 439 221 419 182 401 c 1
 187 399 l 2
 218 389 264 373 264 310 c 0
 264 246 201 216 135 216 c 0
122 -15 m 1
 523 561 l 1
 567 561 l 1
 166 -15 l 1
 122 -15 l 1
387 111 m 1
 494 111 l 1
 494 263 l 1
 387 111 l 1
EndSplineSet
EndChar

StartChar: oneeighth
Encoding: 8539 8539 7
Width: 644
GlyphClass: 2
Flags: MW
HStem: -15 21G<75 119 75 75> -10 23<466 511 466 523.5> 221 22<38 82 82 85.5 163 214 38 82> 323 23<477 507.5> 509 19<29 46 29 83 29 46>
VStem: 97 51<259 497 497 501.5> 375 40<57 79> 391 34<240 282.5> 560 34<249.5 285.5> 575 35<61.5 108>
LayerCount: 2
Fore
SplineSet
375 79 m 0xfe40
 376 130 401 148 447 171 c 1
 410 194 391 207 391 254 c 0
 391 311 441 346 495 346 c 0
 543 346 594 322 594 268 c 0xfd80
 594 231 573 211 543 189 c 1
 589 168 610 148 610 96 c 0
 610 27 556 -10 491 -10 c 0
 437 -10 375 18 375 79 c 0xfe40
119 -15 m 1
 75 -15 l 1
 477 561 l 1
 521 561 l 1
 119 -15 l 1
29 528 m 1
 63 528 98 538 121 563 c 1
 148 563 l 1
 148 259 l 2
 148 251 158 243 163 243 c 2
 214 243 l 1
 214 221 l 1
 38 221 l 1
 38 243 l 1
 82 243 l 2
 89 243 97 252 97 259 c 2
 97 497 l 2
 97 506 91 509 83 509 c 2
 29 509 l 1
 29 528 l 1
415 83 m 0
 415 31 442 13 490 13 c 0
 532 13 575 33 575 81 c 0
 575 135 515 143 477 157 c 1
 443 144 415 120 415 83 c 0
491 323 m 0
 463 323 425 302 425 264 c 0
 425 216 474 212 509 200 c 1
 537 210 560 235 560 263 c 0xfd80
 560 308 524 323 491 323 c 0
EndSplineSet
EndChar

StartChar: uni2669
Encoding: 9833 9833 8
Width: 332
GlyphClass: 2
Flags: MW
HStem: -141 1016<78.5 332>
VStem: 302 30<115 875>
LayerCount: 2
Fore
SplineSet
109 -141 m 0
 48 -141 0 -106 0 -47 c 0
 0 50 99 141 222 141 c 0
 255 141 283 132 302 115 c 1
 302 875 l 1
 332 875 l 1
 332 47 l 2
 332 -48 209 -141 109 -141 c 0
EndSplineSet
EndChar

StartChar: musicalnote
Encoding: 9834 9834 9
Width: 553
GlyphClass: 2
Flags: MW
HStem: -138 1011<78.5 321.5>
VStem: 302 30<118 611> 523 43<217.5 269.5>
LayerCount: 2
Fore
SplineSet
0 -44 m 0
 0 53 99 144 222 144 c 0
 255 144 283 135 302 118 c 1
 302 864 l 2
 303 871 307 873 312 873 c 0
 331 873 339 867 342 851 c 0
 358 755 400 673 451 594 c 0
 514 494 566 376 566 251 c 0
 566 173 540 78 540 78 c 2
 535 61 523 57 514 58 c 2
 512 59 l 2
 506 63 496 72 496 88 c 0
 496 92 497 97 499 103 c 0
 516 148 523 195 523 240 c 0
 523 299 514 356 499 390 c 0
 468 463 394 573 332 611 c 1
 332 50 l 2
 332 -45 209 -138 109 -138 c 0
 48 -138 0 -103 0 -44 c 0
EndSplineSet
EndChar

StartChar: musicalnotedbl
Encoding: 9835 9835 10
Width: 962
GlyphClass: 2
Flags: MW
HStem: 563 125<332 932 332 332>
VStem: 302 30<115 563 46 688> 932 30<115 563 563 563>
LayerCount: 2
Fore
SplineSet
109 -141 m 0
 48 -141 0 -106 0 -47 c 0
 0 50 99 141 222 141 c 0
 255 141 283 131 302 115 c 1
 302 688 l 1
 962 688 l 1
 962 46 l 2
 961 -48 839 -141 739 -141 c 0
 678 -141 630 -106 630 -47 c 0
 630 50 729 141 852 141 c 0
 885 141 912 131 932 115 c 1
 932 563 l 1
 332 563 l 1
 332 46 l 2
 331 -48 209 -141 109 -141 c 0
EndSplineSet
EndChar

StartChar: uni266C
Encoding: 9836 9836 11
Width: 963
GlyphClass: 2
Flags: MW
HStem: 376 125<332 933 332 933> 563 125<332 933 332 332>
VStem: 302 30<115 376 501 563> 933 30<116 376 376 376 501 563 563 563>
LayerCount: 2
Fore
SplineSet
109 -141 m 0
 48 -141 0 -106 0 -47 c 0
 0 50 99 141 222 141 c 0
 255 141 283 131 302 115 c 1
 302 688 l 1
 963 688 l 1
 963 47 l 2
 962 -47 840 -140 740 -140 c 0
 679 -140 631 -105 631 -46 c 0
 631 51 730 142 853 142 c 0
 886 142 913 132 933 116 c 1
 933 376 l 1
 332 376 l 1
 332 46 l 2
 331 -48 209 -141 109 -141 c 0
332 501 m 1
 933 501 l 1
 933 563 l 1
 332 563 l 1
 332 501 l 1
EndSplineSet
EndChar

StartChar: uni266D
Encoding: 9837 9837 12
Width: 226
GlyphClass: 2
Flags: MW
HStem: 100 53<127.5 130.5>
VStem: 0 50<411 427.5> 157 69<34 54.5>
LayerCount: 2
Fore
SplineSet
12 -170 m 0
 4 -160 0 411 0 411 c 2
 1 429 17 439 31 439 c 0
 41 439 50 433 50 422 c 0
 50 402 44 162 43 140 c 0
 43 133 47 126 54 123 c 0
 56 122 57 122 59 122 c 0
 64 122 75 131 81 136 c 0
 95 145 119 153 136 153 c 0
 182 150 226 114 226 57 c 0
 226 11 195 -50 106 -112 c 0
 81 -129 57 -156 27 -173 c 1
 27 -173 24 -175 21 -175 c 0
 18 -175 15 -174 12 -170 c 0
46 51 m 0
 45 47 44 35 44 19 c 0
 44 -21 47 -81 47 -81 c 2
 47 -86 49 -96 58 -96 c 0
 61 -96 64 -95 68 -93 c 0
 111 -66 157 -12 157 42 c 0
 157 67 145 100 116 100 c 0
 93 100 53 71 46 51 c 0
EndSplineSet
EndChar

StartChar: uni266E
Encoding: 9838 9838 13
Width: 169
GlyphClass: 2
Flags: MW
HStem: -335 676<12 143 12 156> -163 93<45.5 119>
VStem: 0 37<-66 -64 -64 39 160 162 162 329> 131 37<-323 -174 -174 -170 -29 74 74 76>
LayerCount: 2
Fore
SplineSet
0 -186 m 2x70
 0 329 l 2
 0 336 5 341 12 341 c 2
 25 341 l 2
 31 341 37 336 37 329 c 2
 37 162 l 2
 37 158 41 157 47 157 c 0
 73 157 137 180 137 180 c 2
 138 180 139 181 141 181 c 2
 156 186 l 2
 157 187 159 187 160 187 c 0
 164 187 168 184 168 179 c 2
 168 -323 l 2
 168 -330 162 -335 156 -335 c 2
 143 -335 l 2xb0
 136 -335 131 -330 131 -323 c 2
 131 -174 l 2
 131 -166 124 -163 114 -163 c 0
 85 -163 29 -187 15 -193 c 0
 14 -194 9 -195 8 -195 c 0
 3 -195 0 -192 0 -186 c 2x70
122 79 m 0
 98 79 37 53 37 39 c 2
 37 -64 l 2
 37 -68 42 -70 49 -70 c 0x70
 74 -70 131 -47 131 -29 c 2
 131 74 l 2
 131 78 128 79 122 79 c 0
EndSplineSet
EndChar

StartChar: uni266F
Encoding: 9839 9839 14
Width: 249
GlyphClass: 2
Flags: MW
HStem: -348 698<59.5 188>
VStem: 50 30<-337 -214 -214 -211.5 171 175 175 295> 168 30<-293 -168 -168 -165 213 217 217 339> 237 12
LayerCount: 2
Fore
SplineSet
8 26 m 0
 3 26 0 29 0 35 c 2
 0 106 l 2
 0 112 5 120 12 122 c 2
 12 122 32 130 38 133 c 0
 44 136 50 146 50 160 c 2
 50 295 l 2
 50 301 56 306 66 306 c 0
 73 306 80 301 80 295 c 2
 80 175 l 2
 80 167 83 155 92 155 c 0
 109 159 143 173 155 180 c 0
 164 186 167 199 168 209 c 2
 168 339 l 2
 168 345 174 350 184 350 c 0
 192 350 198 345 198 339 c 2
 198 217 l 2
 198 209 205 204 212 204 c 0
 217 205 237 213 237 213 c 2
 239 214 240 214 242 214 c 0
 246 214 249 211 249 206 c 2
 249 135 l 2
 249 129 244 121 237 118 c 2
 211 108 l 2
 203 105 198 86 198 79 c 2
 198 -14 l 2
 198 -26 205 -32 211 -32 c 2
 237 -22 l 2
 239 -21 240 -21 242 -21 c 0
 246 -21 249 -24 249 -29 c 2
 249 -100 l 2
 249 -106 244 -114 237 -117 c 2
 237 -117 216 -125 209 -128 c 0
 202 -131 198 -143 198 -151 c 2
 198 -293 l 2
 198 -299 192 -304 181 -304 c 0
 174 -304 168 -299 168 -293 c 2
 168 -168 l 2
 168 -162 163 -150 155 -150 c 0
 154 -150 152 -151 151 -151 c 2
 90 -176 l 2
 85 -178 80 -185 80 -198 c 2
 80 -337 l 2
 80 -343 73 -348 63 -348 c 0
 56 -348 50 -343 50 -337 c 2
 50 -214 l 2
 50 -209 45 -198 38 -198 c 0
 37 -198 36 -198 35 -199 c 0
 26 -202 12 -208 12 -208 c 2
 11 -208 9 -209 8 -209 c 0
 3 -209 0 -206 0 -200 c 2
 0 -129 l 2
 0 -123 5 -115 12 -113 c 2
 12 -113 33 -104 39 -102 c 0
 45 -99 50 -90 50 -79 c 2
 50 20 l 2
 50 28 44 38 37 38 c 0
 36 38 35 37 34 37 c 0
 31 35 12 26 8 26 c 0
77 -30 m 0
 77 -54 78 -76 80 -80 c 0
 81 -83 86 -85 92 -85 c 0
 115 -85 162 -65 168 -45 c 0
 170 -36 172 -8 172 19 c 0
 172 46 170 71 168 76 c 0
 166 80 160 82 153 82 c 0
 128 82 82 61 80 44 c 0
 78 36 77 1 77 -30 c 0
EndSplineSet
EndChar

StartChar: uniE000
Encoding: 57344 57344 15
Width: 84
GlyphClass: 2
Flags: MW
HStem: 0 21G<70 72.5>
VStem: 14 30<142 154.5 101.5 228.5 842 855> 49 33<362 379.5 347 429.5 616.5 634.5>
LayerCount: 2
Fore
SplineSet
49 397 m 0
 49 462 20 478 2 498 c 1
 30 530 49 556 49 603 c 0xa0
 49 666 14 706 14 805 c 0
 14 905 41 963 63 990 c 0
 67 995 69 997 71 997 c 0
 73 997 74 995 75 994 c 0
 76 994 77 992 77 990 c 0
 77 987 76 984 72 980 c 0
 67 971 44 921 44 869 c 0xc0
 44 815 74 722 81 662 c 0
 82 657 82 651 82 646 c 0
 82 587 49 516 20 498 c 1
 49 480 82 409 82 350 c 0xa0
 82 344 82 339 81 334 c 0
 74 275 44 181 44 128 c 0
 44 75 67 25 72 17 c 0
 76 12 77 9 77 6 c 0
 77 3 74 0 71 0 c 0
 69 0 67 1 63 6 c 0
 41 34 14 92 14 192 c 0xc0
 14 265 49 327 49 397 c 0
EndSplineSet
AlternateSubs2: "'salt' Stylistic Alternatives lookup 10 subtable" uniF400 uniF401 uniF402 uniF403
EndChar

StartChar: uniE001
Encoding: 57345 57345 16
Width: 95
GlyphClass: 2
Flags: MW
HStem: 0 21G<17.5 20>
VStem: 8 33<362.5 379.5 616.5 633> 46 30<142 154.5 842 855>
LayerCount: 2
Fore
SplineSet
8 646 m 0
 8 651 8 657 9 662 c 0
 16 722 46 815 46 869 c 0
 46 921 23 971 18 980 c 0
 14 984 13 987 13 990 c 0
 13 992 14 994 15 994 c 0
 16 995 17 997 19 997 c 0
 21 997 23 995 27 990 c 0
 49 963 76 905 76 805 c 0xa0
 76 706 41 666 41 600 c 0
 41 534 70 519 88 498 c 1
 70 478 41 462 41 394 c 0xc0
 41 331 76 291 76 192 c 0
 76 92 49 34 27 6 c 0
 23 1 21 0 19 0 c 0
 16 0 13 3 13 6 c 0
 13 9 14 12 18 17 c 0
 23 25 46 75 46 128 c 0xa0
 46 181 16 275 9 334 c 0
 8 339 8 344 8 350 c 0
 8 409 41 480 70 498 c 1
 41 516 8 587 8 646 c 0
EndSplineSet
EndChar

StartChar: uniE002
Encoding: 57346 57346 17
Width: 558
GlyphClass: 2
Flags: MW
HStem: -318 1639<455.5 458>
VStem: 0 125<-23 1026 -23 1143 -23 1146>
LayerCount: 2
Fore
SplineSet
0 1143 m 2
 0 1149 2 1150 7 1150 c 2
 109 1150 l 1
 300 1164 426 1296 435 1307 c 0
 441 1314 450 1321 461 1321 c 0
 466 1319 469 1315 469 1307 c 0
 469 1304 469 1301 468 1297 c 0
 428 1130 285 1056 125 1026 c 1
 125 -23 l 1
 285 -53 428 -127 467 -294 c 0
 468 -298 469 -302 469 -305 c 0
 469 -312 466 -316 458 -318 c 0
 450 -318 441 -311 435 -304 c 0
 426 -293 300 -161 109 -147 c 1
 7 -147 l 2
 2 -147 0 -146 0 -140 c 2
 0 1143 l 2
EndSplineSet
EndChar

StartChar: uniE003
Encoding: 57347 57347 18
Width: 469
GlyphClass: 2
Flags: MW
HStem: 0 124<8 109 8 125 0 109>
VStem: 0 469<0 285 117 285>
LayerCount: 2
Fore
SplineSet
0 117 m 2
 0 123 2 124 8 124 c 2
 109 124 l 1
 300 138 426 270 436 281 c 0
 441 288 452 295 461 295 c 0
 466 293 469 289 469 281 c 0
 469 278 469 275 468 271 c 0
 428 104 285 30 125 0 c 1
 0 0 l 1
 0 117 l 2
EndSplineSet
EndChar

StartChar: uniE004
Encoding: 57348 57348 19
Width: 469
GlyphClass: 2
Flags: MW
HStem: -124 124<5 8 8 109>
VStem: 0 469<-285 0 -285 0>
LayerCount: 2
Fore
SplineSet
0 0 m 1
 125 0 l 1
 285 -30 428 -104 468 -271 c 0
 469 -275 469 -278 469 -281 c 0
 469 -289 466 -293 461 -295 c 0
 452 -295 441 -288 436 -281 c 0
 426 -270 300 -138 109 -124 c 1
 8 -124 l 2
 2 -124 0 -123 0 -117 c 2
 0 0 l 1
EndSplineSet
EndChar

StartChar: uniE005
Encoding: 57349 57349 20
Width: 469
GlyphClass: 2
Flags: MW
HStem: 0 124<360 461 461 464 360 469 344 461>
VStem: 0 469<0 285>
LayerCount: 2
Fore
SplineSet
0 281 m 0
 0 289 3 293 8 295 c 0
 17 295 28 288 33 281 c 0
 43 270 169 138 360 124 c 1
 461 124 l 2
 467 124 469 123 469 117 c 2
 469 0 l 1
 344 0 l 1
 184 30 41 104 1 271 c 0
 0 275 0 278 0 281 c 0
EndSplineSet
EndChar

StartChar: uniE006
Encoding: 57350 57350 21
Width: 469
GlyphClass: 2
Flags: MW
HStem: -124 124<360 461 360 360>
VStem: 0 469<-285 -117>
LayerCount: 2
Fore
SplineSet
8 -295 m 0
 3 -293 0 -289 0 -281 c 0
 0 -278 0 -275 1 -271 c 0
 41 -104 184 -30 344 0 c 1
 469 0 l 1
 469 -117 l 2
 469 -123 467 -124 461 -124 c 2
 360 -124 l 1
 169 -138 43 -270 33 -281 c 0
 28 -288 17 -295 8 -295 c 0
EndSplineSet
EndChar

StartChar: uniE007
Encoding: 57351 57351 22
Width: 1058
GlyphClass: 2
Flags: MW
HStem: -68 1128<8.5 1050.5>
VStem: 0 1058<-52 448 160 448 445 448 448 536 536 540>
LayerCount: 2
Fore
SplineSet
11 308 m 0
 5 308 0 316 0 324 c 2
 0 536 l 2
 0 544 4 553 15 559 c 2
 1043 1059 l 2
 1044 1060 1046 1060 1047 1060 c 0
 1054 1060 1058 1051 1058 1044 c 2
 1058 824 l 2
 1058 816 1051 812 1043 809 c 2
 15 309 l 2
 14 308 12 308 11 308 c 0
0 -52 m 2
 0 160 l 2
 0 168 4 177 15 183 c 2
 1043 683 l 2
 1044 684 1046 684 1047 684 c 0
 1054 684 1058 675 1058 668 c 2
 1058 448 l 2
 1058 442 1050 437 1043 433 c 2
 15 -67 l 2
 14 -67 13 -68 12 -68 c 0
 5 -68 0 -59 0 -52 c 2
EndSplineSet
EndChar

StartChar: uniE008
Encoding: 57352 57352 23
Width: 1561
GlyphClass: 2
Flags: MW
HStem: -60 1110
VStem: 0 1563<449.5 456 456 533 533 540>
LayerCount: 2
Fore
SplineSet
25 335 m 0
 12 335 0 344 0 359 c 2
 0 533 l 2
 0 547 12 556 20 559 c 2
 1530 1049 l 2
 1533 1050 1535 1050 1538 1050 c 0
 1551 1050 1563 1041 1563 1026 c 2
 1563 850 l 2
 1563 838 1555 829 1544 826 c 2
 33 336 l 2
 30 335 28 335 25 335 c 0
26 -60 m 0
 13 -60 1 -51 1 -36 c 2
 1 138 l 2
 1 151 10 160 20 163 c 2
 1530 653 l 2
 1533 654 1535 654 1538 654 c 0
 1551 654 1563 645 1563 630 c 2
 1563 456 l 2
 1563 443 1554 435 1544 431 c 2
 34 -59 l 2
 31 -60 29 -60 26 -60 c 0
EndSplineSet
EndChar

StartChar: uniE009
Encoding: 57353 57353 24
Width: 2319
GlyphClass: 2
Flags: MW
HStem: -70 1131
VStem: 0 2319<439 446 446 544 544 551.5>
LayerCount: 2
Fore
SplineSet
27 325 m 2
 14 325 0 342 0 360 c 2
 0 544 l 2
 0 559 13 568 23 571 c 2
 2288 1061 l 1
 2293 1061 l 2
 2306 1061 2314 1050 2319 1041 c 1
 2318 850 l 2
 2318 833 2314 819 2296 815 c 2
 27 325 l 2
1 139 m 2
 1 148 7 172 24 176 c 2
 2288 665 l 2
 2291 666 2293 666 2295 666 c 0
 2310 666 2319 654 2319 630 c 2
 2319 446 l 2
 2319 432 2308 423 2296 420 c 2
 32 -69 l 2
 30 -69 28 -70 26 -70 c 0
 12 -70 2 -58 2 -44 c 2
 1 139 l 2
EndSplineSet
EndChar

StartChar: uniE00A
Encoding: 57354 57354 25
Width: 300
GlyphClass: 2
Flags: MW
HStem: 127 374<-151 149>
VStem: -151 300<190 252 252 252 314 315 190 376 376 439 439 439>
LayerCount: 2
Fore
SplineSet
149 376 m 1
 -151 314 l 1
 -151 439 l 1
 149 501 l 1
 149 376 l 1
-151 252 m 1
 149 315 l 1
 149 190 l 1
 -151 127 l 1
 -151 252 l 1
EndSplineSet
EndChar

StartChar: uniE00B
Encoding: 57355 57355 26
Width: 526
GlyphClass: 2
Flags: MW
HStem: 0 21G<526 526>
VStem: 0 526<0 513.5>
LayerCount: 2
Fore
SplineSet
0 508 m 0
 0 519 7 526 18 526 c 0
 22 526 27 524 31 521 c 2
 385 167 l 1
 461 243 l 1
 526 0 l 1
 283 65 l 1
 359 141 l 1
 5 495 l 2
 1 499 0 503 0 508 c 0
EndSplineSet
EndChar

StartChar: uniE00C
Encoding: 57356 57356 27
Width: 526
GlyphClass: 2
Flags: MW
HStem: 474 526<12.5 526>
VStem: 0 526<486.5 1000>
LayerCount: 2
Fore
SplineSet
0 492 m 0
 0 497 1 501 5 505 c 2
 359 859 l 1
 283 935 l 1
 526 1000 l 1
 461 757 l 1
 385 833 l 1
 31 479 l 2
 27 476 22 474 18 474 c 0
 7 474 0 481 0 492 c 0
EndSplineSet
EndChar

StartChar: uniE00D
Encoding: 57357 57357 28
Width: 526
GlyphClass: 2
Flags: MW
HStem: 0 21G<526 526>
VStem: 0 526<0 511.5>
LayerCount: 2
Fore
SplineSet
0 509 m 0
 0 514 1 519 5 523 c 2
 359 877 l 1
 283 953 l 1
 526 1018 l 1
 461 775 l 1
 385 851 l 1
 42 509 l 1
 385 167 l 1
 461 243 l 1
 526 0 l 1
 283 65 l 1
 359 141 l 1
 5 495 l 2
 1 499 0 504 0 509 c 0
EndSplineSet
EndChar

StartChar: uniE010
Encoding: 57360 57360 29
Width: 500
GlyphClass: 2
Flags: MW
HStem: 484 32<0 500 0 500>
VStem: 0 500<484 516 484 516>
LayerCount: 2
Fore
SplineSet
500 484 m 1
 0 484 l 1
 0 516 l 1
 500 516 l 1
 500 484 l 1
EndSplineSet
EndChar

StartChar: uniE011
Encoding: 57361 57361 30
Width: 500
GlyphClass: 2
Flags: MW
HStem: 359 32<0 500 0 500> 609 32<0 500 0 500>
VStem: 0 500<359 391 359 391 609 641 359 641>
LayerCount: 2
Fore
SplineSet
500 359 m 1
 0 359 l 1
 0 391 l 1
 500 391 l 1
 500 359 l 1
0 641 m 1
 500 641 l 1
 500 609 l 1
 0 609 l 1
 0 641 l 1
EndSplineSet
EndChar

StartChar: uniE012
Encoding: 57362 57362 31
Width: 500
GlyphClass: 2
Flags: MW
HStem: 234 32<0 500 0 500> 484 32<0 500 0 500> 734 32<0 500 0 500>
VStem: 0 500<234 266 234 266 484 516 234 516 734 766>
CounterMasks: 1 e0
LayerCount: 2
Fore
SplineSet
0 266 m 1
 500 266 l 1
 500 234 l 1
 0 234 l 1
 0 266 l 1
0 766 m 1
 500 766 l 1
 500 734 l 1
 0 734 l 1
 0 766 l 1
500 484 m 1
 0 484 l 1
 0 516 l 1
 500 516 l 1
 500 484 l 1
EndSplineSet
EndChar

StartChar: uniE013
Encoding: 57363 57363 32
Width: 500
GlyphClass: 2
Flags: MW
HStem: 109 32<0 500 0 500> 359 32<0 500 0 500> 609 32<0 500 0 500> 859 32<0 500 0 500>
VStem: 0 500<109 141 109 141 359 391 109 391 609 641 859 891>
LayerCount: 2
Fore
SplineSet
500 609 m 1
 0 609 l 1
 0 641 l 1
 500 641 l 1
 500 609 l 1
0 891 m 1
 500 891 l 1
 500 859 l 1
 0 859 l 1
 0 891 l 1
0 141 m 1
 500 141 l 1
 500 109 l 1
 0 109 l 1
 0 141 l 1
0 391 m 1
 500 391 l 1
 500 359 l 1
 0 359 l 1
 0 391 l 1
EndSplineSet
EndChar

StartChar: uniE014
Encoding: 57364 57364 33
Width: 500
GlyphClass: 2
Flags: MW
HStem: -16 32<0 500 0 500> 234 32<0 500 0 500> 484 32<0 500 0 500> 734 32<0 500 0 500> 984 32<0 500 0 500>
VStem: 0 500<-16 16 -16 16 234 266 -16 266 484 516 734 766 984 1016>
LayerCount: 2
Fore
SplineSet
0 16 m 1
 500 16 l 1
 500 -16 l 1
 0 -16 l 1
 0 16 l 1
500 734 m 1
 0 734 l 1
 0 766 l 1
 500 766 l 1
 500 734 l 1
500 484 m 1
 0 484 l 1
 0 516 l 1
 500 516 l 1
 500 484 l 1
0 266 m 1
 500 266 l 1
 500 234 l 1
 0 234 l 1
 0 266 l 1
500 984 m 1
 0 984 l 1
 0 1016 l 1
 500 1016 l 1
 500 984 l 1
EndSplineSet
EndChar

StartChar: uniE015
Encoding: 57365 57365 34
Width: 500
GlyphClass: 2
Flags: MW
HStem: -141 32<0 500 0 500> 109 32<0 500 0 500> 359 32<0 500 0 500> 609 32<0 500 0 500> 859 32<0 500 0 500> 1109 32<0 500 0 500>
VStem: 0 500<-141 -109 -141 -109 109 141 -141 141 359 391 609 641 859 891 1109 1141>
LayerCount: 2
Fore
SplineSet
0 141 m 1
 500 141 l 1
 500 109 l 1
 0 109 l 1
 0 141 l 1
0 891 m 1
 500 891 l 1
 500 859 l 1
 0 859 l 1
 0 891 l 1
500 609 m 1
 0 609 l 1
 0 641 l 1
 500 641 l 1
 500 609 l 1
500 359 m 1
 0 359 l 1
 0 391 l 1
 500 391 l 1
 500 359 l 1
0 1141 m 1
 500 1141 l 1
 500 1109 l 1
 0 1109 l 1
 0 1141 l 1
0 -109 m 1
 500 -109 l 1
 500 -141 l 1
 0 -141 l 1
 0 -109 l 1
EndSplineSet
EndChar

StartChar: uniE016
Encoding: 57366 57366 35
Width: 750
GlyphClass: 2
Flags: MW
HStem: 484 32<0 750 0 750>
VStem: 0 750<484 516 484 516>
LayerCount: 2
Fore
SplineSet
750 484 m 1
 0 484 l 1
 0 516 l 1
 750 516 l 1
 750 484 l 1
EndSplineSet
EndChar

StartChar: uniE017
Encoding: 57367 57367 36
Width: 750
GlyphClass: 2
Flags: MW
HStem: 359 32<0 750 0 750> 609 32<0 750 0 750>
VStem: 0 750<359 391 359 391 609 641 359 641>
LayerCount: 2
Fore
SplineSet
750 359 m 1
 0 359 l 1
 0 391 l 1
 750 391 l 1
 750 359 l 1
0 641 m 1
 750 641 l 1
 750 609 l 1
 0 609 l 1
 0 641 l 1
EndSplineSet
EndChar

StartChar: uniE018
Encoding: 57368 57368 37
Width: 750
GlyphClass: 2
Flags: MW
HStem: 234 32<0 750 0 750> 484 32<0 750 0 750> 734 32<0 750 0 750>
VStem: 0 750<234 266 234 266 484 516 234 516 734 766 234 766>
CounterMasks: 1 e0
LayerCount: 2
Fore
SplineSet
0 266 m 1
 750 266 l 1
 750 234 l 1
 0 234 l 1
 0 266 l 1
0 766 m 1
 750 766 l 1
 750 734 l 1
 0 734 l 1
 0 766 l 1
750 484 m 1
 0 484 l 1
 0 516 l 1
 750 516 l 1
 750 484 l 1
EndSplineSet
EndChar

StartChar: uniE019
Encoding: 57369 57369 38
Width: 750
GlyphClass: 2
Flags: MW
HStem: 109 32<0 750 0 750> 359 32<0 750 0 750> 609 32<0 750 0 750> 859 32<0 750 0 750>
VStem: 0 750<109 141 109 141 359 391 109 391 609 641 109 641 859 891>
LayerCount: 2
Fore
SplineSet
750 609 m 1
 0 609 l 1
 0 641 l 1
 750 641 l 1
 750 609 l 1
0 891 m 1
 750 891 l 1
 750 859 l 1
 0 859 l 1
 0 891 l 1
0 141 m 1
 750 141 l 1
 750 109 l 1
 0 109 l 1
 0 141 l 1
0 391 m 1
 750 391 l 1
 750 359 l 1
 0 359 l 1
 0 391 l 1
EndSplineSet
EndChar

StartChar: uniE01A
Encoding: 57370 57370 39
Width: 750
GlyphClass: 2
Flags: MW
HStem: -16 32<0 750 0 750> 234 32<0 750 0 750> 484 32<0 750 0 750> 734 32<0 750 0 750> 984 32<0 750 0 750>
VStem: 0 750<-16 16 -16 16 234 266 -16 266 484 516 -16 516 734 766 984 1016>
LayerCount: 2
Fore
SplineSet
0 16 m 1
 750 16 l 1
 750 -16 l 1
 0 -16 l 1
 0 16 l 1
750 734 m 1
 0 734 l 1
 0 766 l 1
 750 766 l 1
 750 734 l 1
750 484 m 1
 0 484 l 1
 0 516 l 1
 750 516 l 1
 750 484 l 1
0 266 m 1
 750 266 l 1
 750 234 l 1
 0 234 l 1
 0 266 l 1
750 984 m 1
 0 984 l 1
 0 1016 l 1
 750 1016 l 1
 750 984 l 1
EndSplineSet
EndChar

StartChar: uniE01B
Encoding: 57371 57371 40
Width: 750
GlyphClass: 2
Flags: MW
HStem: -141 32<0 750 0 750> 109 32<0 750 0 750> 359 32<0 750 0 750> 609 32<0 750 0 750> 859 32<0 750 0 750> 1109 32<0 750 0 750>
VStem: 0 750<-141 -109 -141 -109 109 141 -141 141 359 391 -141 391 609 641 859 891 1109 1141>
LayerCount: 2
Fore
SplineSet
0 141 m 1
 750 141 l 1
 750 109 l 1
 0 109 l 1
 0 141 l 1
0 891 m 1
 750 891 l 1
 750 859 l 1
 0 859 l 1
 0 891 l 1
750 609 m 1
 0 609 l 1
 0 641 l 1
 750 641 l 1
 750 609 l 1
750 359 m 1
 0 359 l 1
 0 391 l 1
 750 391 l 1
 750 359 l 1
0 1141 m 1
 750 1141 l 1
 750 1109 l 1
 0 1109 l 1
 0 1141 l 1
0 -109 m 1
 750 -109 l 1
 750 -141 l 1
 0 -141 l 1
 0 -109 l 1
EndSplineSet
EndChar

StartChar: uniE01C
Encoding: 57372 57372 41
Width: 250
GlyphClass: 2
Flags: MW
HStem: 484 32<0 250 0 250>
VStem: 0 250<484 516 484 516>
LayerCount: 2
Fore
SplineSet
250 484 m 1
 0 484 l 1
 0 516 l 1
 250 516 l 1
 250 484 l 1
EndSplineSet
EndChar

StartChar: uniE01D
Encoding: 57373 57373 42
Width: 250
GlyphClass: 2
Flags: MW
HStem: 359 32<0 250 0 250> 609 32<0 250 0 250>
VStem: 0 250<359 391 359 391 609 641>
LayerCount: 2
Fore
SplineSet
250 359 m 1
 0 359 l 1
 0 391 l 1
 250 391 l 1
 250 359 l 1
0 641 m 1
 250 641 l 1
 250 609 l 1
 0 609 l 1
 0 641 l 1
EndSplineSet
EndChar

StartChar: uniE01E
Encoding: 57374 57374 43
Width: 250
GlyphClass: 2
Flags: MW
HStem: 234 32<0 250 0 250> 484 32<0 250 0 250> 734 32<0 250 0 250>
VStem: 0 250<234 266 234 266 484 516 734 766>
CounterMasks: 1 e0
LayerCount: 2
Fore
SplineSet
0 266 m 1
 250 266 l 1
 250 234 l 1
 0 234 l 1
 0 266 l 1
0 766 m 1
 250 766 l 1
 250 734 l 1
 0 734 l 1
 0 766 l 1
250 484 m 1
 0 484 l 1
 0 516 l 1
 250 516 l 1
 250 484 l 1
EndSplineSet
EndChar

StartChar: uniE01F
Encoding: 57375 57375 44
Width: 250
GlyphClass: 2
Flags: MW
HStem: 109 32<0 250 0 250> 359 32<0 250 0 250> 609 32<0 250 0 250> 859 32<0 250 0 250>
VStem: 0 250<109 141 109 141 359 391 609 641 859 891>
LayerCount: 2
Fore
SplineSet
250 609 m 1
 0 609 l 1
 0 641 l 1
 250 641 l 1
 250 609 l 1
0 891 m 1
 250 891 l 1
 250 859 l 1
 0 859 l 1
 0 891 l 1
0 141 m 1
 250 141 l 1
 250 109 l 1
 0 109 l 1
 0 141 l 1
0 391 m 1
 250 391 l 1
 250 359 l 1
 0 359 l 1
 0 391 l 1
EndSplineSet
EndChar

StartChar: uniE020
Encoding: 57376 57376 45
Width: 250
GlyphClass: 2
Flags: MW
HStem: -16 32<0 250 0 250> 234 32<0 250 0 250> 484 32<0 250 0 250> 734 32<0 250 0 250> 984 32<0 250 0 250>
VStem: 0 250<-16 16 -16 16 234 266 484 516 734 766 984 1016>
LayerCount: 2
Fore
SplineSet
0 16 m 1
 250 16 l 1
 250 -16 l 1
 0 -16 l 1
 0 16 l 1
250 734 m 1
 0 734 l 1
 0 766 l 1
 250 766 l 1
 250 734 l 1
250 484 m 1
 0 484 l 1
 0 516 l 1
 250 516 l 1
 250 484 l 1
0 266 m 1
 250 266 l 1
 250 234 l 1
 0 234 l 1
 0 266 l 1
250 984 m 1
 0 984 l 1
 0 1016 l 1
 250 1016 l 1
 250 984 l 1
EndSplineSet
EndChar

StartChar: uniE021
Encoding: 57377 57377 46
Width: 250
GlyphClass: 2
Flags: MW
HStem: -141 32<0 250 0 250> 109 32<0 250 0 250> 359 32<0 250 0 250> 609 32<0 250 0 250> 859 32<0 250 0 250> 1109 32<0 250 0 250>
VStem: 0 250<-141 -109 -141 -109 109 141 359 391 609 641 859 891 1109 1141>
LayerCount: 2
Fore
SplineSet
0 141 m 1
 250 141 l 1
 250 109 l 1
 0 109 l 1
 0 141 l 1
0 891 m 1
 250 891 l 1
 250 859 l 1
 0 859 l 1
 0 891 l 1
250 609 m 1
 0 609 l 1
 0 641 l 1
 250 641 l 1
 250 609 l 1
250 359 m 1
 0 359 l 1
 0 391 l 1
 250 391 l 1
 250 359 l 1
0 1141 m 1
 250 1141 l 1
 250 1109 l 1
 0 1109 l 1
 0 1141 l 1
0 -109 m 1
 250 -109 l 1
 250 -141 l 1
 0 -141 l 1
 0 -109 l 1
EndSplineSet
EndChar

StartChar: uniE022
Encoding: 57378 57378 47
Width: 332
GlyphClass: 2
Flags: MW
HStem: -20 40<-80 412 -80 412>
VStem: -80 492<-20 20 -20 20>
LayerCount: 2
Fore
SplineSet
412 -20 m 1
 -80 -20 l 1
 -80 20 l 1
 412 20 l 1
 412 -20 l 1
EndSplineSet
EndChar

StartChar: uniE023
Encoding: 57379 57379 48
Width: 532
GlyphClass: 2
Flags: MW
HStem: -20 40<-80 612 -80 612>
VStem: -80 692<-20 20 -20 20>
LayerCount: 2
Fore
SplineSet
612 -20 m 1
 -80 -20 l 1
 -80 20 l 1
 612 20 l 1
 612 -20 l 1
EndSplineSet
EndChar

StartChar: uniE024
Encoding: 57380 57380 49
Width: 132
GlyphClass: 2
Flags: MW
HStem: -20 40<-80 212 -80 212>
VStem: -80 292<-20 20 -20 20>
LayerCount: 2
Fore
SplineSet
212 -20 m 1
 -80 -20 l 1
 -80 20 l 1
 212 20 l 1
 212 -20 l 1
EndSplineSet
EndChar

StartChar: uniE030
Encoding: 57392 57392 50
Width: 36
GlyphClass: 2
Flags: MW
HStem: 0 21G<0 36 0 0>
VStem: 0 36<0 1000>
LayerCount: 2
Fore
SplineSet
36 0 m 1
 0 0 l 1
 0 1000 l 1
 36 1000 l 1
 36 0 l 1
EndSplineSet
EndChar

StartChar: uniE031
Encoding: 57393 57393 51
Width: 144
GlyphClass: 2
Flags: MW
HStem: 0 21G<0 36 0 0 108 144 108 108>
VStem: 0 36<0 1000> 108 36<0 1000>
LayerCount: 2
Fore
SplineSet
144 0 m 1
 108 0 l 1
 108 1000 l 1
 144 1000 l 1
 144 0 l 1
36 0 m 1
 0 0 l 1
 0 1000 l 1
 36 1000 l 1
 36 0 l 1
EndSplineSet
EndChar

StartChar: uniE032
Encoding: 57394 57394 52
Width: 229
GlyphClass: 2
Flags: MW
HStem: 0 21G<0 36 0 0 103 228 103 103>
VStem: 0 36<0 1000> 103 125<0 1000>
LayerCount: 2
Fore
SplineSet
228 0 m 1
 103 0 l 1
 103 1000 l 1
 228 1000 l 1
 228 0 l 1
36 0 m 1
 0 0 l 1
 0 1000 l 1
 36 1000 l 1
 36 0 l 1
EndSplineSet
EndChar

StartChar: uniE033
Encoding: 57395 57395 53
Width: 228
GlyphClass: 2
Flags: MW
HStem: 0 21G<0 0 0 125 192 228 192 192>
VStem: 0 125<0 1000 0 1000> 192 36<0 1000 0 1000>
LayerCount: 2
Fore
SplineSet
0 0 m 1
 0 1000 l 1
 125 1000 l 1
 125 0 l 1
 0 0 l 1
192 0 m 1
 192 1000 l 1
 228 1000 l 1
 228 0 l 1
 192 0 l 1
EndSplineSet
EndChar

StartChar: uniE034
Encoding: 57396 57396 54
Width: 125
GlyphClass: 2
Flags: MW
HStem: 0 21G<0 125 0 0>
VStem: 0 125<0 1000 0 1000>
LayerCount: 2
Fore
SplineSet
125 1000 m 1
 125 0 l 1
 0 0 l 1
 0 1000 l 1
 125 1000 l 1
EndSplineSet
EndChar

StartChar: uniE035
Encoding: 57397 57397 55
Width: 343
GlyphClass: 2
Flags: MW
HStem: 0 21G<0 0 0 125 218 218 218 343>
VStem: 0 125<0 1000 0 1000> 218 125<0 1000 0 1000>
LayerCount: 2
Fore
SplineSet
218 0 m 1
 218 1000 l 1
 343 1000 l 1
 343 0 l 1
 218 0 l 1
0 0 m 1
 0 1000 l 1
 125 1000 l 1
 125 0 l 1
 0 0 l 1
EndSplineSet
EndChar

StartChar: uniE036
Encoding: 57398 57398 56
Width: 36
GlyphClass: 2
Flags: MW
HStem: 0 125<0 36 0 36> 875 125<0 36 0 36>
VStem: 0 36<0 125 0 125 182 471 528 817 875 1000>
LayerCount: 2
Fore
SplineSet
0 471 m 1
 36 471 l 1
 36 182 l 1
 0 182 l 1
 0 471 l 1
36 528 m 1
 0 528 l 1
 0 817 l 1
 36 817 l 1
 36 528 l 1
0 125 m 1
 36 125 l 1
 36 0 l 1
 0 0 l 1
 0 125 l 1
36 875 m 1
 0 875 l 1
 0 1000 l 1
 36 1000 l 1
 36 875 l 1
EndSplineSet
EndChar

StartChar: uniE037
Encoding: 57399 57399 57
Width: 49
GlyphClass: 2
Flags: MW
HStem: 0 49<18 31.5> 86 49<18 31.5> 172 50<18 31.5> 259 49<18 31.5> 345 49<18 31.5> 431 49<18 31.5> 517 49<18 31.5> 603 50<18 31.5> 690 49<18 31.5> 776 49<18 31.5> 862 49<18 31.5> 948 49<18 31.5>
VStem: 0 49<18 31.5 104 117.5 190.5 204 276.5 290 362.5 376 449 462.5 535 548.5 621 635 707.5 721 793.5 807 880 893.5 966 979.5>
LayerCount: 2
Fore
SplineSet
25 603 m 0
 11 603 0 614 0 628 c 0
 0 642 11 653 25 653 c 0
 38 653 49 642 49 628 c 0
 49 614 38 603 25 603 c 0
0 197 m 0
 0 211 11 222 25 222 c 0
 38 222 49 211 49 197 c 0
 49 184 38 172 25 172 c 0
 11 172 0 184 0 197 c 0
0 283 m 0
 0 297 11 308 25 308 c 0
 38 308 49 297 49 283 c 0
 49 270 38 259 25 259 c 0
 11 259 0 270 0 283 c 0
25 0 m 0
 11 0 0 11 0 25 c 0
 0 38 11 49 25 49 c 0
 38 49 49 38 49 25 c 0
 49 11 38 0 25 0 c 0
0 111 m 0
 0 124 11 135 25 135 c 0
 38 135 49 124 49 111 c 0
 49 97 38 86 25 86 c 0
 11 86 0 97 0 111 c 0
25 862 m 0
 11 862 0 873 0 887 c 0
 0 900 11 911 25 911 c 0
 38 911 49 900 49 887 c 0
 49 873 38 862 25 862 c 0
25 776 m 0
 11 776 0 787 0 800 c 0
 0 814 11 825 25 825 c 0
 38 825 49 814 49 800 c 0
 49 787 38 776 25 776 c 0
0 456 m 0
 0 469 11 480 25 480 c 0
 38 480 49 469 49 456 c 0
 49 442 38 431 25 431 c 0
 11 431 0 442 0 456 c 0
0 369 m 0
 0 383 11 394 25 394 c 0
 38 394 49 383 49 369 c 0
 49 356 38 345 25 345 c 0
 11 345 0 356 0 369 c 0
25 517 m 0
 11 517 0 528 0 542 c 0
 0 555 11 566 25 566 c 0
 38 566 49 555 49 542 c 0
 49 528 38 517 25 517 c 0
25 948 m 0
 11 948 0 959 0 973 c 0
 0 986 11 997 25 997 c 0
 38 997 49 986 49 973 c 0
 49 959 38 948 25 948 c 0
0 714 m 0
 0 728 11 739 25 739 c 0
 38 739 49 728 49 714 c 0
 49 701 38 690 25 690 c 0
 11 690 0 701 0 714 c 0
EndSplineSet
EndChar

StartChar: uniE038
Encoding: 57400 57400 58
Width: 37
GlyphClass: 2
Flags: MW
HStem: 500 500<1 37 1 37>
VStem: 1 36<500 1000>
LayerCount: 2
Fore
SplineSet
37 500 m 1
 1 500 l 1
 1 1000 l 1
 37 1000 l 1
 37 500 l 1
EndSplineSet
EndChar

StartChar: uniE039
Encoding: 57401 57401 59
Width: 36
GlyphClass: 2
Flags: MW
HStem: 868 252<0 36 0 36>
VStem: 0 36<868 1120>
LayerCount: 2
Fore
SplineSet
36 868 m 1
 0 868 l 1
 0 1120 l 1
 36 1120 l 1
 36 868 l 1
EndSplineSet
EndChar

StartChar: uniE040
Encoding: 57408 57408 60
Width: 368
GlyphClass: 2
Flags: MW
HStem: 0 21G<0 125 0 0 192 192 192 228> 320 100<302.5 330> 572 100<302.5 330>
VStem: 0 125<0 1000 0 1000> 192 36<0 1000 0 1000> 266 100<356 383.5 608 636>
LayerCount: 2
Fore
SplineSet
0 1000 m 1
 125 1000 l 1
 125 0 l 1
 0 0 l 1
 0 1000 l 1
192 1000 m 1
 228 1000 l 1
 228 0 l 1
 192 0 l 1
 192 1000 l 1
316 572 m 0
 289 572 266 594 266 622 c 0
 266 650 289 672 316 672 c 0
 344 672 366 650 366 622 c 0
 366 594 344 572 316 572 c 0
266 370 m 0
 266 397 289 420 316 420 c 0
 344 420 366 397 366 370 c 0
 366 342 344 320 316 320 c 0
 289 320 266 342 266 370 c 0
EndSplineSet
EndChar

StartChar: uniE041
Encoding: 57409 57409 61
Width: 367
GlyphClass: 2
Flags: MW
HStem: 0 21G<139 175 139 139 242 367 242 242> 328 100<37 64.5> 580 100<37 64.5>
VStem: 1 100<364 392 616.5 644> 139 36<0 1000 0 1000> 242 125<0 1000>
LayerCount: 2
Fore
SplineSet
367 0 m 1
 242 0 l 1
 242 1000 l 1
 367 1000 l 1
 367 0 l 1
139 1000 m 1
 175 1000 l 1
 175 0 l 1
 139 0 l 1
 139 1000 l 1
1 378 m 0
 1 406 23 428 51 428 c 0
 78 428 101 406 101 378 c 0
 101 350 78 328 51 328 c 0
 23 328 1 350 1 378 c 0
1 630 m 0
 1 658 23 680 51 680 c 0
 78 680 101 658 101 630 c 0
 101 603 78 580 51 580 c 0
 23 580 1 603 1 630 c 0
EndSplineSet
EndChar

StartChar: uniE042
Encoding: 57410 57410 62
Width: 608
GlyphClass: 2
Flags: MW
HStem: 0 21G<139 175 139 139 242 367 242 242 434 434 434 470> 320 100<544.5 572> 328 100<37 64.5> 572 100<544.5 572> 580 100<37 64.5>
VStem: 1 100<364 392 616.5 644> 139 36<0 1000> 242 125<0 1000> 434 36<0 1000> 508 100<356 383.5 608 636>
LayerCount: 2
Fore
SplineSet
367 0 m 1xaf80
 242 0 l 1
 242 1000 l 1
 367 1000 l 1
 367 0 l 1xaf80
470 0 m 1
 434 0 l 1
 434 1000 l 1
 470 1000 l 1
 470 0 l 1
175 0 m 1
 139 0 l 1
 139 1000 l 1
 175 1000 l 1
 175 0 l 1
1 378 m 0
 1 406 23 428 51 428 c 0
 78 428 101 406 101 378 c 0
 101 350 78 328 51 328 c 0
 23 328 1 350 1 378 c 0
558 572 m 0x50c0
 531 572 508 594 508 622 c 0
 508 650 531 672 558 672 c 0
 586 672 608 650 608 622 c 0
 608 594 586 572 558 572 c 0x50c0
508 370 m 0
 508 397 531 420 558 420 c 0
 586 420 608 397 608 370 c 0
 608 342 586 320 558 320 c 0
 531 320 508 342 508 370 c 0
51 580 m 0x0e
 23 580 1 603 1 630 c 0
 1 658 23 680 51 680 c 0
 78 680 101 658 101 630 c 0
 101 603 78 580 51 580 c 0x0e
EndSplineSet
AlternateSubs2: "'salt' Stylistic Alternatives lookup 10 subtable" uniF45C
EndChar

StartChar: uniE043
Encoding: 57411 57411 63
Width: 100
GlyphClass: 2
Flags: MW
HStem: 318 100<36 63.5> 570 100<36 63.5>
VStem: 0 100<354 382 606.5 634>
LayerCount: 2
Fore
SplineSet
50 318 m 0
 22 318 0 340 0 368 c 0
 0 396 22 418 50 418 c 0
 77 418 100 396 100 368 c 0
 100 340 77 318 50 318 c 0
0 620 m 0
 0 648 22 670 50 670 c 0
 77 670 100 648 100 620 c 0
 100 593 77 570 50 570 c 0
 22 570 0 593 0 620 c 0
EndSplineSet
EndChar

StartChar: uniE044
Encoding: 57412 57412 64
Width: 100
GlyphClass: 2
Flags: MW
HStem: -50 100<36 63.5>
VStem: 0 100<-14 14>
LayerCount: 2
Fore
SplineSet
0 0 m 0
 0 28 22 50 50 50 c 0
 77 50 100 28 100 0 c 0
 100 -28 77 -50 50 -50 c 0
 22 -50 0 -28 0 0 c 0
EndSplineSet
EndChar

StartChar: uniE045
Encoding: 57413 57413 65
Width: 1082
GlyphClass: 2
Flags: MW
HStem: -9 31<766 816 756 837> -4 21G<599 630 599 599> 0 32<11 20 20 36 218 230 230 232 11 20> 401 32<11 20 11 225 203.5 218 218 225 225 233> 411 31<726.5 776 709 781>
VStem: 74 108<86 347 347 365> 356 120<180 261.5 180 283> 459 113<32 63> 599 31<-4 166> 600 69<335.5 348> 877 72<92 102.5> 898 27 969 113<32 63>
LayerCount: 2
Fore
SplineSet
11 433 m 1x76a8
 225 433 l 2
 310 433 354 425 390 401 c 0
 446 364 476 302 476 221 c 0
 476 139 446 74 393 37 c 0
 356 11 308 0 232 0 c 2
 11 0 l 1
 11 32 l 1
 20 32 l 2
 52 32 64 35 70 41 c 0
 74 46 74 49 74 86 c 2
 74 347 l 2
 74 385 74 387 70 392 c 0
 64 398 52 401 20 401 c 2
 11 401 l 1
 11 433 l 1x76a8
630 -4 m 1
 599 -4 l 1
 599 166 l 1
 630 166 l 1x76a8
 663 76 722 22 790 22 c 0
 842 22 877 50 877 92 c 0
 877 113 867 131 850 140 c 0
 839 145 829 148 808 153 c 0
 804 153 798 155 794 156 c 0
 791 157 788 157 785 158 c 2
 748 166 l 2
 654 183 600 235 600 308 c 0
 600 388 663 442 755 442 c 0x8e68
 797 442 830 433 863 410 c 1
 895 437 l 1
 922 437 l 1
 929 282 l 1
 898 282 l 1x7698
 862 367 812 411 750 411 c 0
 703 411 669 385 669 348 c 0
 669 323 683 306 710 296 c 0
 725 291 725 293 771 282 c 2
 800 275 l 2
 904 253 949 210 949 134 c 0
 949 50 884 -9 790 -9 c 0x8e68
 742 -9 704 4 667 31 c 1
 630 -4 l 1
218 401 m 2
 189 401 182 394 182 365 c 2
 182 71 l 2
 182 40 188 32 218 32 c 2
 230 32 l 2
 320 32 356 91 356 223 c 0
 356 343 316 401 233 401 c 2
 218 401 l 2
1025 -9 m 0x95a8
 994 -9 969 17 969 47 c 0
 969 79 994 104 1025 104 c 0
 1057 104 1082 79 1082 47 c 0
 1082 16 1057 -9 1025 -9 c 0x95a8
459 47 m 0
 459 79 484 104 515 104 c 0
 547 104 572 79 572 47 c 0
 572 16 547 -9 515 -9 c 0
 484 -9 459 17 459 47 c 0
EndSplineSet
EndChar

StartChar: uniE046
Encoding: 57414 57414 66
Width: 1083
GlyphClass: 2
Flags: MW
HStem: -9 37<762.5 837> 0 32<11 20 20 36 218 230 230 232 11 20> 401 32<11 20 11 225 203.5 218 218 225 225 233> 411 31<759 812 725 829>
VStem: 74 108<86 347 347 365> 356 120<180 261.5 180 283> 459 113<32 63> 564 119<180 278.5> 901 61 969 113<32 63>
LayerCount: 2
Fore
SplineSet
232 0 m 2x6dc0
 11 0 l 1
 11 32 l 1
 20 32 l 2
 52 32 64 35 70 41 c 0
 74 46 74 49 74 86 c 2
 74 347 l 2
 74 385 74 387 70 392 c 0
 64 398 52 401 20 401 c 2
 11 401 l 1
 11 433 l 1
 225 433 l 2
 310 433 354 425 390 401 c 0
 446 364 476 302 476 221 c 0
 476 139 446 74 393 37 c 0
 356 11 308 0 232 0 c 2x6dc0
564 211 m 0
 564 346 659 442 791 442 c 0
 833 442 861 434 901 410 c 1
 933 440 l 1
 959 440 l 1
 965 268 l 1
 933 265 l 1
 906 365 862 411 796 411 c 0
 722 411 683 346 683 222 c 0
 683 90 722 28 803 28 c 0
 872 28 920 76 937 159 c 1
 974 150 l 1
 951 43 890 -9 784 -9 c 0x9dc0
 713 -9 662 11 621 57 c 0
 583 100 564 149 564 211 c 0
182 365 m 2
 182 71 l 2
 182 40 188 32 218 32 c 2
 230 32 l 2
 320 32 356 91 356 223 c 0
 356 343 316 401 233 401 c 2
 218 401 l 2x6dc0
 189 401 182 394 182 365 c 2
1025 -9 m 0xaac0
 994 -9 969 17 969 47 c 0
 969 79 994 104 1025 104 c 0
 1057 104 1082 79 1082 47 c 0
 1082 16 1057 -9 1025 -9 c 0xaac0
515 -9 m 0
 484 -9 459 17 459 47 c 0
 459 79 484 104 515 104 c 0
 547 104 572 79 572 47 c 0
 572 16 547 -9 515 -9 c 0
EndSplineSet
EndChar

StartChar: uniE047
Encoding: 57415 57415 67
Width: 557
GlyphClass: 2
Flags: MW
HStem: -12 21G<104 104> -8 21G<345.5 381.5> -8 59<345.5 427> 207 114<67.5 99> 409 114<456.5 488> 665 71<129 135 129 129> 745 14
VStem: 4 71<592.5 600.5> 26 114<248 279.5> 254 136<80.5 96 96 107 80.5 126> 415 114<450.5 482> 489 61<132.5 169.5>
LayerCount: 2
Fore
SplineSet
20 477 m 0x5d50
 9 502 4 527 4 551 c 0
 4 650 83 736 153 736 c 0
 204 736 271 719 287 673 c 0
 292 657 295 641 295 626 c 0
 295 583 267 559 226 559 c 0
 175 559 160 618 153 645 c 2
 151 652 l 2
 148 663 141 665 135 665 c 2
 129 665 l 1
 87 658 75 630 75 603 c 0x5d50
 75 582 83 561 89 550 c 0
 115 505 266 447 275 444 c 0
 279 442 282 441 285 441 c 0
 289 441 291 444 294 449 c 0
 300 458 459 745 459 745 c 2
 464 754 474 759 484 759 c 0
 499 759 512 747 512 731 c 0
 512 726 511 722 508 717 c 2
 508 717 353 438 348 430 c 0
 347 428 346 426 346 424 c 0
 346 419 351 415 363 408 c 0
 375 402 533 313 548 203 c 0
 549 193 550 183 550 174 c 0
 550 91 497 26 417 -1 c 0
 402 -6 388 -8 375 -8 c 0
 316 -8 254 45 254 106 c 0
 254 146 288 162 325 171 c 0
 329 172 333 173 337 173 c 0
 365 173 390 145 390 107 c 2
 390 96 l 2
 390 65 407 51 426 51 c 0
 428 51 431 52 433 52 c 0
 465 57 489 83 489 122 c 0x3f50
 489 217 289 276 274 279 c 0
 270 279 262 273 262 274 c 1
 259 268 104 -12 104 -12 c 2
 99 -21 89 -27 79 -27 c 0
 63 -27 51 -14 51 2 c 0
 51 6 52 11 54 15 c 2x9d50
 54 15 198 274 205 288 c 0
 209 295 211 300 211 304 c 0
 211 308 209 310 205 312 c 0
 197 315 52 404 20 477 c 0x5d50
472 409 m 0x5ce0
 441 409 415 435 415 466 c 0
 415 498 441 523 472 523 c 0
 504 523 529 498 529 466 c 0
 529 435 504 409 472 409 c 0x5ce0
83 207 m 0
 52 207 26 232 26 264 c 0
 26 295 52 321 83 321 c 0
 115 321 140 295 140 264 c 0
 140 232 115 207 83 207 c 0
EndSplineSet
AlternateSubs2: "'salt' Stylistic Alternatives lookup 10 subtable" uniF404
EndChar

StartChar: uniE048
Encoding: 57416 57416 68
Width: 954
GlyphClass: 2
Flags: MW
HStem: 0 21G<458 458 506 506> 352 48<7 146 14 146 316 458 506 653 818 937>
VStem: 146 170<352 352 352 400> 458 48<-140 0 48 352 400 696 752 881> 653 165<352 352 352 481>
LayerCount: 2
Fore
SplineSet
-4 376 m 0
 -4 389 0 400 14 400 c 2
 146 400 l 1
 157 589 296 739 458 752 c 1
 458 881 l 2
 458 894 469 898 482 898 c 0
 495 898 506 894 506 881 c 2
 506 752 l 1
 668 739 808 588 818 400 c 1
 937 400 l 2
 951 400 955 389 955 376 c 0
 955 363 951 352 937 352 c 2
 818 352 l 1
 808 165 668 13 506 0 c 1
 506 -140 l 2
 506 -154 495 -158 482 -158 c 0
 469 -158 458 -154 458 -140 c 2
 458 0 l 1
 296 13 157 165 146 352 c 1
 14 352 l 2
 0 352 -4 363 -4 376 c 0
653 400 m 1
 653 562 646 684 506 696 c 1
 506 400 l 1
 653 400 l 1
506 352 m 1
 506 48 l 1
 631 63 650 199 653 352 c 1
 506 352 l 1
316 400 m 1
 458 400 l 1
 458 696 l 1
 316 684 316 562 316 400 c 1
458 352 m 1
 316 352 l 1
 317 198 329 63 458 48 c 1
 458 352 l 1
EndSplineSet
AlternateSubs2: "'salt' Stylistic Alternatives lookup 10 subtable" uniF405
EndChar

StartChar: uniE049
Encoding: 57417 57417 69
Width: 819
GlyphClass: 2
Flags: MW
HStem: -7 50<282 387 282 387 435 542 542 545.5 282 435> 350 50<11.5 139 16 139 270 387 435 552 683 807> 688 50<276.5 279 279 387 153 435 435 541>
VStem: 139 131<53 58 58 350 400 679> 387 48<-133 -7 43 350 400 688 738 882> 552 131<58 350 400 675 675 679>
CounterMasks: 1 1c
LayerCount: 2
Fore
SplineSet
16 350 m 2
 7 350 0 358 0 371 c 2
 0 379 l 2
 0 391 7 400 16 400 c 2
 139 400 l 1
 139 723 l 2
 139 731 145 738 153 738 c 2
 387 738 l 1
 387 882 l 2
 387 894 396 903 408 903 c 2
 414 903 l 2
 427 903 435 894 435 882 c 2
 435 738 l 1
 669 738 l 2
 676 738 683 731 683 723 c 2
 683 400 l 1
 807 400 l 2
 815 400 822 391 822 379 c 2
 822 371 l 2
 822 358 815 350 807 350 c 2
 683 350 l 1
 683 10 l 2
 683 0 676 -7 669 -7 c 2
 435 -7 l 1
 435 -133 l 2
 435 -144 427 -154 414 -154 c 2
 408 -154 l 2
 396 -154 387 -144 387 -133 c 2
 387 -7 l 1
 153 -7 l 2
 145 -7 139 0 139 10 c 2
 139 350 l 1
 16 350 l 2
435 43 m 1
 542 43 l 2
 549 43 552 48 552 58 c 2
 552 350 l 1
 435 350 l 1
 435 43 l 1
270 58 m 2
 270 48 275 43 282 43 c 2
 387 43 l 1
 387 350 l 1
 270 350 l 1
 270 58 l 2
270 400 m 1
 387 400 l 1
 387 688 l 1
 279 688 l 2
 274 688 270 686 270 679 c 2
 270 400 l 1
541 688 m 2
 435 688 l 1
 435 400 l 1
 552 400 l 1
 552 675 l 2
 552 683 549 688 541 688 c 2
EndSplineSet
EndChar

StartChar: uniE04A
Encoding: 57418 57418 70
Width: 402
GlyphClass: 2
Flags: MW
HStem: -33 36<210 264 210 273.5> 980 51<153.5 207>
VStem: 2 51<422 425.5> 6 67<655 659.5> 19 69<897.5 917.5> 313 71<76 127> 332 64<328 396.5> 340 63<572 665>
LayerCount: 2
Fore
SplineSet
2 403 m 0xe4
 2 448 39 501 45 511 c 0
 48 516 51 520 51 524 c 0
 51 528 48 533 42 540 c 0
 31 553 6 590 6 636 c 0xd4
 6 683 44 729 60 740 c 0
 66 744 69 749 69 755 c 0
 69 759 67 764 63 769 c 2
 60 772 l 2
 48 786 19 820 19 883 c 0
 19 952 81 1031 202 1031 c 2
 207 1031 l 2
 252 1030 370 1003 370 935 c 0
 370 882 340 873 314 873 c 0
 287 873 265 881 246 926 c 0
 231 963 179 980 164 980 c 0
 143 980 88 971 88 921 c 0
 88 874 189 818 238 791 c 2
 262 778 l 2
 308 752 403 699 403 631 c 0xc9
 403 556 370 530 354 511 c 0
 348 503 346 498 346 494 c 0
 346 488 350 484 354 480 c 2
 357 476 l 2
 365 465 396 422 396 371 c 0
 396 315 349 274 338 261 c 0
 333 255 332 250 332 245 c 0xca
 332 239 335 234 339 229 c 2
 341 226 l 2
 352 215 384 181 384 127 c 2
 384 118 l 1xcc
 380 56 340 -33 207 -33 c 0
 76 -33 35 48 35 79 c 0
 35 111 53 133 84 133 c 0
 114 133 130 116 145 94 c 0
 159 72 183 3 237 3 c 0
 291 3 312 43 313 76 c 0
 313 108 244 167 202 194 c 0
 156 223 2 286 2 403 c 0xe4
102 479 m 0
 81 479 53 455 53 433 c 0
 53 411 91 384 109 371 c 2
 109 371 248 295 276 288 c 0
 282 287 288 286 293 286 c 0
 309 286 319 294 327 312 c 0
 331 319 332 325 332 331 c 0
 332 348 321 364 312 371 c 0
 298 382 125 471 118 475 c 0
 115 477 109 479 102 479 c 0
78 684 m 0
 75 678 73 673 73 668 c 0
 73 642 109 623 126 611 c 2
 126 611 259 541 285 535 c 0
 292 533 298 532 303 532 c 0
 318 532 326 540 335 556 c 0
 339 562 340 569 340 575 c 0xd1
 340 591 330 605 321 611 c 0
 308 622 143 703 134 708 c 0
 131 710 127 711 121 711 c 0
 109 711 92 705 78 684 c 0
EndSplineSet
EndChar

StartChar: uniE04B
Encoding: 57419 57419 71
Width: 402
GlyphClass: 2
Flags: MW
HStem: -33 36<208 262.5 208 272.5> 980 51<152.5 206>
VStem: 1 52<421 426> 4 68<658.5 659> 17 70<908 917.5> 160 28<355 356 339 441 629.5 646.5> 226 29<145 146 141.5 169 141.5 171 322 391 568 634 809 850> 312 70<75 126> 331 64<328.5 399.5> 340 62<565 663.5>
LayerCount: 2
Fore
SplineSet
143 227 m 0xe7
 80 263 1 318 1 404 c 0xe640
 1 448 39 501 45 512 c 0
 48 517 50 521 50 525 c 0
 50 529 48 534 42 541 c 0
 30 554 4 590 4 636 c 0xd680
 4 682 44 730 60 740 c 0
 65 743 68 748 68 754 c 0
 68 758 66 763 60 771 c 0
 48 784 17 817 17 883 c 0
 17 952 79 1031 201 1031 c 2
 206 1031 l 2
 251 1030 368 1003 368 936 c 0
 368 882 339 873 313 873 c 0
 285 873 264 880 244 927 c 0
 229 963 178 980 163 980 c 0
 142 980 87 971 87 921 c 0
 87 895 116 868 150 843 c 0
 151 842 153 841 155 841 c 0
 157 841 159 842 160 844 c 2
 160 850 l 2
 160 858 166 865 174 865 c 0
 181 865 189 858 189 850 c 2
 189 826 l 2
 189 820 192 816 194 815 c 0
 200 811 218 799 222 799 c 0
 225 799 226 805 226 809 c 2
 226 850 l 2
 226 858 233 865 240 865 c 0
 249 865 255 858 255 850 c 2
 255 792 l 2
 255 784 259 778 263 776 c 0
 310 749 402 696 402 631 c 0xce40
 402 557 368 531 353 512 c 0
 347 504 345 499 345 494 c 0
 345 489 349 482 353 478 c 0
 359 471 395 428 395 371 c 0
 395 316 347 275 337 261 c 0
 333 255 331 250 331 245 c 0xe680
 331 239 334 234 338 229 c 0
 344 220 382 185 382 126 c 2
 382 119 l 2
 379 56 339 -33 206 -33 c 0
 74 -33 34 49 34 80 c 0
 34 112 51 134 83 134 c 0
 114 134 129 116 143 95 c 0
 158 72 181 3 235 3 c 0
 290 3 311 43 312 75 c 1
 312 75 288 149 260 149 c 0
 257 149 255 147 255 145 c 0
 255 138 249 131 240 131 c 0
 233 131 226 138 226 145 c 2
 226 169 l 2
 226 173 220 180 217 183 c 2
 201 194 l 2
 200 194 197 196 197 196 c 2
 194 196 189 192 189 188 c 2
 189 145 l 2
 189 138 181 131 174 131 c 0
 166 131 160 138 160 145 c 2
 160 206 l 2
 160 212 148 223 143 227 c 0xe7
101 479 m 0
 79 479 53 456 53 433 c 0
 53 409 85 381 105 374 c 2
 145 352 l 2
 147 351 150 350 153 350 c 0
 157 350 160 352 160 355 c 2
 160 441 l 2
 160 450 152 456 149 458 c 0
 131 468 118 474 116 475 c 0
 113 477 108 479 101 479 c 0
255 634 m 2
 255 558 l 2
 255 552 258 545 263 543 c 0
 272 539 280 537 284 535 c 0
 291 534 297 533 302 533 c 0
 323 533 340 555 340 575 c 0
 340 590 330 605 321 612 c 0
 321 613 282 643 262 643 c 0
 259 643 255 640 255 634 c 2
72 670 m 0xd680
 72 647 100 628 119 616 c 2
 125 612 l 1
 125 612 134 607 148 600 c 1
 152 600 l 2
 156 600 160 601 160 606 c 2
 160 687 l 2
 160 692 154 697 152 698 c 2
 133 707 l 2
 130 709 125 710 118 710 c 0
 97 710 72 692 72 670 c 0xd680
255 391 m 2
 255 311 l 2
 255 302 257 296 262 294 c 0
 267 291 271 290 273 289 c 0
 280 287 286 286 291 286 c 0
 307 286 316 295 326 312 c 0
 329 319 331 325 331 332 c 0
 331 349 321 365 311 372 c 0
 307 376 290 384 268 396 c 0
 267 397 265 398 263 398 c 0
 259 398 255 396 255 391 c 2
189 425 m 0
 188 421 188 369 188 343 c 0
 188 335 189 330 194 326 c 2
 216 315 l 2
 217 314 218 314 219 314 c 0
 222 314 226 317 226 322 c 2
 226 405 l 2
 226 417 220 422 217 424 c 0
 212 426 201 434 196 434 c 0
 193 434 189 431 189 425 c 0
188 638 m 0
 188 621 188 601 189 589 c 0
 189 583 193 577 195 576 c 0
 201 572 215 563 222 563 c 0
 224 563 226 564 226 568 c 2
 226 650 l 2
 226 660 222 663 220 664 c 0
 211 668 195 677 194 677 c 0
 192 677 189 675 189 672 c 0
 188 670 188 655 188 638 c 0
EndSplineSet
EndChar

StartChar: uniE04C
Encoding: 57420 57420 72
Width: 371
GlyphClass: 2
Flags: MW
HStem: 320 100<302.5 330> 572 100<302.5 330>
VStem: 0 125<125 870 125 870> 192 36<125 870 125 870> 266 100<356 383.5 608 636>
LayerCount: 2
Fore
SplineSet
0 870 m 1
 125 870 l 1
 125 125 l 1
 0 125 l 1
 0 870 l 1
192 870 m 1
 228 870 l 1
 228 125 l 1
 192 125 l 1
 192 870 l 1
316 572 m 0
 289 572 266 594 266 622 c 0
 266 650 289 672 316 672 c 0
 344 672 366 650 366 622 c 0
 366 594 344 572 316 572 c 0
266 370 m 0
 266 397 289 420 316 420 c 0
 344 420 366 397 366 370 c 0
 366 342 344 320 316 320 c 0
 289 320 266 342 266 370 c 0
EndSplineSet
EndChar

StartChar: uniE04D
Encoding: 57421 57421 73
Width: 371
GlyphClass: 2
Flags: MW
HStem: 320 100<36 63.5> 572 100<36 63.5>
VStem: 0 100<356 383.5 608 636> 138 36<125 870> 241 125<125 870 125 870>
LayerCount: 2
Fore
SplineSet
241 125 m 1
 241 870 l 1
 366 870 l 1
 366 125 l 1
 241 125 l 1
174 125 m 1
 138 125 l 1
 138 870 l 1
 174 870 l 1
 174 125 l 1
50 572 m 0
 22 572 0 594 0 622 c 0
 0 650 22 672 50 672 c 0
 77 672 100 650 100 622 c 0
 100 594 77 572 50 572 c 0
50 320 m 0
 22 320 0 342 0 370 c 0
 0 397 22 420 50 420 c 0
 77 420 100 397 100 370 c 0
 100 342 77 320 50 320 c 0
EndSplineSet
EndChar

StartChar: uniE050
Encoding: 57424 57424 74
Width: 671
GlyphClass: 2
Flags: MW
HStem: -658 36<289 345.5 289 355.5> -252 36<280.5 375.5> 117 135 943 155<448 460.5 448 486.5>
VStem: 0 80<0 49.5 -49.5 188> 132 203<-511 -464> 201 67<-1 20.5 -31 86.5> 292 45<710 769 675 791> 475 44<-530 -432.5> 530 42<805.5 858.5 738.5 888.5> 589 82<-45.5 -2>
LayerCount: 2
Fore
SplineSet
364 -252 m 0xfbe0
 119 -252 0 -87 0 87 c 0
 0 289 153 432 297 551 c 0
 309 561 308 563 306 575 c 0
 299 616 292 681 292 739 c 0xfbe0
 292 843 316 968 390 1050 c 0
 410 1072 441 1098 455 1098 c 0
 466 1098 492 1070 507 1048 c 0
 548 988 572 902 572 815 c 0
 572 662 490 535 382 434 c 0
 376 428 374 427 376 415 c 2
 401 270 l 2
 404 252 404 252 430 252 c 0
 577 252 671 139 671 11 c 0
 671 -102 604 -187 503 -227 c 0
 489 -233 488 -232 490 -244 c 0
 501 -306 519 -401 519 -458 c 0
 519 -628 389 -658 322 -658 c 0
 171 -658 132 -560 132 -495 c 0
 132 -433 172 -380 239 -380 c 0
 300 -380 335 -427 335 -482 c 0xfce0
 335 -540 299 -567 268 -576 c 0
 245 -583 236 -586 236 -593 c 0
 236 -606 262 -622 316 -622 c 0
 375 -622 475 -604 475 -456 c 0
 475 -409 460 -322 448 -255 c 0
 446 -243 444 -244 433 -246 c 0
 413 -250 387 -252 364 -252 c 0xfbe0
80 20 m 0
 80 -119 193 -216 368 -216 c 0
 388 -216 408 -214 424 -211 c 0
 439 -208 440 -208 438 -197 c 2
 388 101 l 2
 386 112 384 113 368 109 c 0
 307 92 268 49 268 -8 c 0
 268 -54 298 -97 340 -115 c 0
 347 -118 355 -121 355 -128 c 0
 355 -134 351 -139 343 -139 c 0
 336 -139 324 -136 316 -133 c 0
 248 -110 201 -46 201 44 c 0
 201 129 258 208 346 238 c 0
 364 244 364 243 361 262 c 2
 340 390 l 2
 338 401 336 402 326 394 c 0
 279 356 233 319 173 252 c 0
 90 158 80 79 80 20 c 0
470 943 m 0
 409 943 337 847 337 691 c 0
 337 659 339 625 343 599 c 0
 345 586 349 585 356 591 c 0
 435 660 530 750 530 861 c 0
 530 916 503 943 470 943 c 0
441 117 m 0
 429 118 428 115 430 103 c 2
 479 -182 l 2
 481 -194 483 -194 495 -188 c 0
 551 -160 589 -109 589 -46 c 0
 589 42 522 110 441 117 c 0
EndSplineSet
AlternateSubs2: "'ss01' Style Set 1 lookup 0 subtable" uniF472
EndChar

StartChar: uniE051
Encoding: 57425 57425 75
Width: 671
GlyphClass: 2
Flags: MW
HStem: -881 16<323 349.5 323 368.5> -876 19<169 172 230 232> -754 20<368 371.5> -700 44<377 415> -658 36<316.5 324.5 339 339> -252 36<280.5 375.5> 117 135 943 155<448 460.5 448 486.5>
VStem: 0 80<0 49.5 -49.5 188> 132 203<-511 -464> 201 67<-1 20.5 -31 86.5> 277 54<-828 -823.5> 292 45<710 769> 389 50<-800 -776.5> 475 44<-524 -432.5> 530 42<805.5 858.5 738.5 888.5> 589 82<-45.5 -2>
LayerCount: 2
Fore
SplineSet
364 -252 m 0x6faf80
 119 -252 0 -87 0 87 c 0
 0 289 153 432 297 551 c 0
 309 561 308 563 306 575 c 0
 299 616 292 681 292 739 c 0
 292 843 316 968 390 1050 c 0
 410 1072 441 1098 455 1098 c 0
 466 1098 492 1070 507 1048 c 0
 548 988 572 902 572 815 c 0
 572 662 490 535 382 434 c 0
 376 428 374 427 376 415 c 2
 401 270 l 2
 404 252 404 252 430 252 c 0
 577 252 671 139 671 11 c 0
 671 -102 604 -187 503 -227 c 0
 489 -233 488 -232 490 -244 c 0
 501 -306 519 -401 519 -458 c 0
 519 -590 440 -638 373 -652 c 1
 381 -654 392 -656 406 -656 c 0
 424 -656 439 -654 452 -650 c 0
 460 -648 463 -646 467 -646 c 0
 470 -646 473 -649 473 -652 c 0
 473 -656 470 -660 464 -665 c 0
 445 -683 417 -700 381 -700 c 0
 373 -700 364 -699 357 -698 c 0
 351 -697 348 -697 346 -703 c 2
 337 -731 l 2x77af80
 335 -737 336 -741 345 -738 c 0
 353 -735 362 -734 374 -734 c 0
 414 -734 439 -748 439 -784 c 0
 439 -842 397 -881 340 -881 c 0
 297 -881 277 -858 277 -834 c 0
 277 -813 290 -798 307 -798 c 0
 320 -798 331 -805 331 -820 c 0
 331 -836 322 -844 315 -847 c 0
 310 -849 307 -850 307 -854 c 0
 307 -860 317 -865 329 -865 c 0
 370 -865 389 -815 389 -785 c 0
 389 -768 382 -754 361 -754 c 0
 342 -754 329 -767 324 -772 c 0
 319 -777 316 -779 312 -779 c 0
 306 -779 302 -775 302 -769 c 0
 302 -766 303 -764 305 -758 c 2
 339 -658 l 1
 339 -657 l 1
 333 -658 327 -658 322 -658 c 0xafb780
 311 -658 301 -657 291 -656 c 1x77af80
 291 -657 290 -658 290 -660 c 2
 230 -849 l 2
 229 -854 228 -857 232 -857 c 2
 253 -859 l 2
 259 -860 262 -863 262 -868 c 0
 262 -873 259 -876 252 -876 c 2
 149 -876 l 2
 142 -876 139 -873 139 -868 c 0
 139 -863 142 -860 148 -859 c 2
 169 -857 l 2
 175 -857 175 -855 177 -851 c 2
 219 -719 l 2
 220 -716 220 -714 220 -712 c 0
 220 -709 219 -708 217 -708 c 0
 214 -708 212 -710 209 -714 c 2
 186 -739 l 2
 183 -743 180 -745 175 -745 c 0
 170 -745 165 -741 165 -736 c 0
 165 -733 167 -730 170 -726 c 2
 236 -652 l 2
 238 -649 240 -647 243 -647 c 1
 157 -619 132 -546 132 -495 c 0
 132 -433 172 -380 239 -380 c 0
 300 -380 335 -427 335 -482 c 0x6fc780
 335 -540 299 -567 268 -576 c 0
 245 -583 236 -586 236 -593 c 0
 236 -606 262 -622 316 -622 c 0
 375 -622 475 -604 475 -456 c 0
 475 -409 460 -322 448 -255 c 0
 446 -243 444 -244 433 -246 c 0
 413 -250 387 -252 364 -252 c 0x6faf80
80 20 m 0
 80 -119 193 -216 368 -216 c 0
 388 -216 408 -214 424 -211 c 0
 439 -208 440 -208 438 -197 c 2
 388 101 l 2
 386 112 384 113 368 109 c 0
 307 92 268 49 268 -8 c 0
 268 -54 298 -97 340 -115 c 0
 347 -118 355 -121 355 -128 c 0
 355 -134 351 -139 343 -139 c 0
 336 -139 324 -136 316 -133 c 0
 248 -110 201 -46 201 44 c 0
 201 129 258 208 346 238 c 0
 364 244 364 243 361 262 c 2
 340 390 l 2
 338 401 336 402 326 394 c 0
 279 356 233 319 173 252 c 0
 90 158 80 79 80 20 c 0
337 691 m 0
 337 659 339 625 343 599 c 0
 345 586 349 585 356 591 c 0
 435 660 530 750 530 861 c 0
 530 916 503 943 470 943 c 0
 409 943 337 847 337 691 c 0
441 117 m 0
 429 118 428 115 430 103 c 2
 479 -182 l 2
 481 -194 483 -194 495 -188 c 0
 551 -160 589 -109 589 -46 c 0
 589 42 522 110 441 117 c 0
EndSplineSet
EndChar

StartChar: uniE052
Encoding: 57426 57426 76
Width: 664
GlyphClass: 2
Flags: MW
HStem: -878 15<292 319 292 330.5> -657 35<340 345.5 289 363> -252 36<280.5 375.5> 117 135 943 155<448 460.5 448 486.5>
VStem: 0 80<0 49.5 -49.5 188> 132 203<-511 -464> 201 67<-1 20.5 -31 86.5> 228 39<-834 -817 -834 -807> 266 47<-699 -697.5> 282 93 292 45<710 769 675 791> 350 47<-830 -815.5> 383 38<-697.5 -684 -703 -681> 475 44<-518.5 -432.5> 530 42<805.5 858.5 738.5 888.5> 589 82<-45.5 -2>
LayerCount: 2
Fore
SplineSet
0 87 m 0xfd2780
 0 289 153 432 297 551 c 0
 309 561 308 563 306 575 c 0
 299 616 292 681 292 739 c 0
 292 843 316 968 390 1050 c 0
 410 1072 441 1098 455 1098 c 0
 466 1098 492 1070 507 1048 c 0
 548 988 572 902 572 815 c 0
 572 662 490 535 382 434 c 0
 376 428 374 427 376 415 c 2
 401 270 l 2
 404 252 404 252 430 252 c 0
 577 252 671 139 671 11 c 0
 671 -102 604 -187 503 -227 c 0
 489 -233 488 -232 490 -244 c 0
 501 -306 519 -401 519 -458 c 0
 519 -579 452 -629 390 -648 c 1
 411 -657 421 -674 421 -694 c 0xfd1780
 421 -712 411 -733 384 -747 c 0
 372 -753 374 -755 381 -763 c 0
 393 -776 397 -789 397 -807 c 0
 397 -853 355 -878 306 -878 c 0
 252 -878 228 -852 228 -819 c 0xfc9b80
 228 -795 241 -773 273 -760 c 0
 285 -755 283 -753 278 -746 c 0
 270 -736 266 -724 266 -709 c 0xfc4780
 266 -686 276 -668 294 -657 c 1
 166 -645 132 -556 132 -495 c 0
 132 -433 172 -380 239 -380 c 0
 300 -380 335 -427 335 -482 c 0xfe0780
 335 -540 299 -567 268 -576 c 0
 245 -583 236 -586 236 -593 c 0
 236 -606 262 -622 316 -622 c 0
 375 -622 475 -604 475 -456 c 0
 475 -409 460 -322 448 -255 c 0
 446 -243 444 -244 433 -246 c 0
 413 -250 387 -252 364 -252 c 0
 119 -252 0 -87 0 87 c 0xfd2780
80 20 m 0
 80 -119 193 -216 368 -216 c 0
 388 -216 408 -214 424 -211 c 0
 439 -208 440 -208 438 -197 c 2
 388 101 l 2
 386 112 384 113 368 109 c 0
 307 92 268 49 268 -8 c 0
 268 -54 298 -97 340 -115 c 0
 347 -118 355 -121 355 -128 c 0
 355 -134 351 -139 343 -139 c 0
 336 -139 324 -136 316 -133 c 0
 248 -110 201 -46 201 44 c 0
 201 129 258 208 346 238 c 0
 364 244 364 243 361 262 c 2
 340 390 l 2
 338 401 336 402 326 394 c 0
 279 356 233 319 173 252 c 0
 90 158 80 79 80 20 c 0
337 691 m 0
 337 659 339 625 343 599 c 0
 345 586 349 585 356 591 c 0
 435 660 530 750 530 861 c 0
 530 916 503 943 470 943 c 0
 409 943 337 847 337 691 c 0
441 117 m 0
 429 118 428 115 430 103 c 2
 479 -182 l 2
 481 -194 483 -194 495 -188 c 0
 551 -160 589 -109 589 -46 c 0
 589 42 522 110 441 117 c 0
267 -825 m 0xfc9b80
 267 -843 277 -863 307 -863 c 0
 331 -863 350 -849 350 -823 c 0
 350 -808 342 -801 310 -776 c 0
 303 -771 300 -770 295 -773 c 0
 274 -786 267 -809 267 -825 c 0xfc9b80
351 -657 m 0
 329 -657 313 -670 313 -692 c 0xfc4780
 313 -706 321 -715 344 -733 c 0
 352 -738 355 -738 359 -735 c 0
 376 -723 383 -706 383 -689 c 0xfd2780
 383 -673 375 -657 351 -657 c 0
EndSplineSet
EndChar

StartChar: uniE053
Encoding: 57427 57427 77
Width: 671
GlyphClass: 2
Flags: MW
HStem: -658 36<289 345.5 289 355.5> -252 36<280.5 375.5> 117 135 1084 14 1305 15<491 514>
VStem: 0 80<0 49.5 -49.5 188> 132 203<-511 -464> 201 67<-1 20.5 -31 86.5> 292 45<710 769 675 798> 379 39<1128.5 1144.5 1128.5 1154> 417 47<1262.5 1273.5> 433 93 475 44<-530 -432.5> 501 47<1134.5 1145.5> 530 42<805.5 859 738.5 888.5> 534 38<1264 1280.5> 589 82<-45.5 -2>
LayerCount: 2
Fore
SplineSet
0 87 m 0xfdd280
 0 289 153 432 297 551 c 0
 309 561 308 563 306 575 c 0
 299 616 292 681 292 739 c 0
 292 857 325 1013 429 1085 c 1
 394 1093 379 1115 379 1142 c 0xfdca80
 379 1166 392 1188 424 1201 c 0
 436 1206 434 1209 429 1216 c 0
 421 1225 417 1238 417 1252 c 0
 417 1295 452 1320 503 1320 c 0
 552 1320 572 1296 572 1268 c 0xfdaa80
 572 1249 562 1229 535 1215 c 0
 523 1209 525 1206 532 1198 c 0
 544 1186 548 1173 548 1154 c 0xfdc480
 548 1115 516 1090 476 1084 c 1
 544 1022 572 903 572 815 c 0xfdca80
 572 662 490 535 382 434 c 0
 376 428 374 427 376 415 c 2
 401 270 l 2
 404 252 404 252 430 252 c 0
 577 252 671 139 671 11 c 0
 671 -102 604 -187 503 -227 c 0
 489 -233 488 -232 490 -244 c 0xfdc480
 501 -306 519 -401 519 -458 c 0
 519 -628 389 -658 322 -658 c 0
 171 -658 132 -560 132 -495 c 0
 132 -433 172 -380 239 -380 c 0
 300 -380 335 -427 335 -482 c 0xfe4a80
 335 -540 299 -567 268 -576 c 0
 245 -583 236 -586 236 -593 c 0
 236 -606 262 -622 316 -622 c 0
 375 -622 475 -604 475 -456 c 0xfdca80
 475 -409 460 -322 448 -255 c 0
 446 -243 444 -244 433 -246 c 0
 413 -250 387 -252 364 -252 c 0
 119 -252 0 -87 0 87 c 0xfdd280
80 20 m 0
 80 -119 193 -216 368 -216 c 0
 388 -216 408 -214 424 -211 c 0
 439 -208 440 -208 438 -197 c 2
 388 101 l 2
 386 112 384 113 368 109 c 0
 307 92 268 49 268 -8 c 0
 268 -54 298 -97 340 -115 c 0
 347 -118 355 -121 355 -128 c 0
 355 -134 351 -139 343 -139 c 0
 336 -139 324 -136 316 -133 c 0
 248 -110 201 -46 201 44 c 0
 201 129 258 208 346 238 c 0
 364 244 364 243 361 262 c 2
 340 390 l 2
 338 401 336 402 326 394 c 0
 279 356 233 319 173 252 c 0
 90 158 80 79 80 20 c 0
470 943 m 0
 409 943 337 847 337 691 c 0
 337 659 339 625 343 599 c 0
 345 586 349 585 356 591 c 0
 435 660 530 750 530 861 c 0
 530 916 503 943 470 943 c 0
441 117 m 0
 429 118 428 115 430 103 c 2
 479 -182 l 2
 481 -194 483 -194 495 -188 c 0
 551 -160 589 -109 589 -46 c 0
 589 42 522 110 441 117 c 0
418 1137 m 0
 418 1120 427 1100 453 1098 c 2
 458 1098 l 2
 482 1098 501 1113 501 1138 c 0xfdc480
 501 1153 493 1160 461 1185 c 0
 454 1191 451 1191 446 1188 c 0
 425 1175 418 1152 418 1137 c 0
502 1305 m 0
 480 1305 464 1292 464 1270 c 0xfdaa80
 464 1255 472 1246 495 1229 c 0
 503 1223 506 1224 510 1227 c 0
 527 1238 534 1256 534 1272 c 0xfdd180
 534 1289 526 1305 502 1305 c 0
EndSplineSet
EndChar

StartChar: uniE054
Encoding: 57428 57428 78
Width: 671
GlyphClass: 2
Flags: MW
HStem: -658 36<289 345.5 289 355.5> -252 36<280.5 375.5> 117 135 1083 16<497 523.5 497 542.5> 1088 17<319.5 322 319 323 319 426> 1211 20<542 545.5> 1265 44<571.5 573>
VStem: 0 80<0 49.5 -49.5 188> 132 203<-511 -464> 201 67<-1 20.5 -31 86.5> 292 45<710 769 675 791> 451 54<1136 1141> 475 44<-530 -432.5> 530 42<805.5 858.5 738.5 888.5> 563 50<1164 1188> 589 82<-45.5 -2>
LayerCount: 2
Fore
SplineSet
364 -252 m 0xef6d
 119 -252 0 -87 0 87 c 0
 0 289 153 432 297 551 c 0
 309 561 308 563 306 575 c 0
 299 616 292 681 292 739 c 0xf76d
 292 843 316 968 390 1050 c 0
 410 1072 441 1098 455 1098 c 0
 466 1098 492 1070 507 1048 c 0
 548 988 572 902 572 815 c 0
 572 662 490 535 382 434 c 0
 376 428 374 427 376 415 c 2
 401 270 l 2
 404 252 404 252 430 252 c 0
 577 252 671 139 671 11 c 0
 671 -102 604 -187 503 -227 c 0
 489 -233 488 -232 490 -244 c 0
 501 -306 519 -401 519 -458 c 0
 519 -628 389 -658 322 -658 c 0
 171 -658 132 -560 132 -495 c 0
 132 -433 172 -380 239 -380 c 0
 300 -380 335 -427 335 -482 c 0xef8d
 335 -540 299 -567 268 -576 c 0
 245 -583 236 -586 236 -593 c 0
 236 -606 262 -622 316 -622 c 0
 375 -622 475 -604 475 -456 c 0
 475 -409 460 -322 448 -255 c 0
 446 -243 444 -244 433 -246 c 0
 413 -250 387 -252 364 -252 c 0xef6d
173 252 m 0
 90 158 80 79 80 20 c 0
 80 -119 193 -216 368 -216 c 0
 388 -216 408 -214 424 -211 c 0
 439 -208 440 -208 438 -197 c 2
 388 101 l 2
 386 112 384 113 368 109 c 0
 307 92 268 49 268 -8 c 0
 268 -54 298 -97 340 -115 c 0
 347 -118 355 -121 355 -128 c 0
 355 -134 351 -139 343 -139 c 0
 336 -139 324 -136 316 -133 c 0
 248 -110 201 -46 201 44 c 0
 201 129 258 208 346 238 c 0
 364 244 364 243 361 262 c 2
 340 390 l 2
 338 401 336 402 326 394 c 0
 279 356 233 319 173 252 c 0
470 943 m 0
 409 943 337 847 337 691 c 0
 337 659 339 625 343 599 c 0
 345 586 349 585 356 591 c 0
 435 660 530 750 530 861 c 0
 530 916 503 943 470 943 c 0
441 117 m 0
 429 118 428 115 430 103 c 2
 479 -182 l 2
 481 -194 483 -194 495 -188 c 0
 551 -160 589 -109 589 -46 c 0
 589 42 522 110 441 117 c 0
514 1083 m 0
 471 1083 451 1106 451 1131 c 0
 451 1151 464 1167 481 1167 c 0
 494 1167 505 1159 505 1144 c 0xf775
 505 1128 496 1121 489 1118 c 0
 484 1115 481 1114 481 1110 c 0
 481 1104 491 1099 503 1099 c 0
 544 1099 563 1149 563 1179 c 0
 563 1197 556 1211 535 1211 c 0
 516 1211 503 1198 498 1192 c 0
 493 1188 490 1186 486 1186 c 0
 480 1186 476 1189 476 1195 c 0
 476 1199 477 1201 479 1207 c 2
 513 1306 l 2
 515 1313 519 1317 526 1317 c 0
 531 1317 534 1316 543 1313 c 0
 550 1311 563 1309 580 1309 c 0
 598 1309 613 1311 626 1314 c 0
 634 1317 639 1319 641 1319 c 0
 644 1319 647 1316 647 1313 c 0
 647 1309 644 1305 638 1299 c 0
 619 1282 591 1265 555 1265 c 0
 547 1265 538 1266 531 1267 c 0
 525 1268 522 1268 520 1262 c 2
 511 1234 l 2
 509 1228 510 1224 519 1227 c 0
 527 1229 536 1231 548 1231 c 0
 588 1231 613 1216 613 1180 c 0xf76a
 613 1122 571 1083 514 1083 c 0
323 1088 m 2xef6d
 316 1088 313 1092 313 1097 c 0
 313 1102 316 1105 322 1105 c 2
 343 1107 l 2
 349 1108 349 1109 351 1114 c 2
 393 1245 l 2
 394 1248 394 1250 394 1252 c 0
 394 1255 393 1256 391 1256 c 0
 388 1256 386 1255 383 1251 c 2
 360 1226 l 2
 357 1222 354 1219 349 1219 c 0
 344 1219 339 1224 339 1228 c 0
 339 1232 341 1235 344 1239 c 2
 410 1313 l 2
 413 1316 415 1318 419 1318 c 0
 427 1318 431 1312 438 1312 c 0
 445 1312 453 1318 459 1318 c 0
 463 1318 465 1315 465 1312 c 0
 465 1310 465 1308 464 1305 c 2
 404 1116 l 2
 403 1111 402 1108 406 1107 c 2
 427 1105 l 2
 433 1105 436 1102 436 1097 c 0
 436 1092 433 1088 426 1088 c 2
 323 1088 l 2xef6d
EndSplineSet
EndChar

StartChar: uniE055
Encoding: 57429 57429 79
Width: 1044
GlyphClass: 2
Flags: MW
HStem: -658 36<289 345.5 289 350 662 718.5> -252 36<280.5 375.5 710 748.5> 117 135 943 155<448 460.5 448 486.5 821 833.5>
VStem: 0 80<0 49.5 -49.5 188> 132 203<-511 -464> 201 67<-1 20.5 -31 86.5> 292 45<710 769 675 791> 373 80<-16.5 110 -16.5 110> 475 43 530 42<805.5 858.5 738.5 888.5> 589 82<-46 19.5 -37 19.5> 665 45<710 769 675 791> 848 44<-530 -432.5> 903 42<805.5 858.5 738.5 888.5> 962 82<-45.5 -2>
LayerCount: 2
Fore
SplineSet
0 87 m 0xfbef
 0 289 153 432 297 551 c 0
 309 561 308 563 306 575 c 0
 299 616 292 681 292 739 c 0xfbef
 292 843 316 968 390 1050 c 0
 410 1072 441 1098 455 1098 c 0
 466 1098 492 1070 507 1048 c 0
 548 988 572 902 572 815 c 0
 572 662 490 535 382 434 c 0
 376 428 374 427 376 415 c 2
 401 270 l 2
 403 256 403 252 409 251 c 1
 463 373 570 468 670 551 c 0
 682 561 681 563 679 575 c 0
 672 616 665 681 665 739 c 0
 665 843 689 968 763 1050 c 0
 783 1072 814 1098 828 1098 c 0
 839 1098 865 1070 880 1048 c 0
 921 988 945 902 945 815 c 0
 945 662 863 535 755 434 c 0
 749 428 747 427 749 415 c 2
 774 270 l 2
 777 252 777 252 803 252 c 0
 950 252 1044 139 1044 11 c 0
 1044 -102 977 -187 876 -227 c 0
 862 -233 861 -232 863 -244 c 0
 874 -306 892 -401 892 -458 c 0
 892 -628 762 -658 695 -658 c 0
 570 -658 522 -591 509 -531 c 1
 477 -637 378 -658 322 -658 c 0
 171 -658 132 -560 132 -495 c 0
 132 -433 172 -380 239 -380 c 0
 300 -380 335 -427 335 -482 c 0xfcef
 335 -540 299 -567 268 -576 c 0
 245 -583 236 -586 236 -593 c 0
 236 -606 262 -622 316 -622 c 0
 375 -622 475 -604 475 -456 c 0
 475 -409 460 -322 448 -255 c 0
 446 -243 444 -244 433 -246 c 0
 413 -250 387 -252 364 -252 c 0
 119 -252 0 -87 0 87 c 0xfbef
173 252 m 0
 90 158 80 79 80 20 c 0
 80 -119 193 -216 368 -216 c 0
 388 -216 408 -214 424 -211 c 0
 439 -208 440 -208 438 -197 c 2
 420 -91 l 1
 388 -37 373 24 373 87 c 2
 373 110 l 1
 372 110 370 109 368 109 c 0
 307 92 268 49 268 -8 c 0
 268 -54 298 -97 340 -115 c 0
 347 -118 355 -121 355 -128 c 0
 355 -134 351 -139 343 -139 c 0
 336 -139 324 -136 316 -133 c 0
 248 -110 201 -46 201 44 c 0
 201 129 258 208 346 238 c 0
 364 244 364 243 361 262 c 2
 340 390 l 2
 338 401 336 402 326 394 c 0
 279 356 233 319 173 252 c 0
503 -227 m 0
 489 -233 488 -232 490 -244 c 0
 499 -298 515 -379 518 -436 c 1
 535 -403 568 -380 612 -380 c 0
 673 -380 708 -427 708 -482 c 0
 708 -540 672 -567 641 -576 c 0
 618 -583 609 -586 609 -593 c 0
 609 -606 635 -622 689 -622 c 0
 748 -622 848 -604 848 -456 c 0
 848 -409 833 -322 821 -255 c 0
 819 -243 817 -244 806 -246 c 0
 786 -250 760 -252 737 -252 c 0
 660 -252 595 -235 543 -207 c 1
 530 -215 517 -221 503 -227 c 0
337 691 m 0
 337 659 339 625 343 599 c 0
 345 586 349 585 356 591 c 0
 435 660 530 750 530 861 c 0
 530 916 503 943 470 943 c 0
 409 943 337 847 337 691 c 0
710 691 m 0
 710 659 712 625 716 599 c 0
 718 586 722 585 729 591 c 0
 808 660 903 750 903 861 c 0
 903 916 876 943 843 943 c 0
 782 943 710 847 710 691 c 0
642 -108 m 1
 627 -136 606 -161 581 -182 c 1
 625 -203 679 -216 741 -216 c 0
 761 -216 781 -214 797 -211 c 0
 812 -208 813 -208 811 -197 c 2
 761 101 l 2
 759 112 757 113 741 109 c 0
 709 100 683 84 666 63 c 1
 669 46 671 28 671 11 c 0xfbf7
 671 -17 667 -44 659 -68 c 1
 672 -89 690 -105 713 -115 c 0
 720 -118 728 -121 728 -128 c 0
 728 -134 724 -139 716 -139 c 0
 694 -139 658 -121 642 -108 c 1
814 117 m 0
 802 118 801 115 803 103 c 2
 852 -182 l 2
 854 -194 856 -194 868 -188 c 0
 924 -160 962 -109 962 -46 c 0
 962 42 895 110 814 117 c 0
453 20 m 0
 453 -53 484 -115 540 -157 c 1
 570 -128 589 -90 589 -46 c 2
 589 -37 l 1
 582 -20 577 0 575 20 c 1
 555 67 514 101 465 113 c 1
 455 78 453 47 453 20 c 0
529 232 m 1
 565 217 594 194 617 166 c 1
 642 198 677 223 719 238 c 0
 737 244 737 243 734 262 c 2
 713 390 l 2
 711 401 709 402 699 394 c 0
 652 356 606 319 546 252 c 0
 540 245 534 239 529 232 c 1
475 -159 m 1
 479 -182 l 2
 481 -194 483 -194 495 -188 c 2
 503 -183 l 1
 493 -176 484 -168 475 -159 c 1
EndSplineSet
EndChar

StartChar: uniE056
Encoding: 57430 57430 80
Width: 842
GlyphClass: 2
Flags: MW
HStem: -658 36<289 345.5 289 355.5> -252 36<280.5 375.5> 117 135 252 92<623.5 829 628 794> 406 92<623.5 794 628 794 794 797.5 628 829> 943 155<448 460.5 448 486.5>
VStem: 0 80<0 49.5 -49.5 188> 132 203<-511 -464> 201 67<-1 20.5 -31 86.5> 292 45<710 769 675 791> 475 44<-530 -432.5> 530 42<805.5 858.5 738.5 888.5> 589 82<-45.5 -2> 804 38<-141 242 242 245.5 508 891>
LayerCount: 2
Fore
SplineSet
0 87 m 0xdefc
 0 289 153 432 297 551 c 0
 309 561 308 563 306 575 c 0
 299 616 292 681 292 739 c 0xdefc
 292 843 316 968 390 1050 c 0
 410 1072 441 1098 455 1098 c 0
 466 1098 492 1070 507 1048 c 0
 548 988 572 902 572 815 c 0
 572 662 490 535 382 434 c 0
 376 428 374 427 376 415 c 2
 401 270 l 2
 404 252 404 252 430 252 c 0
 577 252 671 139 671 11 c 0
 671 -102 604 -187 503 -227 c 0
 489 -233 488 -232 490 -244 c 0
 501 -306 519 -401 519 -458 c 0
 519 -628 389 -658 322 -658 c 0
 171 -658 132 -560 132 -495 c 0
 132 -433 172 -380 239 -380 c 0
 300 -380 335 -427 335 -482 c 0xdf3c
 335 -540 299 -567 268 -576 c 0
 245 -583 236 -586 236 -593 c 0
 236 -606 262 -622 316 -622 c 0
 375 -622 475 -604 475 -456 c 0
 475 -409 460 -322 448 -255 c 0
 446 -243 444 -244 433 -246 c 0
 413 -250 387 -252 364 -252 c 0
 119 -252 0 -87 0 87 c 0xdefc
80 20 m 0
 80 -119 193 -216 368 -216 c 0
 388 -216 408 -214 424 -211 c 0
 439 -208 440 -208 438 -197 c 2
 388 101 l 2
 386 112 384 113 368 109 c 0
 307 92 268 49 268 -8 c 0
 268 -54 298 -97 340 -115 c 0
 347 -118 355 -121 355 -128 c 0
 355 -134 351 -139 343 -139 c 0
 336 -139 324 -136 316 -133 c 0
 248 -110 201 -46 201 44 c 0
 201 129 258 208 346 238 c 0
 364 244 364 243 361 262 c 2
 340 390 l 2
 338 401 336 402 326 394 c 0
 279 356 233 319 173 252 c 0
 90 158 80 79 80 20 c 0
337 691 m 0
 337 659 339 625 343 599 c 0
 345 586 349 585 356 591 c 0
 435 660 530 750 530 861 c 0
 530 916 503 943 470 943 c 0
 409 943 337 847 337 691 c 0
615 419 m 2
 615 485 l 2
 615 494 619 498 628 498 c 2
 794 498 l 2
 801 498 804 501 804 508 c 2
 804 891 l 2
 804 904 810 912 823 912 c 0
 836 912 842 904 842 891 c 2
 842 419 l 2
 842 410 838 406 829 406 c 2
 628 406 l 2
 619 406 615 410 615 419 c 2
615 331 m 2
 615 340 619 344 628 344 c 2
 829 344 l 2
 838 344 842 340 842 331 c 2
 842 -141 l 2
 842 -154 836 -162 823 -162 c 0
 810 -162 804 -154 804 -141 c 2
 804 242 l 2
 804 249 801 252 794 252 c 2
 628 252 l 2
 619 252 615 256 615 265 c 2
 615 331 l 2
441 117 m 0xeefc
 429 118 428 115 430 103 c 2
 479 -182 l 2
 481 -194 483 -194 495 -188 c 0
 551 -160 589 -109 589 -46 c 0
 589 42 522 110 441 117 c 0xeefc
EndSplineSet
EndChar

StartChar: uniE057
Encoding: 57431 57431 81
Width: 664
GlyphClass: 2
Flags: MW
HStem: -898 12<235 235.5 235 236 235 235.5> -865 11<298.5 317.5 298.5 329.5> -645 36<335 337 337 342> -244 37<315.5 384 315.5 386.5> 122 139<423 426 426 427 423 423>
VStem: 1 79<15 15 15 25 15 199.5> 129 202<-491.5 -476> 148 38<-788.5 -734.5> 201 64<-4 94.5> 221 36<-799 -792.5 -799 -786.5> 258 46<-694.5 -669> 292 39<715.5 727> 343 49<-822 -818> 383 34<-690 -683 -683 -678.5> 462 38<-790.5 -735 -790.5 -733> 472 44<-496 -433 -496 -433> 524 45<809.5 847.5 748.5 890> 584 82<-37 -26 -26 -26>
LayerCount: 2
Fore
SplineSet
1 103 m 0xfd55c0
 1 296 164 441 308 566 c 1
 299 629 l 2
 294 664 292 699 292 732 c 0
 292 911 355 1059 452 1101 c 1
 452 1101 489 1094 526 1008 c 0
 554 943 569 879 569 816 c 0
 569 681 502 552 370 428 c 1
 378 374 390 323 401 259 c 1
 405 261 409 261 415 261 c 2
 426 261 l 2
 552 261 659 161 666 33 c 1
 666 17 l 2
 666 -93 596 -183 486 -226 c 1
 509 -372 l 2
 514 -398 516 -422 516 -444 c 0xfd95c0
 516 -548 467 -602 413 -627 c 1
 473 -660 500 -707 500 -763 c 0
 500 -818 474 -866 412 -900 c 1
 411 -898 l 1
 411 -891 l 2
 411 -889 412 -888 413 -887 c 0
 448 -859 462 -823 462 -763 c 0
 462 -703 449 -666 413 -639 c 0
 411 -638 411 -635 411 -635 c 1
 411 -628 l 1
 400 -633 389 -637 378 -640 c 1
 399 -647 417 -663 417 -688 c 0
 417 -720 396 -726 387 -736 c 0
 381 -740 379 -744 379 -749 c 0
 379 -753 381 -758 383 -764 c 0xfd56c0
 389 -775 392 -786 392 -797 c 0
 392 -847 351 -865 308 -865 c 0
 276 -865 231 -845 222 -809 c 0
 221 -806 221 -803 221 -800 c 0
 221 -773 246 -743 270 -736 c 0
 274 -735 276 -733 276 -731 c 0
 276 -729 275 -727 274 -726 c 0
 263 -714 258 -701 258 -688 c 0
 258 -672 266 -656 280 -645 c 1
 264 -643 249 -640 236 -635 c 1
 236 -636 235 -637 235 -637 c 1
 199 -664 186 -700 186 -761 c 0
 186 -822 200 -858 235 -886 c 0
 236 -886 237 -887 237 -889 c 2
 237 -896 l 2
 237 -897 236 -898 236 -898 c 1
 235 -898 l 1
 174 -864 148 -816 148 -761 c 0xfd69c0
 148 -708 172 -664 224 -631 c 1
 143 -599 129 -528 129 -486 c 0xfe05c0
 129 -466 132 -453 133 -453 c 0
 140 -407 177 -372 225 -370 c 2
 232 -370 l 2
 284 -370 327 -413 331 -464 c 1
 331 -469 l 2
 331 -514 303 -550 262 -564 c 0
 254 -569 247 -569 238 -571 c 0
 233 -572 230 -575 230 -578 c 0
 230 -581 232 -584 238 -589 c 0
 259 -604 288 -609 321 -609 c 2
 337 -609 l 2
 349 -609 472 -607 472 -443 c 0
 472 -423 470 -401 466 -376 c 2
 444 -240 l 1
 438 -240 l 2
 418 -242 397 -244 376 -244 c 0
 161 -244 1 -122 1 103 c 0xfd55c0
80 15 m 1
 85 -159 261 -207 370 -207 c 0
 398 -207 421 -204 436 -199 c 1
 383 118 l 1
 316 107 265 74 265 6 c 2
 265 -4 l 2
 268 -44 311 -94 331 -102 c 0
 340 -106 346 -114 346 -120 c 0
 346 -125 342 -128 333 -128 c 0
 328 -128 321 -127 313 -125 c 0
 247 -101 201 -19 201 50 c 0
 201 139 270 225 360 251 c 1
 335 406 l 1
 206 312 80 190 80 25 c 2
 80 15 l 1
331 676 m 0
 331 664 332 654 333 644 c 0
 333 638 337 619 343 595 c 1xfd59c0
 421 654 524 756 524 863 c 0
 524 917 493 944 460 944 c 0
 381 939 331 778 331 676 c 0
427 122 m 2
 423 122 l 1
 444 10 463 -98 479 -187 c 1
 547 -158 584 -107 584 -37 c 2
 584 -26 l 1
 580 57 509 122 427 122 c 2
268 -768 m 0
 261 -775 257 -787 257 -798 c 0
 257 -800 258 -803 258 -805 c 0
 264 -836 289 -854 308 -854 c 0
 327 -854 343 -836 343 -820 c 0
 343 -816 343 -811 341 -807 c 0
 335 -793 327 -782 316 -773 c 0xfd69c0
 311 -768 304 -764 301 -760 c 0
 297 -758 292 -752 287 -752 c 0
 280 -752 276 -758 272 -760 c 0
 270 -762 268 -764 268 -768 c 0
304 -669 m 0
 304 -688 331 -715 347 -724 c 0
 352 -727 356 -729 360 -729 c 0
 376 -729 381 -704 383 -690 c 2
 383 -683 l 2xfd55c0
 383 -674 379 -664 374 -661 c 0
 364 -651 349 -645 335 -645 c 0
 320 -647 306 -653 304 -669 c 0
EndSplineSet
EndChar

StartChar: uniE058
Encoding: 57432 57432 82
Width: 692
GlyphClass: 2
Flags: MW
HStem: -661 14<155 349 349 352 155 349> -254 36<325.5 392.5> 116 140<435 438 438 479>
VStem: 6 81 212 63<-13 89> 302 41<714 731 673 822.5> 485 45<-533 -451> 539 43<752 893> 600 82<-46.5 6.5>
LayerCount: 2
Fore
SplineSet
8 66 m 0
 8 76 6 87 6 96 c 0
 6 290 173 439 320 566 c 1
 309 629 l 2
 304 663 302 697 302 731 c 0
 302 914 367 1065 465 1108 c 1
 465 1108 501 1101 540 1013 c 0
 569 948 582 884 582 821 c 0
 582 683 514 550 381 426 c 1
 413 254 l 1
 417 256 422 256 426 256 c 2
 438 256 l 2
 566 256 675 155 682 26 c 1
 682 10 l 2
 682 -103 611 -193 499 -236 c 1
 512 -327 523 -385 523 -385 c 2
 528 -410 530 -435 530 -455 c 0
 530 -611 424 -656 352 -661 c 1
 155 -661 l 1
 155 -647 l 1
 349 -647 l 2
 361 -647 485 -627 485 -462 c 0
 485 -440 483 -417 478 -390 c 2
 472 -357 l 2
 453 -253 453 -250 449 -250 c 2
 439 -250 l 2
 420 -252 402 -254 383 -254 c 0
 218 -254 29 -178 8 66 c 0
87 8 m 1
 92 -168 270 -218 381 -218 c 0
 408 -218 433 -214 449 -209 c 1
 395 112 l 1
 327 100 275 66 275 -4 c 2
 275 -13 l 2
 277 -53 322 -103 343 -112 c 0
 349 -117 356 -123 356 -130 c 0
 356 -135 354 -139 345 -139 c 0
 343 -139 334 -137 325 -135 c 0
 277 -119 232 -69 216 1 c 0
 212 15 212 30 212 44 c 0
 212 134 279 220 372 247 c 1
 347 403 l 1
 216 308 87 184 87 17 c 2
 87 8 l 1
474 948 m 0
 392 943 343 783 343 679 c 0
 343 667 343 656 345 645 c 0
 345 640 349 620 354 595 c 1
 462 676 523 762 537 846 c 0
 537 853 539 859 539 866 c 0
 539 920 505 948 474 948 c 0
435 116 m 1
 492 -198 l 1
 564 -166 600 -114 600 -35 c 0
 600 48 523 116 435 116 c 1
EndSplineSet
EndChar

StartChar: uniE059
Encoding: 57433 57433 83
Width: 671
GlyphClass: 2
Flags: MW
HStem: -658 36<289 345.5 289 355.5> -252 36<280.5 375.5> 117 135
VStem: 0 80<0 49.5 -49.5 188> 132 203<-511 -464> 201 67<-1 20.5 -31 86.5> 292 45<710 761 675 791> 475 44<-530 -432.5> 589 82<-45.5 -2>
LayerCount: 2
Fore
SplineSet
0 87 m 0xf780
 0 289 153 432 297 551 c 0
 309 561 308 563 306 575 c 0
 299 616 292 681 292 739 c 0
 292 843 317 969 390 1050 c 0
 416 1079 444 1100 467 1100 c 0
 482 1100 492 1078 494 1072 c 0
 498 1062 496 1052 493 1039 c 0
 486 1012 478 986 470 960 c 0
 466 946 453 941 443 937 c 0
 394 917 337 831 337 691 c 0xf780
 337 659 339 625 343 599 c 0
 345 586 349 585 356 591 c 0
 426 652 510 733 527 826 c 0
 531 849 532 857 550 857 c 0
 570 857 572 852 572 815 c 0
 572 662 490 535 382 434 c 0
 376 428 374 427 376 415 c 2
 401 270 l 2
 404 252 404 252 430 252 c 0
 577 252 671 139 671 11 c 0
 671 -102 604 -187 503 -227 c 0
 489 -233 488 -232 490 -244 c 0
 501 -306 519 -401 519 -458 c 0
 519 -628 389 -658 322 -658 c 0
 171 -658 132 -560 132 -495 c 0
 132 -433 172 -380 239 -380 c 0
 300 -380 335 -427 335 -482 c 0xf980
 335 -540 299 -567 268 -576 c 0
 245 -583 236 -586 236 -593 c 0
 236 -606 262 -622 316 -622 c 0
 375 -622 475 -604 475 -456 c 0
 475 -409 460 -322 448 -255 c 0
 446 -243 444 -244 433 -246 c 0
 413 -250 387 -252 364 -252 c 0
 119 -252 0 -87 0 87 c 0xf780
80 20 m 0
 80 -119 193 -216 368 -216 c 0
 388 -216 408 -214 424 -211 c 0
 439 -208 440 -208 438 -197 c 2
 388 101 l 2
 386 112 384 113 368 109 c 0
 307 92 268 49 268 -8 c 0
 268 -54 298 -97 340 -115 c 0
 347 -118 355 -121 355 -128 c 0
 355 -134 351 -139 343 -139 c 0
 336 -139 324 -136 316 -133 c 0
 248 -110 201 -46 201 44 c 0
 201 129 258 208 346 238 c 0
 364 244 364 243 361 262 c 2
 340 390 l 2
 338 401 336 402 326 394 c 0
 279 356 233 319 173 252 c 0
 90 158 80 79 80 20 c 0
441 117 m 0
 429 118 428 115 430 103 c 2
 479 -182 l 2
 481 -194 483 -194 495 -188 c 0
 551 -160 589 -109 589 -46 c 0
 589 42 522 110 441 117 c 0
EndSplineSet
EndChar

StartChar: uniE05A
Encoding: 57434 57434 84
Width: 669
GlyphClass: 2
Flags: MW
HStem: -658 36<289 345.5 289 355.5> -252 36<280.5 375.5> 117 135
VStem: 0 80<0 49.5 -49.5 188> 132 203<-511 -464> 201 67<-1 20.5 -31 86.5> 475 44<-530 -432.5> 500 62<790.5 836.5 714 880> 589 82<-45.5 -2>
LayerCount: 2
Fore
SplineSet
0 87 m 0xf680
 0 289 153 432 297 551 c 0
 309 561 308 563 306 575 c 2
 306 575 261 846 259 856 c 0
 257 867 253 871 249 870 c 2
 189 859 l 2
 183 858 179 860 178 866 c 2
 178 873 l 1
 215 1193 l 2
 215 1198 215 1201 219 1201 c 0
 223 1202 225 1199 226 1195 c 2
 367 905 l 2
 369 900 370 892 362 890 c 0
 359 890 311 881 305 880 c 0
 298 879 295 871 297 862 c 0
 298 854 343 599 343 599 c 2
 345 586 349 585 356 591 c 0
 444 667 500 727 500 854 c 0xf580
 500 906 480 949 469 964 c 0
 463 973 463 980 467 984 c 0
 469 986 471 987 475 987 c 0xf680
 479 987 485 985 493 977 c 0
 525 944 562 886 562 787 c 0xf580
 562 641 484 530 382 434 c 0
 376 428 374 427 376 415 c 2
 401 270 l 2
 404 252 404 252 430 252 c 0
 577 252 671 139 671 11 c 0
 671 -102 604 -187 503 -227 c 0
 489 -233 488 -232 490 -244 c 0
 501 -306 519 -401 519 -458 c 0
 519 -628 389 -658 322 -658 c 0
 171 -658 132 -560 132 -495 c 0
 132 -433 172 -380 239 -380 c 0
 300 -380 335 -427 335 -482 c 0xfa80
 335 -540 299 -567 268 -576 c 0
 245 -583 236 -586 236 -593 c 0
 236 -606 262 -622 316 -622 c 0
 375 -622 475 -604 475 -456 c 0
 475 -409 460 -322 448 -255 c 0
 446 -243 444 -244 433 -246 c 0
 413 -250 387 -252 364 -252 c 0
 119 -252 0 -87 0 87 c 0xf680
173 252 m 0
 90 158 80 79 80 20 c 0
 80 -119 193 -216 368 -216 c 0
 388 -216 408 -214 424 -211 c 0
 439 -208 440 -208 438 -197 c 2
 388 101 l 2
 386 112 384 113 368 109 c 0
 307 92 268 49 268 -8 c 0
 268 -54 298 -97 340 -115 c 0
 347 -118 355 -121 355 -128 c 0
 355 -134 351 -139 343 -139 c 0
 336 -139 324 -136 316 -133 c 0
 248 -110 201 -46 201 44 c 0
 201 129 258 208 346 238 c 0
 364 244 364 243 361 262 c 2
 340 390 l 2
 338 401 336 402 326 394 c 0
 279 356 233 319 173 252 c 0
441 117 m 0
 429 118 428 115 430 103 c 2
 479 -182 l 2
 481 -194 483 -194 495 -188 c 0
 551 -160 589 -109 589 -46 c 0
 589 42 522 110 441 117 c 0
EndSplineSet
EndChar

StartChar: uniE05B
Encoding: 57435 57435 85
Width: 673
GlyphClass: 2
Flags: MW
HStem: -255 36<280.5 375.5> 114 135 940 155<448 460.5 448 486.5>
VStem: 0 80<-3 46.5 -52.5 185> 201 67<-4 17.5 -34 83.5> 292 45<707 766 672 788> 530 42<802.5 855.5 735.5 885.5> 589 82<-48.5 -5>
LayerCount: 2
Fore
SplineSet
364 -255 m 0
 119 -255 0 -90 0 84 c 0
 0 286 153 429 297 548 c 0
 309 558 308 560 306 572 c 0
 299 613 292 678 292 736 c 0
 292 840 316 965 390 1047 c 0
 410 1069 441 1095 455 1095 c 0
 466 1095 492 1067 507 1045 c 0
 548 985 572 899 572 812 c 0
 572 659 490 532 382 431 c 0
 376 425 374 424 376 412 c 2
 401 267 l 2
 404 249 404 249 430 249 c 0
 577 249 671 136 671 8 c 0
 671 -105 604 -190 503 -230 c 0
 489 -236 488 -235 490 -247 c 2
 510 -371 l 2
 512 -380 513 -385 520 -385 c 2
 580 -375 l 2
 586 -374 589 -375 590 -381 c 2
 590 -388 l 1
 553 -708 l 2
 553 -713 553 -716 549 -716 c 0
 545 -717 543 -714 542 -710 c 2
 401 -420 l 2
 399 -416 399 -414 399 -413 c 0
 398 -407 400 -406 406 -405 c 2
 458 -396 l 2
 470 -394 471 -392 469 -380 c 2
 448 -258 l 2
 446 -246 444 -247 433 -249 c 0
 413 -253 387 -255 364 -255 c 0
173 249 m 0
 90 155 80 76 80 17 c 0
 80 -122 193 -219 368 -219 c 0
 388 -219 408 -217 424 -214 c 0
 439 -211 440 -211 438 -200 c 2
 388 98 l 2
 386 109 384 110 368 106 c 0
 307 89 268 46 268 -11 c 0
 268 -57 298 -100 340 -118 c 0
 347 -121 355 -124 355 -131 c 0
 355 -137 351 -142 343 -142 c 0
 336 -142 324 -139 316 -136 c 0
 248 -113 201 -49 201 41 c 0
 201 126 258 205 346 235 c 0
 364 241 364 240 361 259 c 2
 340 387 l 2
 338 398 336 399 326 391 c 0
 279 353 233 316 173 249 c 0
337 688 m 0
 337 656 339 622 343 596 c 0
 345 583 349 582 356 588 c 0
 435 657 530 747 530 858 c 0
 530 913 503 940 470 940 c 0
 409 940 337 844 337 688 c 0
441 114 m 0
 429 115 428 112 430 100 c 2
 479 -185 l 2
 481 -197 483 -197 495 -191 c 0
 551 -163 589 -112 589 -49 c 0
 589 39 522 107 441 114 c 0
EndSplineSet
EndChar

StartChar: uniE05C
Encoding: 57436 57436 86
Width: 699
GlyphClass: 2
Flags: MW
HStem: -506 32<445 493.5 445 545> -89 36<475.5 507.5> 53 36<475.5 507.5 439.5 556.5> 474 32<445 493.5>
VStem: 0 128<-482 482> 187 43<-482 -44 40 44 44 482> 289 145<-386 -353.5 353.5 386> 558 141<-339 -218.5 218.5 339>
LayerCount: 2
Fore
SplineSet
187 -482 m 2
 187 482 l 2
 187 496 194 503 208 503 c 2
 209 503 l 2
 223 503 230 496 230 482 c 2
 230 44 l 2
 230 36 235 37 239 38 c 0
 265 45 307 71 328 184 c 0
 331 200 337 209 347 209 c 0
 358 209 363 199 368 182 c 0
 381 138 404 89 475 89 c 0
 540 89 558 153 558 284 c 0
 558 415 535 474 452 474 c 0
 438 474 367 468 367 447 c 0
 367 442 383 436 394 432 c 0
 414 425 434 405 434 367 c 0
 434 323 405 298 366 298 c 0
 323 298 289 327 289 380 c 0
 289 443 344 506 463 506 c 0
 627 506 699 391 699 287 c 0
 699 149 623 53 490 53 c 0
 461 53 442 58 429 62 c 0
 419 65 409 67 400 61 c 0
 386 52 364 20 364 0 c 0
 364 -20 386 -52 400 -61 c 0
 409 -67 419 -65 429 -62 c 0
 442 -58 461 -53 490 -53 c 0
 623 -53 699 -149 699 -287 c 0
 699 -391 627 -506 463 -506 c 0
 344 -506 289 -443 289 -380 c 0
 289 -327 323 -298 366 -298 c 0
 405 -298 434 -323 434 -367 c 0
 434 -405 414 -425 394 -432 c 0
 383 -436 367 -442 367 -447 c 0
 367 -468 438 -474 452 -474 c 0
 535 -474 558 -415 558 -284 c 0
 558 -153 540 -89 475 -89 c 0
 404 -89 381 -138 368 -182 c 0
 363 -199 358 -209 347 -209 c 0
 337 -209 331 -200 328 -184 c 0
 307 -71 265 -45 239 -38 c 0
 235 -37 230 -36 230 -44 c 2
 230 -482 l 2
 230 -496 223 -503 209 -503 c 2
 208 -503 l 2
 194 -503 187 -496 187 -482 c 2
21 -503 m 2
 7 -503 0 -496 0 -482 c 2
 0 482 l 2
 0 496 7 503 21 503 c 2
 107 503 l 2
 121 503 128 496 128 482 c 2
 128 -482 l 2
 128 -496 121 -503 107 -503 c 2
 21 -503 l 2
EndSplineSet
AlternateSubs2: "'salt' Stylistic Alternatives lookup 10 subtable" uniF408 uniF4BF
AlternateSubs2: "'ss01' Style Set 1 lookup 0 subtable" uniF473
EndChar

StartChar: uniE05D
Encoding: 57437 57437 87
Width: 699
GlyphClass: 2
Flags: MW
HStem: -741 15<288 315 288 326.5> -520 15<336 359> -506 32<445 493.5 445 545> -89 36<475.5 507.5> 53 36<475.5 507.5 439.5 556.5> 474 32<445 493.5>
VStem: 0 128<-482 482> 187 43<-482 -44 40 44 44 482> 224 39<-697 -680 -697 -670> 262 47<-562 -551> 278 93 289 145<-386 -353.5 353.5 386> 346 47<-693 -678.5> 379 38<-560.5 -544> 558 141<-339 -218.5 218.5 339>
LayerCount: 2
Fore
SplineSet
208 -503 m 2xbf12
 194 -503 187 -496 187 -482 c 2
 187 482 l 2
 187 496 194 503 208 503 c 2
 209 503 l 2
 223 503 230 496 230 482 c 2
 230 44 l 2
 230 36 235 37 239 38 c 0
 265 45 307 71 328 184 c 0
 331 200 337 209 347 209 c 0
 358 209 363 199 368 182 c 0
 381 138 404 89 475 89 c 0
 540 89 558 153 558 284 c 0
 558 415 535 474 452 474 c 0
 438 474 367 468 367 447 c 0
 367 442 383 436 394 432 c 0
 414 425 434 405 434 367 c 0
 434 323 405 298 366 298 c 0
 323 298 289 327 289 380 c 0
 289 443 344 506 463 506 c 0
 627 506 699 391 699 287 c 0
 699 149 623 53 490 53 c 0
 461 53 442 58 429 62 c 0
 419 65 409 67 400 61 c 0
 386 52 364 20 364 0 c 0
 364 -20 386 -52 400 -61 c 0
 409 -67 419 -65 429 -62 c 0
 442 -58 461 -53 490 -53 c 0
 623 -53 699 -149 699 -287 c 0
 699 -391 627 -506 463 -506 c 0
 344 -506 289 -443 289 -380 c 0
 289 -327 323 -298 366 -298 c 0
 405 -298 434 -323 434 -367 c 0
 434 -405 414 -425 394 -432 c 0
 383 -436 367 -442 367 -447 c 0
 367 -468 438 -474 452 -474 c 0
 535 -474 558 -415 558 -284 c 0
 558 -153 540 -89 475 -89 c 0
 404 -89 381 -138 368 -182 c 0
 363 -199 358 -209 347 -209 c 0
 337 -209 331 -200 328 -184 c 0
 307 -71 265 -45 239 -38 c 0
 235 -37 230 -36 230 -44 c 2
 230 -482 l 2
 230 -496 223 -503 209 -503 c 2
 208 -503 l 2xbf12
0 -482 m 2
 0 482 l 2
 0 496 7 503 21 503 c 2
 107 503 l 2
 121 503 128 496 128 482 c 2
 128 -482 l 2
 128 -496 121 -503 107 -503 c 2
 21 -503 l 2
 7 -503 0 -496 0 -482 c 2
224 -682 m 0xbe8a
 224 -658 237 -636 269 -623 c 0
 281 -618 279 -616 274 -609 c 0
 266 -599 262 -587 262 -572 c 0
 262 -530 297 -505 348 -505 c 0
 397 -505 417 -528 417 -557 c 0xdf46
 417 -575 407 -596 380 -610 c 0
 368 -616 370 -618 377 -626 c 0
 389 -639 393 -652 393 -670 c 0
 393 -716 351 -741 302 -741 c 0
 248 -741 224 -715 224 -682 c 0xbe8a
263 -688 m 0
 263 -706 273 -726 303 -726 c 0
 327 -726 346 -712 346 -686 c 0
 346 -671 338 -664 306 -639 c 0
 299 -634 296 -633 291 -636 c 0
 270 -649 263 -672 263 -688 c 0
309 -555 m 0xdf46
 309 -569 317 -578 340 -596 c 0
 348 -601 351 -601 355 -598 c 0
 372 -586 379 -569 379 -552 c 0xdf26
 379 -536 371 -520 347 -520 c 0
 325 -520 309 -533 309 -555 c 0xdf46
EndSplineSet
EndChar

StartChar: uniE05E
Encoding: 57438 57438 88
Width: 699
GlyphClass: 2
Flags: MW
HStem: -506 32<445 493.5 445 545> -89 36<475.5 507.5> 53 36<475.5 507.5 439.5 556.5> 474 32<445 493.5>
VStem: 0 128<-482 482> 187 43<-482 -44 40 44 44 482> 289 145<-386 -353.5 353.5 386> 558 141<-339 -218.5 218.5 339>
LayerCount: 2
Fore
SplineSet
208 -503 m 2
 194 -503 187 -496 187 -482 c 2
 187 482 l 2
 187 496 194 503 208 503 c 2
 209 503 l 2
 223 503 230 496 230 482 c 2
 230 44 l 2
 230 36 235 37 239 38 c 0
 265 45 307 71 328 184 c 0
 331 200 337 209 347 209 c 0
 358 209 363 199 368 182 c 0
 381 138 404 89 475 89 c 0
 540 89 558 153 558 284 c 0
 558 415 535 474 452 474 c 0
 438 474 367 468 367 447 c 0
 367 442 383 436 394 432 c 0
 414 425 434 405 434 367 c 0
 434 323 405 298 366 298 c 0
 323 298 289 327 289 380 c 0
 289 443 344 506 463 506 c 0
 627 506 699 391 699 287 c 0
 699 149 623 53 490 53 c 0
 461 53 442 58 429 62 c 0
 419 65 409 67 400 61 c 0
 386 52 364 20 364 0 c 0
 364 -20 386 -52 400 -61 c 0
 409 -67 419 -65 429 -62 c 0
 442 -58 461 -53 490 -53 c 0
 623 -53 699 -149 699 -287 c 0
 699 -391 627 -506 463 -506 c 0
 344 -506 289 -443 289 -380 c 0
 289 -327 323 -298 366 -298 c 0
 405 -298 434 -323 434 -367 c 0
 434 -405 414 -425 394 -432 c 0
 383 -436 367 -442 367 -447 c 0
 367 -468 438 -474 452 -474 c 0
 535 -474 558 -415 558 -284 c 0
 558 -153 540 -89 475 -89 c 0
 404 -89 381 -138 368 -182 c 0
 363 -199 358 -209 347 -209 c 0
 337 -209 331 -200 328 -184 c 0
 307 -71 265 -45 239 -38 c 0
 235 -37 230 -36 230 -44 c 2
 230 -482 l 2
 230 -496 223 -503 209 -503 c 2
 208 -503 l 2
-20 580 m 2
 -26 580 -29 581 -29 587 c 0
 -29 588 -29 590 -28 594 c 2
 62 904 l 2
 63 908 64 911 68 911 c 0
 72 911 73 908 74 904 c 2
 164 594 l 2
 165 590 165 588 165 587 c 0
 165 581 162 580 156 580 c 2
 91 580 l 2
 84 580 82 578 82 571 c 2
 82 514 l 2
 82 505 84 503 93 503 c 2
 107 503 l 2
 121 503 128 496 128 482 c 2
 128 -482 l 2
 128 -496 121 -503 107 -503 c 2
 21 -503 l 2
 7 -503 0 -496 0 -482 c 2
 0 482 l 2
 0 496 7 503 21 503 c 2
 35 503 l 2
 44 503 46 505 46 514 c 2
 46 571 l 2
 46 578 44 580 37 580 c 2
 -20 580 l 2
EndSplineSet
EndChar

StartChar: uniE05F
Encoding: 57439 57439 89
Width: 700
GlyphClass: 2
Flags: MW
HStem: -506 32<445 493.5 445 545> -89 36<475.5 507.5> 53 36<475.5 507.5 439.5 556.5> 474 32<445 493.5>
VStem: 0 128<-482 482> 187 43<-482 -44 40 44 44 482> 289 145<-386 -353.5 353.5 386> 558 141<-339 -218.5 218.5 339>
LayerCount: 2
Fore
SplineSet
187 482 m 2
 187 496 194 503 208 503 c 2
 209 503 l 2
 223 503 230 496 230 482 c 2
 230 44 l 2
 230 36 235 37 239 38 c 0
 265 45 307 71 328 184 c 0
 331 200 337 209 347 209 c 0
 358 209 363 199 368 182 c 0
 381 138 404 89 475 89 c 0
 540 89 558 153 558 284 c 0
 558 415 535 474 452 474 c 0
 438 474 367 468 367 447 c 0
 367 442 383 436 394 432 c 0
 414 425 434 405 434 367 c 0
 434 323 405 298 366 298 c 0
 323 298 289 327 289 380 c 0
 289 443 344 506 463 506 c 0
 627 506 699 391 699 287 c 0
 699 149 623 53 490 53 c 0
 461 53 442 58 429 62 c 0
 419 65 409 67 400 61 c 0
 386 52 364 20 364 0 c 0
 364 -20 386 -52 400 -61 c 0
 409 -67 419 -65 429 -62 c 0
 442 -58 461 -53 490 -53 c 0
 623 -53 699 -149 699 -287 c 0
 699 -391 627 -506 463 -506 c 0
 344 -506 289 -443 289 -380 c 0
 289 -327 323 -298 366 -298 c 0
 405 -298 434 -323 434 -367 c 0
 434 -405 414 -425 394 -432 c 0
 383 -436 367 -442 367 -447 c 0
 367 -468 438 -474 452 -474 c 0
 535 -474 558 -415 558 -284 c 0
 558 -153 540 -89 475 -89 c 0
 404 -89 381 -138 368 -182 c 0
 363 -199 358 -209 347 -209 c 0
 337 -209 331 -200 328 -184 c 0
 307 -71 265 -45 239 -38 c 0
 235 -37 230 -36 230 -44 c 2
 230 -482 l 2
 230 -496 223 -503 209 -503 c 2
 208 -503 l 2
 194 -503 187 -496 187 -482 c 2
 187 482 l 2
-32 -594 m 2
 -33 -590 -33 -588 -33 -587 c 0
 -33 -581 -30 -580 -24 -580 c 2
 37 -580 l 2
 44 -580 46 -578 46 -571 c 2
 46 -514 l 2
 46 -505 44 -503 35 -503 c 2
 21 -503 l 2
 7 -503 0 -496 0 -482 c 2
 0 482 l 2
 0 496 7 503 21 503 c 2
 107 503 l 2
 121 503 128 496 128 482 c 2
 128 -482 l 2
 128 -496 121 -503 107 -503 c 2
 93 -503 l 2
 84 -503 82 -505 82 -514 c 2
 82 -571 l 2
 82 -578 84 -580 91 -580 c 2
 152 -580 l 2
 158 -580 161 -581 161 -587 c 0
 161 -588 161 -590 160 -594 c 2
 70 -904 l 2
 69 -908 68 -911 64 -911 c 0
 60 -911 59 -908 58 -904 c 2
 -32 -594 l 2
EndSplineSet
EndChar

StartChar: uniE060
Encoding: 57440 57440 90
Width: 584
GlyphClass: 2
Flags: MW
HStem: -499 998<14 462 14 570>
VStem: 0 42<-435 478> 108 42<-435 -183 -38 -33 -33 57 202 207 207 478> 434 42<-478 -207 -207 -202 -57 33 33 38 183 435> 542 42<-478 435>
LayerCount: 2
Fore
SplineSet
129 -456 m 0
 115 -456 108 -449 108 -435 c 2
 108 478 l 2
 108 492 115 499 129 499 c 0
 143 499 150 492 150 478 c 2
 150 207 l 2
 150 197 152 194 162 193 c 2
 422 172 l 2
 434 171 434 175 434 183 c 2
 434 435 l 2
 434 449 441 456 455 456 c 0
 469 456 476 449 476 435 c 2
 476 -478 l 2
 476 -492 469 -499 455 -499 c 0
 441 -499 434 -492 434 -478 c 2
 434 -207 l 2
 434 -197 432 -194 422 -193 c 2
 162 -172 l 2
 150 -171 150 -175 150 -183 c 2
 150 -435 l 2
 150 -449 143 -456 129 -456 c 0
21 -456 m 0
 7 -456 0 -449 0 -435 c 2
 0 478 l 2
 0 492 7 499 21 499 c 0
 35 499 42 492 42 478 c 2
 42 -435 l 2
 42 -449 35 -456 21 -456 c 0
542 -478 m 2
 542 435 l 2
 542 449 549 456 563 456 c 0
 577 456 584 449 584 435 c 2
 584 -478 l 2
 584 -492 577 -499 563 -499 c 0
 549 -499 542 -492 542 -478 c 2
150 57 m 2
 150 -33 l 2
 150 -43 152 -46 162 -47 c 2
 422 -68 l 2
 434 -69 434 -65 434 -57 c 2
 434 33 l 2
 434 43 432 46 422 47 c 2
 162 68 l 2
 150 69 150 65 150 57 c 2
EndSplineSet
EndChar

StartChar: uniE061
Encoding: 57441 57441 91
Width: 233
GlyphClass: 2
Flags: MW
HStem: -123 92<8.5 214 13 179> 31 92<8.5 179 13 179 179 182.5 13 214>
VStem: 189 38<-516 -133 -133 -129.5 133 516>
LayerCount: 2
Fore
SplineSet
13 31 m 2
 4 31 0 35 0 44 c 2
 0 110 l 2
 0 119 4 123 13 123 c 2
 179 123 l 2
 186 123 189 126 189 133 c 2
 189 516 l 2
 189 529 195 537 208 537 c 0
 221 537 227 529 227 516 c 2
 227 44 l 2
 227 35 223 31 214 31 c 2
 13 31 l 2
13 -123 m 2
 4 -123 0 -119 0 -110 c 2
 0 -44 l 2
 0 -35 4 -31 13 -31 c 2
 214 -31 l 2
 223 -31 227 -35 227 -44 c 2
 227 -516 l 2
 227 -529 221 -537 208 -537 c 0
 195 -537 189 -529 189 -516 c 2
 189 -133 l 2
 189 -126 186 -123 179 -123 c 2
 13 -123 l 2
EndSplineSet
EndChar

StartChar: uniE062
Encoding: 57442 57442 92
Width: 684
GlyphClass: 2
Flags: MW
HStem: -179 108<614.5 645.5> -110 210<119.5 154.5> 70 110<613.5 644.5> 224 38<178 282>
VStem: 0 67<-1 131> 381 150<-176.5 41.5> 576 108<-140.5 -109.5>
LayerCount: 2
Fore
SplineSet
8 -635 m 0x5c
 -1 -635 -5 -629 -5 -623 c 0
 -5 -615 1 -610 10 -605 c 0
 243 -472 381 -316 381 -37 c 0
 381 120 335 224 229 224 c 0
 127 224 67 151 67 111 c 0
 67 101 70 93 83 93 c 0
 96 93 106 100 133 100 c 0
 182 100 229 60 229 -4 c 0
 229 -66 186 -110 123 -110 c 0
 42 -110 0 -41 0 39 c 0
 0 135 78 262 252 262 c 0
 425 262 531 146 531 -28 c 0
 531 -332 271 -510 25 -630 c 0
 19 -633 13 -635 8 -635 c 0x5c
629 70 m 0xbe
 598 70 574 94 574 125 c 0
 574 156 598 180 629 180 c 0
 660 180 684 156 684 125 c 0
 684 94 660 70 629 70 c 0xbe
630 -179 m 0
 599 -179 576 -156 576 -125 c 0
 576 -94 599 -71 630 -71 c 0
 661 -71 684 -94 684 -125 c 0
 684 -156 661 -179 630 -179 c 0
EndSplineSet
AlternateSubs2: "'salt' Stylistic Alternatives lookup 10 subtable" uniF406 uniF407
AlternateSubs2: "'ss01' Style Set 1 lookup 0 subtable" uniF474
EndChar

StartChar: uniE063
Encoding: 57443 57443 93
Width: 684
GlyphClass: 2
Flags: MW
HStem: -742 16<306 332.5 306 351.5> -737 17<128.5 131 128 132 128 235> -614 20<351 354.5> -560 44<380.5 382> -179 108<614.5 645.5> -110 210<119.5 154.5> 70 110<613.5 644.5> 224 38<178 282>
VStem: 0 67<-1 131> 260 54<-689 -684> 372 50<-661 -637> 381 150<-136.5 41.5> 576 108<-140.5 -109.5>
LayerCount: 2
Fore
SplineSet
-5 -623 m 0x7bd8
 -5 -615 1 -610 10 -605 c 0
 243 -472 381 -316 381 -37 c 0
 381 120 335 224 229 224 c 0
 127 224 67 151 67 111 c 0
 67 101 70 93 83 93 c 0
 96 93 106 100 133 100 c 0
 182 100 229 60 229 -4 c 0
 229 -66 186 -110 123 -110 c 0x75d8
 42 -110 0 -41 0 39 c 0
 0 135 78 262 252 262 c 0
 425 262 531 146 531 -28 c 0
 531 -245 402 -391 236 -509 c 1
 239 -510 243 -513 247 -513 c 0
 254 -513 262 -507 268 -507 c 0
 272 -507 274 -510 274 -513 c 0
 274 -515 274 -517 273 -520 c 2
 213 -709 l 2
 212 -714 211 -717 215 -718 c 2
 236 -720 l 2
 242 -720 245 -723 245 -728 c 0
 245 -733 242 -737 235 -737 c 2
 132 -737 l 2
 125 -737 122 -733 122 -728 c 0
 122 -723 125 -720 131 -720 c 2
 152 -718 l 2
 158 -717 158 -716 160 -711 c 2
 202 -580 l 2
 203 -577 203 -575 203 -573 c 0
 203 -570 202 -569 200 -569 c 0
 197 -569 195 -570 192 -574 c 2
 169 -599 l 2
 166 -603 163 -606 158 -606 c 0
 153 -606 148 -601 148 -597 c 0
 148 -593 150 -590 153 -586 c 2
 200 -532 l 1
 175 -549 31 -635 8 -635 c 0
 -1 -635 -5 -629 -5 -623 c 0x7bd8
260 -694 m 0xbbe8
 260 -674 273 -658 290 -658 c 0
 303 -658 314 -666 314 -681 c 0
 314 -697 305 -704 298 -707 c 0
 293 -710 290 -711 290 -715 c 0
 290 -721 300 -726 312 -726 c 0
 353 -726 372 -676 372 -646 c 0
 372 -628 365 -614 344 -614 c 0
 325 -614 312 -627 307 -633 c 0
 302 -637 299 -639 295 -639 c 0
 289 -639 285 -636 285 -630 c 0
 285 -626 286 -624 288 -618 c 2
 322 -519 l 2
 324 -512 328 -508 335 -508 c 0
 340 -508 343 -509 352 -512 c 0
 359 -514 372 -516 389 -516 c 0
 407 -516 422 -514 435 -511 c 0
 443 -508 448 -506 450 -506 c 0
 453 -506 456 -509 456 -512 c 0
 456 -516 453 -520 447 -526 c 0
 428 -543 400 -560 364 -560 c 0
 356 -560 347 -559 340 -558 c 0
 334 -557 331 -557 329 -563 c 2
 320 -591 l 2
 318 -597 319 -601 328 -598 c 0
 336 -596 345 -594 357 -594 c 0
 397 -594 422 -609 422 -645 c 0
 422 -703 380 -742 323 -742 c 0
 280 -742 260 -719 260 -694 c 0xbbe8
629 70 m 0
 598 70 574 94 574 125 c 0
 574 156 598 180 629 180 c 0
 660 180 684 156 684 125 c 0
 684 94 660 70 629 70 c 0
576 -125 m 0
 576 -94 599 -71 630 -71 c 0
 661 -71 684 -94 684 -125 c 0
 684 -156 661 -179 630 -179 c 0
 599 -179 576 -156 576 -125 c 0
EndSplineSet
EndChar

StartChar: uniE064
Encoding: 57444 57444 94
Width: 684
GlyphClass: 2
Flags: MW
HStem: -744 15<211 238 211 249.5> -522 15<263 282> -179 108<614.5 645.5> -110 210<119.5 154.5> 70 110<613.5 644.5> 224 38<178 282>
VStem: 0 67<-1 131> 147 39<-699 -682.5 -699 -673> 185 47<-582 -546> 201 93 269 47<-695.5 -681.5> 302 38<-563 -546.5> 381 150<-137.5 41.5> 576 108<-140.5 -109.5>
LayerCount: 2
Fore
SplineSet
8 -635 m 0xee9c
 -1 -635 -5 -629 -5 -623 c 0
 -5 -615 1 -610 10 -605 c 0
 243 -472 381 -316 381 -37 c 0
 381 120 335 224 229 224 c 0
 127 224 67 151 67 111 c 0
 67 101 70 93 83 93 c 0
 96 93 106 100 133 100 c 0
 182 100 229 60 229 -4 c 0
 229 -66 186 -110 123 -110 c 0
 42 -110 0 -41 0 39 c 0
 0 135 78 262 252 262 c 0
 425 262 531 146 531 -28 c 0
 531 -247 398 -397 229 -514 c 1
 241 -509 255 -507 271 -507 c 0
 320 -507 340 -531 340 -559 c 0xd75c
 340 -578 330 -598 303 -612 c 0
 291 -618 293 -621 300 -629 c 0
 312 -641 316 -654 316 -673 c 0
 316 -718 274 -744 225 -744 c 0
 171 -744 147 -718 147 -685 c 0xef2c
 147 -661 160 -639 192 -626 c 0
 204 -621 202 -618 197 -611 c 0
 189 -602 185 -589 185 -575 c 0
 185 -558 190 -544 200 -533 c 1
 143 -569 85 -601 25 -630 c 0
 19 -633 13 -635 8 -635 c 0xee9c
629 70 m 0xef2c
 598 70 574 94 574 125 c 0
 574 156 598 180 629 180 c 0
 660 180 684 156 684 125 c 0
 684 94 660 70 629 70 c 0xef2c
576 -125 m 0
 576 -94 599 -71 630 -71 c 0
 661 -71 684 -94 684 -125 c 0
 684 -156 661 -179 630 -179 c 0
 599 -179 576 -156 576 -125 c 0
186 -690 m 0
 186 -708 196 -729 226 -729 c 0
 250 -729 269 -714 269 -689 c 0
 269 -674 261 -667 229 -642 c 0
 222 -636 219 -636 214 -639 c 0
 193 -652 186 -675 186 -690 c 0
232 -557 m 0xee9c
 232 -572 240 -581 263 -598 c 0
 271 -604 274 -603 278 -600 c 0
 295 -589 302 -571 302 -555 c 0xef5c
 302 -538 294 -522 270 -522 c 0
 248 -522 232 -535 232 -557 c 0xee9c
EndSplineSet
EndChar

StartChar: uniE065
Encoding: 57445 57445 95
Width: 684
GlyphClass: 2
Flags: MW
HStem: -179 108<614.5 645.5> -110 210<119.5 154.5> 70 110<613.5 644.5> 224 38 259 14 480 15<305 328>
VStem: 0 67<-1 131> 193 39<304 319.5 303 329> 231 47<437.5 448.5> 247 93 315 47<310 320.5> 348 38<439 455.5> 381 150<-88.5 41.5> 576 108<-140.5 -109.5>
LayerCount: 2
Fore
SplineSet
-5 -623 m 0x4f2c
 -5 -615 1 -610 10 -605 c 0
 134 -534 237 -449 297 -356 c 0
 359 -260 381 -140 381 -37 c 0
 381 120 335 224 229 224 c 0
 127 224 67 151 67 111 c 0
 67 101 70 93 83 93 c 0
 96 93 106 100 133 100 c 0
 182 100 229 60 229 -4 c 0
 229 -66 186 -110 123 -110 c 0
 42 -110 0 -41 0 39 c 0
 0 132 73 255 238 262 c 1
 207 270 193 291 193 317 c 0x572c
 193 341 206 363 238 376 c 0
 250 381 248 384 243 391 c 0
 235 400 231 413 231 427 c 0
 231 470 266 495 317 495 c 0
 366 495 386 471 386 443 c 0x5694
 386 424 376 404 349 390 c 0
 337 384 339 381 346 373 c 0
 358 361 362 348 362 329 c 0
 362 291 332 266 293 259 c 1
 441 242 531 132 531 -28 c 0
 531 -332 271 -510 25 -630 c 0
 19 -633 13 -635 8 -635 c 0
 -1 -635 -5 -629 -5 -623 c 0x4f2c
574 125 m 0
 574 156 598 180 629 180 c 0
 660 180 684 156 684 125 c 0
 684 94 660 70 629 70 c 0xaf2c
 598 70 574 94 574 125 c 0
630 -179 m 0
 599 -179 576 -156 576 -125 c 0
 576 -94 599 -71 630 -71 c 0
 661 -71 684 -94 684 -125 c 0
 684 -156 661 -179 630 -179 c 0
232 312 m 0
 232 294 242 273 272 273 c 0
 296 273 315 288 315 313 c 0
 315 328 307 335 275 360 c 0
 268 366 265 366 260 363 c 0
 239 350 232 327 232 312 c 0
278 445 m 0x56ac
 278 430 286 421 309 404 c 0
 317 398 320 399 324 402 c 0
 341 413 348 431 348 447 c 0x5754
 348 464 340 480 316 480 c 0
 294 480 278 467 278 445 c 0x56ac
EndSplineSet
EndChar

StartChar: uniE066
Encoding: 57446 57446 96
Width: 684
GlyphClass: 2
Flags: MW
HStem: -179 108<614.5 645.5> -110 210<119.5 154.5> 70 110<613.5 644.5> 224 38<178 282> 260 16<309 335.5 309 354.5> 265 17<131.5 134 131 135 131 238> 388 20<354 357.5> 442 44<383.5 385> 475 20G<229 235 268 273> 476 20G<452 454.5>
VStem: 0 67<-1 131> 263 54<313 318> 375 50<341 365> 381 150<-176.5 41.5> 576 108<-140.5 -109.5>
LayerCount: 2
Fore
SplineSet
-5 -623 m 0x0704
 -5 -615 1 -610 10 -605 c 0
 243 -472 381 -316 381 -37 c 0
 381 120 335 224 229 224 c 0
 127 224 67 151 67 111 c 0
 67 101 70 93 83 93 c 0
 96 93 106 100 133 100 c 0
 182 100 229 60 229 -4 c 0
 229 -66 186 -110 123 -110 c 0
 42 -110 0 -41 0 39 c 0
 0 135 78 262 252 262 c 0x5324
 425 262 531 146 531 -28 c 0
 531 -332 271 -510 25 -630 c 0
 19 -633 13 -635 8 -635 c 0
 -1 -635 -5 -629 -5 -623 c 0x0704
263 308 m 0x0b18
 263 328 276 344 293 344 c 0
 306 344 317 336 317 321 c 0
 317 305 308 298 301 295 c 0
 296 292 293 291 293 287 c 0
 293 281 303 276 315 276 c 0
 356 276 375 326 375 356 c 0
 375 374 368 388 347 388 c 0
 328 388 315 375 310 369 c 0
 305 365 302 363 298 363 c 0
 292 363 288 366 288 372 c 0
 288 376 289 378 291 384 c 2
 325 483 l 2
 327 490 331 494 338 494 c 0x0a58
 343 494 346 493 355 490 c 0
 362 488 375 486 392 486 c 0x0708
 410 486 425 488 438 491 c 0
 446 494 451 496 453 496 c 0
 456 496 459 493 459 490 c 0x0648
 459 486 456 482 450 476 c 0
 431 459 403 442 367 442 c 0
 359 442 350 443 343 444 c 0
 337 445 334 445 332 439 c 2
 323 411 l 2
 321 405 322 401 331 404 c 0
 339 406 348 408 360 408 c 0
 400 408 425 393 425 357 c 0
 425 299 383 260 326 260 c 0
 283 260 263 283 263 308 c 0x0b18
135 265 m 2xa686
 128 265 125 269 125 274 c 0
 125 279 128 282 134 282 c 2
 155 284 l 2
 161 285 161 286 163 291 c 2
 205 422 l 2
 206 425 206 427 206 429 c 0
 206 432 205 433 203 433 c 0
 200 433 198 432 195 428 c 2
 172 403 l 2
 169 399 166 396 161 396 c 0
 156 396 151 401 151 405 c 0
 151 409 153 412 156 416 c 2
 222 490 l 2
 225 493 227 495 231 495 c 0
 239 495 243 489 250 489 c 0
 257 489 265 495 271 495 c 0
 275 495 277 492 277 489 c 0
 277 487 277 485 276 482 c 2
 216 293 l 2
 215 288 214 285 218 284 c 2
 239 282 l 2
 245 282 248 279 248 274 c 0
 248 269 245 265 238 265 c 2
 135 265 l 2xa686
629 70 m 0
 598 70 574 94 574 125 c 0
 574 156 598 180 629 180 c 0
 660 180 684 156 684 125 c 0
 684 94 660 70 629 70 c 0
630 -179 m 0
 599 -179 576 -156 576 -125 c 0
 576 -94 599 -71 630 -71 c 0
 661 -71 684 -94 684 -125 c 0
 684 -156 661 -179 630 -179 c 0
EndSplineSet
EndChar

StartChar: uniE067
Encoding: 57447 57447 97
Width: 684
GlyphClass: 2
Flags: MW
HStem: -179 108<614.5 645.5> -110 210<119.5 154.5> 70 110<613.5 644.5>
VStem: 0 67<-1 131> 236 36<272 321> 381 150<-176.5 41.5> 576 108<-140.5 -109.5>
LayerCount: 2
Fore
SplineSet
-5 -623 m 0xbc
 -5 -615 1 -610 10 -605 c 0
 243 -472 381 -316 381 -37 c 0
 381 120 335 224 229 224 c 0
 127 224 67 151 67 111 c 0
 67 101 70 93 83 93 c 0
 96 93 106 100 133 100 c 0
 182 100 229 60 229 -4 c 0
 229 -66 186 -110 123 -110 c 0x5c
 42 -110 0 -41 0 39 c 0
 0 131 70 250 226 261 c 0
 235 262 236 264 236 272 c 2
 236 321 l 2
 236 328 234 330 227 330 c 2
 166 330 l 2
 160 330 157 331 157 337 c 0
 157 338 157 340 158 344 c 2
 248 654 l 2
 249 658 250 661 254 661 c 0
 258 661 259 658 260 654 c 2
 350 344 l 2
 351 340 351 338 351 337 c 0
 351 331 348 330 342 330 c 2
 281 330 l 2
 274 330 272 328 272 321 c 2
 272 272 l 2
 272 263 272 262 279 261 c 0
 436 250 531 137 531 -28 c 0
 531 -332 271 -510 25 -630 c 0
 19 -633 13 -635 8 -635 c 0
 -1 -635 -5 -629 -5 -623 c 0xbc
574 125 m 0xbe
 574 156 598 180 629 180 c 0
 660 180 684 156 684 125 c 0
 684 94 660 70 629 70 c 0
 598 70 574 94 574 125 c 0xbe
630 -179 m 0
 599 -179 576 -156 576 -125 c 0
 576 -94 599 -71 630 -71 c 0
 661 -71 684 -94 684 -125 c 0
 684 -156 661 -179 630 -179 c 0
EndSplineSet
EndChar

StartChar: uniE068
Encoding: 57448 57448 98
Width: 680
GlyphClass: 2
Flags: MW
HStem: -179 108<614.5 645.5> -110 210<119.5 154.5> 70 110<613.5 644.5> 224 38<178 282>
VStem: 0 67<-1 131> 256 36<-659 -508 -508 -503> 381 150<-120 41.5> 576 108<-140.5 -109.5>
LayerCount: 2
Fore
SplineSet
8 -635 m 0x5f
 -1 -635 -5 -629 -5 -623 c 0
 -5 -615 1 -610 10 -605 c 0
 243 -472 381 -316 381 -37 c 0
 381 120 335 224 229 224 c 0
 127 224 67 151 67 111 c 0
 67 101 70 93 83 93 c 0
 96 93 106 100 133 100 c 0
 182 100 229 60 229 -4 c 0
 229 -66 186 -110 123 -110 c 0
 42 -110 0 -41 0 39 c 0
 0 135 78 262 252 262 c 0
 425 262 531 146 531 -28 c 0
 531 -212 437 -350 300 -461 c 0
 294 -467 292 -470 292 -477 c 2
 292 -659 l 2
 292 -666 294 -668 301 -668 c 2
 362 -668 l 2
 368 -668 371 -669 371 -675 c 0
 371 -676 371 -678 370 -682 c 2
 280 -992 l 2
 279 -996 278 -999 274 -999 c 0
 270 -999 269 -996 268 -992 c 2
 178 -682 l 2
 177 -678 177 -676 177 -675 c 0
 177 -669 180 -668 186 -668 c 2
 247 -668 l 2
 254 -668 256 -666 256 -659 c 2
 256 -508 l 2
 256 -498 250 -499 246 -502 c 1
 247 -502 l 1
 176 -552 102 -593 25 -630 c 0
 19 -633 13 -635 8 -635 c 0x5f
629 70 m 0xbf
 598 70 574 94 574 125 c 0
 574 156 598 180 629 180 c 0
 660 180 684 156 684 125 c 0
 684 94 660 70 629 70 c 0xbf
630 -179 m 0
 599 -179 576 -156 576 -125 c 0
 576 -94 599 -71 630 -71 c 0
 661 -71 684 -94 684 -125 c 0
 684 -156 661 -179 630 -179 c 0
EndSplineSet
EndChar

StartChar: uniE069
Encoding: 57449 57449 99
Width: 382
GlyphClass: 2
Flags: MW
HStem: -250 500<10 146 14 146 14 236 236 368>
VStem: 0 160<-235 235> 222 160<-235 235>
LayerCount: 2
Fore
SplineSet
222 235 m 2
 222 243 228 250 236 250 c 2
 368 250 l 2
 376 250 382 243 382 235 c 2
 382 -235 l 2
 382 -243 376 -250 368 -250 c 2
 236 -250 l 2
 228 -250 222 -243 222 -235 c 2
 222 235 l 2
14 -250 m 2
 6 -250 0 -243 0 -235 c 2
 0 235 l 2
 0 243 6 250 14 250 c 2
 146 250 l 2
 154 250 160 243 160 235 c 2
 160 -235 l 2
 160 -243 154 -250 146 -250 c 2
 14 -250 l 2
EndSplineSet
AlternateSubs2: "'salt' Stylistic Alternatives lookup 10 subtable" uniF409
EndChar

StartChar: uniE06A
Encoding: 57450 57450 100
Width: 312
GlyphClass: 2
Flags: MW
HStem: -465 102<11.5 257 55 257 257 261 55 296> 359 102<51 55 55 257>
VStem: 0 40<-352 -348 -348 344> 272 40<-348 344 344 348>
LayerCount: 2
Fore
SplineSet
0 -450 m 2
 0 446 l 2
 0 454 7 461 16 461 c 2
 296 461 l 2
 305 461 312 454 312 446 c 2
 312 -450 l 2
 312 -458 305 -465 296 -465 c 2
 16 -465 l 2
 7 -465 0 -458 0 -450 c 2
40 344 m 2
 40 -348 l 2
 40 -356 47 -363 55 -363 c 2
 257 -363 l 2
 265 -363 272 -356 272 -348 c 2
 272 344 l 2
 272 352 265 359 257 359 c 2
 55 359 l 2
 47 359 40 352 40 344 c 2
EndSplineSet
EndChar

StartChar: uniE06B
Encoding: 57451 57451 101
Width: 251
GlyphClass: 2
Flags: MW
HStem: -153 48<49 221 49 221> 97 48<49 221 49 221>
VStem: 1 48<-486 -153 -105 97 145 486>
LayerCount: 2
Fore
SplineSet
1 500 m 2
 1 509 6 517 14 521 c 2
 210 626 l 2
 213 628 217 629 221 629 c 0
 229 629 238 624 242 616 c 0
 244 613 245 609 245 605 c 0
 245 597 240 588 232 584 c 2
 49 486 l 1
 49 145 l 1
 221 145 l 2
 234 145 245 134 245 121 c 0
 245 108 234 97 221 97 c 2
 49 97 l 1
 49 -105 l 1
 221 -105 l 2
 234 -105 245 -116 245 -129 c 0
 245 -142 234 -153 221 -153 c 2
 49 -153 l 1
 49 -486 l 1
 232 -584 l 2
 240 -588 245 -597 245 -605 c 0
 245 -609 244 -613 242 -616 c 0
 238 -624 229 -629 221 -629 c 0
 217 -629 213 -628 210 -626 c 2
 14 -521 l 2
 6 -517 1 -509 1 -500 c 2
 1 500 l 2
EndSplineSet
EndChar

StartChar: uniE06C
Encoding: 57452 57452 102
Width: 463
GlyphClass: 2
Flags: MW
HStem: -202 408<224 237.5>
VStem: 207 48<-178 -86 -86 -86 93 182>
LayerCount: 2
Fore
SplineSet
207 -86 m 1
 2 -165 l 1
 2 -4 l 1
 207 74 l 1
 207 182 l 2
 207 195 217 206 231 206 c 0
 244 206 255 195 255 182 c 2
 255 93 l 1
 459 171 l 1
 459 11 l 1
 255 -68 l 1
 255 -178 l 2
 255 -191 244 -202 231 -202 c 0
 217 -202 207 -191 207 -178 c 2
 207 -86 l 1
EndSplineSet
EndChar

StartChar: uniE06D
Encoding: 57453 57453 103
Width: 409
GlyphClass: 2
Flags: MW
HStem: -748 53<87 234 234 239> -533 53<87 203 87 203 203 234> -330 53<87 203 87 87> -87 51<126 276 126 292 111 276> 178 64<203 203> 711 53<18 173 18 387 233 387 233 233>
VStem: 27 60<-695 -533 -695 -480 -480 -330> 173 60<293 711 293 711> 297 60<-420.5 -381> 318 60<-636.5 -591>
LayerCount: 2
Fore
SplineSet
27 -277 m 1xff40
 218 -277 l 2
 307 -277 357 -328 357 -397 c 0xff80
 357 -444 335 -479 292 -499 c 1
 352 -522 378 -557 378 -613 c 0
 378 -691 324 -748 239 -748 c 2
 27 -748 l 1
 27 -277 l 1xff40
61 -228 m 1
 -3 -228 l 1
 165 242 l 1
 243 242 l 1
 408 -228 l 1
 341 -228 l 1
 292 -87 l 1
 111 -87 l 1
 61 -228 l 1
18 764 m 1
 387 764 l 1
 387 711 l 1
 233 711 l 1
 233 293 l 1
 173 293 l 1
 173 711 l 1
 18 711 l 1
 18 764 l 1
87 -533 m 1
 87 -695 l 1
 234 -695 l 2
 290 -695 318 -659 318 -614 c 0xff40
 318 -568 290 -533 234 -533 c 2
 87 -533 l 1
203 -330 m 2
 87 -330 l 1
 87 -480 l 1
 203 -480 l 2
 270 -480 297 -453 297 -405 c 0xff80
 297 -357 270 -330 203 -330 c 2
203 178 m 1
 126 -36 l 1
 276 -36 l 1
 203 178 l 1
EndSplineSet
AlternateSubs2: "'salt' Stylistic Alternatives lookup 10 subtable" uniF40A uniF40B
EndChar

StartChar: uniE06E
Encoding: 57454 57454 104
Width: 271
GlyphClass: 2
Flags: MW
HStem: -508 36<57 156 156 159> -364 35<57 135 57 135 135 156> -228 35<57 135 57 57> -65 33<83 184 83 195 73 184> 112 43<135 135> 469 35<11 115 11 258 155 258 155 155>
VStem: 17 40<-472 -364 -472 -329 -329 -228> 115 40<189 469 189 469> 198 40<-289 -263> 212 40<-433.5 -403>
LayerCount: 2
Fore
SplineSet
17 -193 m 1xff40
 145 -193 l 2
 205 -193 238 -227 238 -273 c 0xff80
 238 -305 223 -328 195 -342 c 1
 235 -357 252 -380 252 -418 c 0
 252 -470 216 -508 159 -508 c 2
 17 -508 l 1
 17 -193 l 1xff40
40 -160 m 1
 -3 -160 l 1
 110 155 l 1
 162 155 l 1
 272 -160 l 1
 227 -160 l 1
 195 -65 l 1
 73 -65 l 1
 40 -160 l 1
11 504 m 1
 258 504 l 1
 258 469 l 1
 155 469 l 1
 155 189 l 1
 115 189 l 1
 115 469 l 1
 11 469 l 1
 11 504 l 1
57 -364 m 1
 57 -472 l 1
 156 -472 l 2
 194 -472 212 -449 212 -418 c 0xff40
 212 -388 194 -364 156 -364 c 2
 57 -364 l 1
135 -228 m 2
 57 -228 l 1
 57 -329 l 1
 135 -329 l 2
 180 -329 198 -311 198 -279 c 0xff80
 198 -247 180 -228 135 -228 c 2
135 112 m 1
 83 -32 l 1
 184 -32 l 1
 135 112 l 1
EndSplineSet
AlternateSubs2: "'salt' Stylistic Alternatives lookup 10 subtable" uniF40C uniF40D
EndChar

StartChar: uniE06F
Encoding: 57455 57455 105
Width: 308
GlyphClass: 2
Flags: MW
HStem: 0 21G<309 309>
VStem: 0 309<0 0 0 250 0 250>
LayerCount: 2
Fore
SplineSet
0 250 m 1
 309 0 l 1
 0 -249 l 1
 0 250 l 1
EndSplineSet
EndChar

StartChar: uniE070
Encoding: 57456 57456 106
Width: 309
GlyphClass: 2
Flags: MW
HStem: 0 21G<0 0 45 45>
VStem: 281 28<-191 191 191 191>
LayerCount: 2
Fore
SplineSet
281 -191 m 1
 281 191 l 1
 45 0 l 1
 281 -191 l 1
0 0 m 1
 309 250 l 1
 309 -249 l 1
 0 0 l 1
EndSplineSet
EndChar

StartChar: uniE071
Encoding: 57457 57457 107
Width: 618
GlyphClass: 2
Flags: MW
HStem: 0 21G<618 618>
VStem: 281 28<-691 -309 -309 -309>
LayerCount: 2
Fore
SplineSet
309 -249 m 1
 309 250 l 1
 618 0 l 1
 309 -249 l 1
0 -500 m 1
 309 -250 l 1
 309 -749 l 1
 0 -500 l 1
281 -309 m 1
 45 -500 l 1
 281 -691 l 1
 281 -309 l 1
EndSplineSet
EndChar

StartChar: uniE072
Encoding: 57458 57458 108
Width: 616
GlyphClass: 2
Flags: MW
HStem: 0 21G<616 616>
VStem: 281 28<309 691 691 691>
LayerCount: 2
Fore
SplineSet
281 309 m 1
 281 691 l 1
 45 500 l 1
 281 309 l 1
0 500 m 1
 309 750 l 1
 309 251 l 1
 0 500 l 1
307 250 m 1
 616 0 l 1
 307 -249 l 1
 307 250 l 1
EndSplineSet
EndChar

StartChar: uniE073
Encoding: 57459 57459 109
Width: 674
GlyphClass: 2
Flags: MW
HStem: -658 36<331.5 388 331.5 430.5> -252 36<301.5 396.5 299 435.5> 117 135 943 155<216.5 229 216.5 237.5>
VStem: 6 82<-45.5 -2 -77.5 75> 105 42<805.5 858.5> 158 44<-530 -432.5 -530 -429.5> 340 45<710 769> 342 203<-511 -464 -527.5 -454.5> 409 67<-1 20.5> 597 80<0 49.5>
LayerCount: 2
Fore
SplineSet
6 11 m 0xfea0
 6 139 100 252 247 252 c 0
 273 252 273 252 276 270 c 2
 301 415 l 2
 303 427 301 428 295 434 c 0
 187 535 105 662 105 815 c 0
 105 902 129 988 170 1048 c 0
 185 1070 211 1098 222 1098 c 0
 236 1098 267 1072 287 1050 c 0
 361 968 385 843 385 739 c 0
 385 681 378 616 371 575 c 0
 369 563 368 561 380 551 c 0
 524 432 677 289 677 87 c 0
 677 -87 558 -252 313 -252 c 0
 290 -252 264 -250 244 -246 c 0
 233 -244 231 -243 229 -255 c 0
 217 -322 202 -409 202 -456 c 0
 202 -604 302 -622 361 -622 c 0
 415 -622 441 -606 441 -593 c 0
 441 -586 432 -583 409 -576 c 0xff60
 378 -567 342 -540 342 -482 c 0
 342 -427 377 -380 438 -380 c 0
 505 -380 545 -433 545 -495 c 0
 545 -560 506 -658 355 -658 c 0
 288 -658 158 -628 158 -458 c 0
 158 -401 176 -306 187 -244 c 0
 189 -232 188 -233 174 -227 c 0
 73 -187 6 -102 6 11 c 0xfea0
239 -197 m 2
 237 -208 238 -208 253 -211 c 0
 269 -214 289 -216 309 -216 c 0
 484 -216 597 -119 597 20 c 0
 597 79 587 158 504 252 c 0
 444 319 398 356 351 394 c 0
 341 402 339 401 337 390 c 2
 316 262 l 2
 313 243 313 244 331 238 c 0
 419 208 476 129 476 44 c 0
 476 -46 429 -110 361 -133 c 0
 353 -136 341 -139 334 -139 c 0
 326 -139 322 -134 322 -128 c 0
 322 -121 330 -118 337 -115 c 0
 379 -97 409 -54 409 -8 c 0
 409 49 370 92 309 109 c 0
 293 113 291 112 289 101 c 2
 239 -197 l 2
147 861 m 0
 147 750 242 660 321 591 c 0
 328 585 332 586 334 599 c 0
 338 625 340 659 340 691 c 0
 340 847 268 943 207 943 c 0
 174 943 147 916 147 861 c 0
88 -46 m 0
 88 -109 126 -160 182 -188 c 0
 194 -194 196 -194 198 -182 c 2
 247 103 l 2
 249 115 248 118 236 117 c 0
 155 110 88 42 88 -46 c 0
EndSplineSet
EndChar

StartChar: uniE074
Encoding: 57460 57460 110
Width: 674
GlyphClass: 2
Flags: MW
HStem: -602 155<216.5 229> 244 135 712 36<301.5 396.5> 1118 36<331.5 388>
VStem: 6 82<498 541.5> 105 42<-362.5 -309.5 -392.5 -242.5> 158 44<928.5 1026 928.5 1039> 340 45<-273 -214 -295 -179> 342 203<960 1007> 409 67<475.5 497 409.5 527> 597 80<446.5 496 308 545.5>
LayerCount: 2
Fore
SplineSet
6 485 m 0xff60
 6 598 73 683 174 723 c 0
 188 729 189 728 187 740 c 0
 176 802 158 897 158 954 c 0
 158 1124 288 1154 355 1154 c 0
 506 1154 545 1056 545 991 c 0
 545 929 505 876 438 876 c 0
 377 876 342 923 342 978 c 0xfea0
 342 1036 378 1063 409 1072 c 0
 432 1079 441 1082 441 1089 c 0
 441 1102 415 1118 361 1118 c 0
 302 1118 202 1100 202 952 c 0
 202 905 217 818 229 751 c 0
 231 739 233 740 244 742 c 0
 264 746 290 748 313 748 c 0
 558 748 677 583 677 409 c 0
 677 207 524 64 380 -55 c 0
 368 -65 369 -67 371 -79 c 0
 378 -120 385 -185 385 -243 c 0
 385 -347 361 -472 287 -554 c 0
 267 -576 236 -602 222 -602 c 0
 211 -602 185 -574 170 -552 c 0
 129 -492 105 -406 105 -319 c 0
 105 -166 187 -39 295 62 c 0
 301 68 303 69 301 81 c 2
 276 226 l 2
 273 244 273 244 247 244 c 0
 100 244 6 357 6 485 c 0xff60
253 707 m 0
 238 704 237 704 239 693 c 2
 289 395 l 2
 291 384 293 383 309 387 c 0
 370 404 409 447 409 504 c 0
 409 550 379 593 337 611 c 0
 330 614 322 617 322 624 c 0
 322 630 326 635 334 635 c 0
 341 635 353 632 361 629 c 0
 429 606 476 542 476 452 c 0xff60
 476 367 419 288 331 258 c 0
 313 252 313 253 316 234 c 2
 337 106 l 2
 339 95 341 94 351 102 c 0
 398 140 444 177 504 244 c 0
 587 338 597 417 597 476 c 0
 597 615 484 712 309 712 c 0
 289 712 269 710 253 707 c 0
147 -365 m 0
 147 -420 174 -447 207 -447 c 0
 268 -447 340 -351 340 -195 c 0
 340 -163 338 -129 334 -103 c 0
 332 -90 328 -89 321 -95 c 0
 242 -164 147 -254 147 -365 c 0
88 542 m 0
 88 454 155 386 236 379 c 0
 248 378 249 381 247 393 c 2
 198 678 l 2
 196 690 194 690 182 684 c 0
 126 656 88 605 88 542 c 0
EndSplineSet
EndChar

StartChar: uniE075
Encoding: 57461 57461 111
Width: 699
GlyphClass: 2
Flags: MW
HStem: -506 32<205.5 254 205.5 295.5> -89 36<191.5 223.5 142.5 259.5> 53 36<191.5 223.5> 474 32<205.5 254>
VStem: 0 141<-339 -218.5 -349.5 -218 218.5 339> 265 145<-386 -353.5 -411.5 -345 353.5 386> 469 43<-482 -44 -44 -40 44 482> 571 128<-482 482>
LayerCount: 2
Fore
SplineSet
209 53 m 0
 76 53 0 149 0 287 c 0
 0 391 72 506 236 506 c 0
 355 506 410 443 410 380 c 0
 410 327 376 298 333 298 c 0
 294 298 265 323 265 367 c 0
 265 405 285 425 305 432 c 0
 316 436 332 442 332 447 c 0
 332 468 261 474 247 474 c 0
 164 474 141 415 141 284 c 0
 141 153 159 89 224 89 c 0
 295 89 318 138 331 182 c 0
 336 199 341 209 352 209 c 0
 362 209 368 200 371 184 c 0
 392 71 434 45 460 38 c 0
 464 37 469 36 469 44 c 2
 469 482 l 2
 469 496 476 503 490 503 c 2
 491 503 l 2
 505 503 512 496 512 482 c 2
 512 -482 l 2
 512 -496 505 -503 491 -503 c 2
 490 -503 l 2
 476 -503 469 -496 469 -482 c 2
 469 -44 l 2
 469 -36 464 -37 460 -38 c 0
 434 -45 392 -71 371 -184 c 0
 368 -200 362 -209 352 -209 c 0
 341 -209 336 -199 331 -182 c 0
 318 -138 295 -89 224 -89 c 0
 159 -89 141 -153 141 -284 c 0
 141 -415 164 -474 247 -474 c 0
 261 -474 332 -468 332 -447 c 0
 332 -442 316 -436 305 -432 c 0
 285 -425 265 -405 265 -367 c 0
 265 -323 294 -298 333 -298 c 0
 376 -298 410 -327 410 -380 c 0
 410 -443 355 -506 236 -506 c 0
 72 -506 0 -391 0 -287 c 0
 0 -149 76 -53 209 -53 c 0
 238 -53 257 -58 270 -62 c 0
 280 -65 290 -67 299 -61 c 0
 313 -52 335 -20 335 0 c 0
 335 20 313 52 299 61 c 0
 290 67 280 65 270 62 c 0
 257 58 238 53 209 53 c 0
592 -503 m 2
 578 -503 571 -496 571 -482 c 2
 571 482 l 2
 571 496 578 503 592 503 c 2
 678 503 l 2
 692 503 699 496 699 482 c 2
 699 -482 l 2
 699 -496 692 -503 678 -503 c 2
 592 -503 l 2
EndSplineSet
EndChar

StartChar: uniE076
Encoding: 57462 57462 112
Width: 689
GlyphClass: 2
Flags: MW
HStem: -179 108<38.5 69.5> -110 210<529.5 564.5 526.5 601.5> 70 110<39.5 70.5> 224 38<402 506>
VStem: 0 108<-140.5 -109.5> 153 150<-176.5 41.5 -176.5 59> 617 67<-1 131>
LayerCount: 2
Fore
SplineSet
153 -28 m 0x56
 153 146 259 262 432 262 c 0
 606 262 684 135 684 39 c 0
 684 -41 642 -110 561 -110 c 0
 498 -110 455 -66 455 -4 c 0
 455 60 502 100 551 100 c 0
 578 100 588 93 601 93 c 0
 614 93 617 101 617 111 c 0
 617 151 557 224 455 224 c 0
 349 224 303 120 303 -37 c 0
 303 -316 441 -472 674 -605 c 0
 683 -610 689 -615 689 -623 c 0
 689 -629 685 -635 676 -635 c 0
 671 -635 665 -633 659 -630 c 0
 413 -510 153 -332 153 -28 c 0x56
0 125 m 0xbe
 0 156 24 180 55 180 c 0
 86 180 110 156 110 125 c 0
 110 94 86 70 55 70 c 0
 24 70 0 94 0 125 c 0xbe
54 -179 m 0
 23 -179 0 -156 0 -125 c 0
 0 -94 23 -71 54 -71 c 0
 85 -71 108 -94 108 -125 c 0
 108 -156 85 -179 54 -179 c 0
EndSplineSet
EndChar

StartChar: uniE077
Encoding: 57463 57463 113
Width: 684
GlyphClass: 2
Flags: MW
HStem: -264 38<402 506 402 519> -182 110<39.5 70.5> -102 210<529.5 564.5> 69 108<38.5 69.5>
VStem: 0 108<107.5 138.5> 153 150<-43.5 174.5 -43.5 178> 617 67<-133 -1>
LayerCount: 2
Fore
SplineSet
432 -264 m 0xa6
 259 -264 153 -148 153 26 c 0
 153 330 413 508 659 628 c 0
 665 631 671 633 676 633 c 0
 685 633 689 627 689 621 c 0
 689 613 683 608 674 603 c 0
 441 470 303 314 303 35 c 0
 303 -122 349 -226 455 -226 c 0
 557 -226 617 -153 617 -113 c 0
 617 -103 614 -95 601 -95 c 0
 588 -95 578 -102 551 -102 c 0
 502 -102 455 -62 455 2 c 0
 455 64 498 108 561 108 c 0
 642 108 684 39 684 -41 c 0
 684 -137 606 -264 432 -264 c 0xa6
0 -127 m 0xde
 0 -96 24 -72 55 -72 c 0
 86 -72 110 -96 110 -127 c 0
 110 -158 86 -182 55 -182 c 0
 24 -182 0 -158 0 -127 c 0xde
54 69 m 0
 23 69 0 92 0 123 c 0
 0 154 23 177 54 177 c 0
 85 177 108 154 108 123 c 0
 108 92 85 69 54 69 c 0
EndSplineSet
EndChar

StartChar: uniE078
Encoding: 57464 57464 114
Width: 862
GlyphClass: 2
Flags: MW
HStem: 442 77<47 188 47 47 220 343 6 220 375 498 530 653 685 820> 675 32<96 188 96 96 220 343 375 498 530 653 685 772>
VStem: 188 32<-816 442 -579 442 -814 442 519 675 707 815> 343 32<-814 442 -814 442 519 675 707 815> 498 32<-814 442 -814 442 519 675 707 815> 653 32<-572 442 519 675 707 815>
LayerCount: 2
Fore
SplineSet
0 624 m 1
 82 707 l 1
 188 707 l 1
 188 815 l 1
 220 815 l 1
 220 707 l 1
 343 707 l 1
 343 815 l 1
 375 815 l 1
 375 707 l 1
 498 707 l 1
 498 815 l 1
 530 815 l 1
 530 707 l 1
 653 707 l 1
 653 815 l 1
 685 815 l 1
 685 707 l 1
 786 707 l 1
 862 631 l 1
 839 608 l 1
 772 675 l 1
 685 675 l 1
 685 519 l 1
 862 519 l 1
 685 -816 l 1
 653 -814 l 1
 653 442 l 1
 530 442 l 1
 530 -814 l 1
 498 -814 l 1
 498 442 l 1
 375 442 l 1
 375 -814 l 1
 343 -814 l 1
 343 442 l 1
 220 442 l 1
 220 -814 l 1
 188 -816 l 1
 6 519 l 1
 188 519 l 1
 188 675 l 1
 96 675 l 1
 22 602 l 1
 0 624 l 1
188 442 m 1
 47 442 l 1
 188 -579 l 1
 188 442 l 1
820 442 m 1
 685 442 l 1
 685 -572 l 1
 820 442 l 1
375 675 m 1
 375 519 l 1
 498 519 l 1
 498 675 l 1
 375 675 l 1
530 675 m 1
 530 519 l 1
 653 519 l 1
 653 675 l 1
 530 675 l 1
220 675 m 1
 220 519 l 1
 343 519 l 1
 343 675 l 1
 220 675 l 1
EndSplineSet
EndChar

StartChar: uniE079
Encoding: 57465 57465 115
Width: 284
GlyphClass: 2
Flags: MW
HStem: 42 111<139 197> 348 87<99.5 108 108 114>
VStem: 0 39<17.5 20 20 339> 234 50<-76.5 -53.5>
LayerCount: 2
Fore
SplineSet
0 453 m 2
 1 458 3 465 8 465 c 0
 9 465 11 464 13 463 c 0
 22 457 76 435 123 435 c 0
 169 435 210 454 220 462 c 0
 224 465 227 466 230 466 c 0
 235 466 237 462 237 453 c 0
 225 350 142 348 114 348 c 2
 108 348 l 2
 90 348 70 348 58 352 c 0
 55 353 52 354 50 354 c 0
 43 354 39 349 39 339 c 2
 39 20 l 2
 39 15 39 11 40 11 c 0
 41 11 43 13 45 18 c 2
 48 25 l 2
 71 80 104 153 174 153 c 0
 268 153 284 21 284 -48 c 0
 284 -105 275 -158 269 -186 c 0
 254 -253 214 -359 174 -417 c 0
 173 -418 136 -463 132 -463 c 1
 132 -457 138 -440 138 -440 c 1
 223 -290 234 -105 234 -74 c 0
 234 -33 216 42 178 42 c 0
 88 42 15 -219 7 -219 c 0
 0 -219 0 -206 0 -197 c 2
 0 453 l 2
EndSplineSet
EndChar

StartChar: uniE07A
Encoding: 57466 57466 116
Width: 440
GlyphClass: 2
Flags: MW
HStem: -455 32<211 212> -181 32<208.5 253.5 208.5 254> 48 103<291 318.5>
VStem: 1 60 85 151<-344.5 -336.5> 133 49<-30 42.5> 192 34<450.5 468> 312 33<-363.5 -308.5> 339 37<523 539.5 461 543> 386 54<-45.5 -39 -39 -39>
LayerCount: 2
Fore
SplineSet
1 28 m 0xf940
 0 35 0 42 0 48 c 0
 0 174 108 271 205 353 c 1
 197 395 l 2
 193 418 192 440 192 461 c 0xf6c0
 192 580 236 679 298 707 c 1
 298 707 322 703 347 644 c 0
 366 602 376 560 376 519 c 0xf8c0
 376 403 344 320 256 239 c 1
 263 203 266 193 273 150 c 1
 275 151 279 151 281 151 c 2
 288 151 l 2
 372 151 434 85 440 1 c 1
 440 -9 l 2
 440 -82 397 -142 324 -169 c 1
 331 -215 345 -262 345 -312 c 0
 345 -415 271 -451 225 -454 c 0
 220 -454 214 -455 210 -455 c 0
 102 -455 85 -380 85 -343 c 0
 85 -330 87 -320 88 -320 c 0
 93 -279 129 -248 168 -248 c 0
 178 -248 187 -250 197 -255 c 0
 224 -266 236 -292 236 -320 c 2
 236 -325 l 2
 236 -364 200 -385 173 -393 c 0
 167 -396 162 -396 156 -397 c 0
 153 -399 150 -400 150 -403 c 0
 150 -418 201 -423 211 -423 c 2
 224 -423 l 2
 232 -423 312 -422 312 -315 c 0
 312 -302 308 -265 305 -249 c 2
 292 -178 l 1
 278 -178 264 -181 244 -181 c 0
 137 -181 13 -131 1 28 c 0xf940
61 -11 m 1
 65 -125 173 -149 244 -149 c 0
 263 -149 277 -147 287 -143 c 1
 253 45 l 1
 218 38 182 22 182 -24 c 2
 182 -30 l 2
 183 -57 206 -83 219 -88 c 0
 224 -91 229 -96 229 -100 c 0
 229 -103 226 -106 221 -106 c 0
 179 -106 145 -51 137 -16 c 0
 134 -7 133 3 133 13 c 0
 133 72 179 128 238 145 c 1
 226 224 l 1
 140 160 61 101 61 -5 c 2
 61 -11 l 1
226 434 m 0
 226 426 226 418 227 411 c 0
 227 407 230 394 232 378 c 1
 302 432 330 457 338 511 c 0
 339 516 339 521 339 525 c 0
 339 561 325 578 303 578 c 0
 251 576 226 502 226 434 c 0
291 48 m 1
 305 -26 309 -77 319 -136 c 1
 366 -116 386 -92 386 -46 c 2
 386 -39 l 2
 383 16 346 48 291 48 c 1
EndSplineSet
EndChar

StartChar: uniE07B
Encoding: 57467 57467 117
Width: 506
GlyphClass: 2
Flags: MW
HStem: -332 27<311.5 353.5 311.5 394.5> -67 42<344 371> -34 68<187 187> 26 42<344 371 327.5 408> 306 26<317.5 353.5>
VStem: 0 102<-317 317> 150 37<-318 -34 34 317> 222 106<-246.5 -227.5 228 245.5> 395 111<-216 -140.5 -216.5 -138 -216.5 -112 140 216>
LayerCount: 2
Fore
SplineSet
150 317 m 2xde80
 150 326 156 332 164 332 c 0
 172 332 187 326 187 317 c 2
 187 34 l 1
 206 36 232 40 249 119 c 0xaf80
 251 128 257 138 264 138 c 0
 269 138 274 133 279 119 c 0
 289 86 306 68 349 68 c 0
 393 68 395 86 395 137 c 2
 395 216 l 2
 395 257 382 306 325 306 c 0
 310 306 295 302 282 289 c 0
 280 288 280 287 280 286 c 0
 280 282 290 280 292 278 c 0
 298 273 328 257 328 234 c 0
 328 208 301 184 273 184 c 0
 244 184 222 214 222 242 c 0
 222 269 251 332 347 332 c 0
 442 332 506 254 506 178 c 0
 506 102 456 26 360 26 c 0
 328 26 317 45 308 45 c 0
 300 45 290 31 284 22 c 0
 284 20 282 20 281 18 c 0
 277 9 274 2 274 0 c 0
 274 -7 279 -13 282 -21 c 0
 288 -31 298 -46 308 -46 c 0
 317 -46 328 -25 360 -25 c 0
 456 -25 506 -102 506 -179 c 0
 506 -254 442 -332 347 -332 c 0
 251 -332 222 -268 222 -241 c 0
 222 -214 244 -183 273 -183 c 0
 301 -183 328 -207 328 -233 c 0
 328 -260 297 -271 290 -278 c 0
 288 -280 280 -282 280 -286 c 0
 280 -287 281 -288 283 -290 c 0
 289 -296 298 -305 325 -305 c 0
 382 -305 395 -258 395 -216 c 2
 395 -138 l 2
 395 -86 393 -67 349 -67 c 0
 306 -67 289 -86 279 -119 c 0
 274 -133 269 -138 264 -138 c 0xdf80
 257 -138 251 -128 249 -119 c 0
 232 -40 206 -36 187 -34 c 1xae80
 187 -318 l 2
 187 -326 172 -332 164 -332 c 0
 156 -332 150 -326 150 -318 c 2
 150 317 l 2xde80
15 -332 m 2
 7 -332 0 -325 0 -317 c 2
 0 317 l 2
 0 325 7 332 15 332 c 2
 87 332 l 2
 96 332 102 325 102 317 c 2
 102 -317 l 2
 102 -325 96 -332 87 -332 c 2
 15 -332 l 2
EndSplineSet
AlternateSubs2: "'salt' Stylistic Alternatives lookup 10 subtable" uniF4C0
EndChar

StartChar: uniE07C
Encoding: 57468 57468 118
Width: 462
GlyphClass: 2
Flags: MW
HStem: -129 88<406.5 430.5> -94 153<70 84 84 88> 39 88<405.5 430> 136 34<162 166 162 173>
VStem: 0 169<4.5 19.5 -30 36.5> 234 116<-70.5 -22 -70.5 -22> 374 88<71.5 96>
LayerCount: 2
Fore
SplineSet
-15 -403 m 0x5c
 -15 -400 -12 -391 -2 -385 c 0
 32 -366 67 -351 98 -327 c 0
 197 -251 234 -150 234 -28 c 0
 234 -16 234 -3 232 9 c 0
 232 14 231 16 231 17 c 0
 224 76 209 136 137 136 c 0
 119 136 78 130 55 77 c 1
 55 77 54 75 54 73 c 0
 54 67 56 59 70 59 c 2
 89 59 l 2
 117 59 169 49 169 -10 c 0
 169 -50 128 -94 88 -94 c 2
 84 -94 l 2
 46 -94 8 -63 1 -3 c 0
 0 0 0 3 0 6 c 0
 0 67 50 170 162 170 c 2
 166 170 l 1
 166 170 234 166 288 122 c 0
 321 95 348 51 350 -18 c 2
 350 -22 l 2
 350 -119 281 -229 215 -295 c 0
 165 -345 75 -414 -2 -414 c 0
 -6 -414 -15 -408 -15 -403 c 0x5c
418 39 m 0xbe
 393 39 374 59 374 84 c 0
 374 108 393 127 418 127 c 0
 442 127 462 108 462 84 c 0
 462 59 442 39 418 39 c 0xbe
375 -85 m 0
 375 -61 395 -41 418 -41 c 0
 443 -41 463 -61 463 -85 c 0
 463 -109 443 -129 418 -129 c 0
 395 -129 375 -109 375 -85 c 0
EndSplineSet
EndChar

StartChar: uniE07D
Encoding: 57469 57469 119
Width: 205
GlyphClass: 2
Flags: MW
HStem: 0 12<82.5 99> 230 17<120 125 113 128.5>
VStem: 0 38<70 76.5 70 84> 39 50<178 205> 129 50<57.5 59> 169 36<190 194.5>
LayerCount: 2
Fore
SplineSet
92 0 m 0xf8
 54 0 0 26 0 70 c 0
 0 98 25 127 51 136 c 0
 55 137 57 138 57 141 c 0
 57 143 56 144 55 144 c 0
 44 157 39 171 39 185 c 0
 39 209 53 231 79 241 c 0
 89 246 101 247 113 247 c 2
 117 247 l 2
 133 247 205 237 205 187 c 0xf4
 205 152 183 144 174 137 c 0
 168 132 166 127 166 121 c 0
 166 115 166 110 170 105 c 0
 176 94 179 83 179 71 c 0
 179 44 161 18 133 6 c 0
 122 2 106 0 92 0 c 0xf8
48 101 m 0
 42 93 38 82 38 71 c 0
 38 69 38 67 39 64 c 0
 46 32 73 12 92 12 c 0
 112 12 129 32 129 48 c 0xf8
 129 70 99 99 83 110 c 0
 79 112 71 116 69 116 c 0
 63 116 58 113 55 109 c 0
 52 107 49 104 48 101 c 0
89 205 m 0
 89 191 99 180 107 171 c 0
 115 163 123 153 133 146 c 0
 138 144 143 142 146 142 c 0
 163 142 168 172 169 190 c 0xf4
 169 199 166 210 160 216 c 0
 152 225 137 230 120 230 c 0
 105 229 91 222 89 205 c 0
EndSplineSet
EndChar

StartChar: uniE07E
Encoding: 57470 57470 120
Width: 359
GlyphClass: 2
Flags: MW
HStem: -3 13<207 213 207 239> 0 21G<120 123.5> 141 23<250.5 252.5> 203 45
VStem: 150 51<52.5 61.5> 179 41<120.5 167.5> 280 44<92 105 64 123>
LayerCount: 2
Fore
SplineSet
150 55 m 0xba
 150 68 155 78 166 84 c 2
 173 86 l 1
 177 86 l 2
 191 86 201 74 201 60 c 0
 201 45 187 42 184 24 c 0xba
 184 13 201 10 213 10 c 0
 250 12 280 75 280 109 c 0
 280 137 258 141 247 141 c 0
 220 141 200 114 190 114 c 0
 179 114 179 118 179 123 c 0
 179 139 215 246 227 248 c 2
 292 248 l 2
 326 248 359 249 359 244 c 0
 359 222 325 210 304 206 c 2
 275 200 l 2
 264 198 253 196 241 193 c 2
 227 190 l 2
 222 186 220 171 220 164 c 0
 220 163 221 161 224 161 c 0
 232 161 246 164 255 164 c 0xb6
 279 164 286 152 298 152 c 1
 301 149 l 2
 316 138 324 116 324 94 c 0
 324 34 266 -3 212 -3 c 0
 181 -3 150 17 150 55 c 0xba
120 0 m 0x7a
 89 4 0 -9 0 9 c 1
 8 27 29 2 47 39 c 0
 53 51 88 133 88 145 c 0
 88 149 87 152 81 152 c 0
 71 152 67 133 47 133 c 0
 41 133 36 136 36 141 c 0
 36 143 36 144 38 147 c 0
 44 154 118 240 125 246 c 0
 132 252 136 255 141 255 c 0
 151 255 158 244 174 244 c 0
 180 244 185 248 188 248 c 0
 192 248 193 247 193 243 c 2
 193 239 l 2
 192 232 106 39 105 31 c 0
 105 10 132 20 132 9 c 0
 132 4 127 0 120 0 c 0x7a
EndSplineSet
EndChar

StartChar: uniE080
Encoding: 57472 57472 122
Width: 470
GlyphClass: 2
Flags: MW
HStem: -250 45<214 255.5 214 294.5> 220 31<214 255.5>
VStem: 20 140<-51.5 66 -51.5 69.5> 310 140<-51.5 66>
LayerCount: 2
Fore
SplineSet
235 -250 m 0
 116 -250 20 -138 20 0 c 0
 20 139 116 251 235 251 c 0
 354 251 450 139 450 0 c 0
 450 -138 354 -250 235 -250 c 0
160 7 m 0
 160 -110 193 -205 235 -205 c 0
 276 -205 310 -110 310 7 c 0
 310 125 276 220 235 220 c 0
 193 220 160 125 160 7 c 0
EndSplineSet
AlternateSubs2: "'ss09' Style Set 9 lookup 8 subtable" uniF506
AlternateSubs2: "'ss04' Style Set 4 lookup 3 subtable" uniF440
AlternateSubs2: "'ss01' Style Set 1 lookup 0 subtable" uniF45D
EndChar

StartChar: uniE081
Encoding: 57473 57473 123
Width: 334
GlyphClass: 2
Flags: MW
HStem: -250 31<78.5 85 85 90.5 292 298> -16 21G<39.5 45> -7 21G<54 54>
VStem: 124 143<-181 77 77 80>
LayerCount: 2
Fore
SplineSet
20 0 m 0xd0
 20 7 24 13 24 13 c 1xd0
 120 232 l 2
 124 241 128 251 138 251 c 0
 139 251 141 250 143 250 c 0
 158 248 176 247 195 247 c 0
 208 247 233 251 247 251 c 0
 261 250 267 244 267 228 c 2
 267 -184 l 2
 267 -201 285 -219 299 -219 c 0
 314 -219 314 -234 314 -234 c 1
 314 -234 314 -250 298 -250 c 2
 85 -250 l 2
 72 -250 63 -245 63 -234 c 0
 63 -222 73 -219 80 -219 c 0
 101 -219 124 -204 124 -181 c 2
 124 77 l 2
 124 83 122 91 118 91 c 0
 116 91 112 88 108 81 c 0xb0
 97 62 54 -7 54 -7 c 1
 54 -7 50 -16 40 -16 c 0
 39 -16 35 -15 31 -14 c 0
 23 -11 20 -5 20 0 c 0xd0
EndSplineSet
AlternateSubs2: "'ss09' Style Set 9 lookup 8 subtable" uniF507
AlternateSubs2: "'ss04' Style Set 4 lookup 3 subtable" uniF441
AlternateSubs2: "'ss01' Style Set 1 lookup 0 subtable" uniF45E
EndChar

StartChar: uniE082
Encoding: 57474 57474 124
Width: 446
GlyphClass: 2
Flags: MW
HStem: -250 117<240.5 366.5> -196 101<111.5 221.5> 229 25<194 235.5>
VStem: 20 161<111 131.5> 281 145<87.5 147.5> 396 25<-87.5 -87>
LayerCount: 2
Fore
SplineSet
20 118 m 0x78
 20 145 31 170 48 191 c 0
 97 248 159 254 229 254 c 0
 322 254 426 208 426 102 c 0
 426 19 363 -10 293 -29 c 0
 271 -35 186 -65 164 -101 c 1
 175 -97 188 -95 201 -95 c 0
 242 -95 289 -111 309 -119 c 0x78
 319 -124 326 -125 339 -130 c 0
 346 -132 351 -133 356 -133 c 0
 377 -133 385 -114 395 -90 c 0
 395 -89 396 -88 396 -87 c 0
 398 -81 401 -77 409 -77 c 0
 416 -77 421 -79 421 -91 c 0
 405 -246 328 -250 285 -250 c 0xb4
 196 -250 181 -196 141 -196 c 0
 82 -196 70 -257 48 -257 c 0
 28 -257 23 -233 23 -218 c 0
 40 -155 79 -106 134 -71 c 0
 206 -27 281 42 281 133 c 0
 281 162 280 229 191 229 c 0
 132 229 114 205 112 191 c 0
 112 171 181 168 181 108 c 0
 181 83 172 20 111 20 c 0
 75 20 44 44 29 75 c 0
 23 90 20 104 20 118 c 0x78
EndSplineSet
AlternateSubs2: "'ss09' Style Set 9 lookup 8 subtable" uniF508
AlternateSubs2: "'ss04' Style Set 4 lookup 3 subtable" uniF442
AlternateSubs2: "'ss01' Style Set 1 lookup 0 subtable" uniF45F
EndChar

StartChar: uniE083
Encoding: 57475 57475 125
Width: 421
GlyphClass: 2
Flags: MW
HStem: -251 38<191 198 185 200 191 191> -4 29<139 139> 215 34<162.5 200.5 155 209.5>
VStem: 20 130<-196 -130> 26 99<122.5 186> 260 120<131 138 138 150> 263 138<-148 -112 -112 -105 -156 -88.5>
LayerCount: 2
Fore
SplineSet
20 -141 m 0xf2
 20 -119 25 -95 42 -80 c 0
 54 -67 73 -57 90 -54 c 0
 94 -53 97 -53 101 -53 c 0
 144 -53 173 -83 173 -125 c 0
 172 -154 150 -169 150 -191 c 2
 150 -196 l 2
 151 -211 170 -211 178 -212 c 0
 179 -212 183 -213 187 -213 c 0
 209 -213 263 -201 263 -95 c 0xf2
 263 -82 254 -4 139 -4 c 0
 131 -4 114 -4 114 8 c 0
 114 19 128 24 138 25 c 0
 201 28 260 57 260 131 c 2
 260 138 l 2
 260 162 252 215 167 215 c 0
 158 215 127 207 125 190 c 2
 125 186 l 2
 125 172 140 174 145 172 c 0
 150 170 175 168 178 131 c 2
 178 123 l 2
 178 90 156 58 112 58 c 2
 107 58 l 1
 45 62 26 106 26 139 c 0
 26 192 112 249 198 249 c 0
 203 249 208 248 213 248 c 0
 255 245 380 218 380 126 c 0
 380 80 359 54 319 35 c 0
 310 30 299 29 288 26 c 0
 285 25 284 21 284 17 c 0
 284 15 284 14 285 12 c 0
 287 8 290 8 295 7 c 2
 328 -2 l 1
 349 -14 l 2
 359 -20 367 -27 373 -35 c 0xec
 392 -57 399 -76 401 -105 c 2
 401 -112 l 2
 401 -200 299 -251 200 -251 c 2
 191 -251 l 2
 93 -249 22 -219 20 -141 c 0xf2
EndSplineSet
AlternateSubs2: "'ss09' Style Set 9 lookup 8 subtable" uniF509
AlternateSubs2: "'ss04' Style Set 4 lookup 3 subtable" uniF443
AlternateSubs2: "'ss01' Style Set 1 lookup 0 subtable" uniF460
EndChar

StartChar: uniE084
Encoding: 57476 57476 126
Width: 470
GlyphClass: 2
Flags: MW
HStem: -250 40<178 182 182 195 178 395> -112 38<91 226 91 226 362 435>
VStem: 158 177<236 240> 226 136<-175 -171 -171 -112 -187 -112 -74 10 10 16>
LayerCount: 2
Fore
SplineSet
40 -112 m 2xd0
 28 -112 20 -105 20 -95 c 0
 20 -92 21 -88 23 -84 c 0
 23 -83 24 -82 24 -81 c 2
 30 -73 l 2
 60 -31 158 108 158 232 c 0
 158 248 172 251 181 251 c 0
 189 251 234 249 252 249 c 0
 270 249 311 251 320 251 c 0
 328 251 335 245 335 237 c 0
 335 235 334 234 334 232 c 0xe0
 331 221 171 -6 91 -74 c 1
 226 -74 l 1
 226 10 l 2
 226 22 231 28 235 33 c 2
 330 148 l 2
 336 155 341 157 350 157 c 0
 361 157 362 148 362 140 c 2
 362 -74 l 1
 435 -74 l 2
 446 -74 450 -81 450 -93 c 0
 450 -105 445 -112 435 -112 c 2
 362 -112 l 1
 362 -171 l 2
 362 -203 383 -209 393 -209 c 0
 403 -209 415 -215 415 -229 c 0
 415 -243 405 -250 395 -250 c 2
 182 -250 l 2
 167 -250 163 -239 163 -229 c 0
 163 -219 170 -210 186 -210 c 0
 204 -210 226 -202 226 -175 c 2
 226 -112 l 1
 40 -112 l 2xd0
EndSplineSet
AlternateSubs2: "'ss09' Style Set 9 lookup 8 subtable" uniF50A
AlternateSubs2: "'ss04' Style Set 4 lookup 3 subtable" uniF444
AlternateSubs2: "'ss01' Style Set 1 lookup 0 subtable" uniF461
EndChar

StartChar: uniE085
Encoding: 57477 57477 127
Width: 403
GlyphClass: 2
Flags: MW
HStem: -251 40<159 176 159 257> -10 21G<50 60> 43 35<128 263.5> 128 108<189 221 189 267.5>
VStem: 20 158<-127 -124> 35 41 248 135<-132 -41.5 -132 -31.5>
LayerCount: 2
Fore
SplineSet
20 -127 m 0xfa
 20 -121 20 -115 21 -109 c 0
 24 -74 46 -35 100 -35 c 0
 143 -35 178 -69 178 -113 c 0
 178 -141 163 -166 140 -180 c 0
 135 -183 128 -187 128 -194 c 0
 129 -201 135 -205 140 -208 c 0xfa
 147 -211 155 -211 163 -211 c 0
 189 -211 248 -197 248 -87 c 0
 248 24 179 43 145 43 c 0
 111 43 87 20 77 10 c 0
 66 -1 65 -10 55 -10 c 0
 45 -10 35 -8 35 5 c 2
 35 7 l 1
 46 229 l 2
 47 237 52 246 70 246 c 0
 87 244 173 236 205 236 c 0
 237 236 315 245 328 245 c 0
 339 245 342 237 342 224 c 0
 342 208 337 128 198 128 c 0
 157 128 110 135 100 137 c 2
 96 137 l 2
 87 137 82 132 81 124 c 0
 80 115 76 59 76 59 c 1
 76 55 l 2
 76 52 76 48 80 48 c 0
 81 48 83 48 85 49 c 0xf6
 117 68 160 78 218 78 c 0
 309 78 383 4 383 -87 c 0
 383 -177 317 -251 197 -251 c 0
 74 -251 20 -210 20 -127 c 0xfa
EndSplineSet
AlternateSubs2: "'ss09' Style Set 9 lookup 8 subtable" uniF50B
AlternateSubs2: "'ss04' Style Set 4 lookup 3 subtable" uniF445
AlternateSubs2: "'ss01' Style Set 1 lookup 0 subtable" uniF462
EndChar

StartChar: uniE086
Encoding: 57478 57478 128
Width: 434
GlyphClass: 2
Flags: MW
HStem: -249 27<206 238 206 247.5> 2 48<206 301.5> 227 24<242 250>
VStem: 20 137<-1 37 3 37> 241 144<137.5 150> 281 133<-117.5 -79>
LayerCount: 2
Fore
SplineSet
20 3 m 2xf4
 20 50 37 103 59 145 c 0
 95 213 166 250 242 251 c 0
 296 251 374 234 384 170 c 0
 385 166 385 163 385 159 c 0
 385 116 347 83 305 83 c 0
 292 83 263 91 256 104 c 0
 246 115 241 130 241 145 c 0xf8
 241 155 243 165 248 174 c 0
 254 186 273 198 273 212 c 0
 273 222 260 227 240 227 c 0
 219 227 160 222 157 37 c 0
 157 21 160 13 166 13 c 0
 168 13 170 13 172 15 c 0
 198 38 231 50 263 50 c 0
 340 50 414 -17 414 -95 c 0
 414 -140 391 -185 356 -213 c 0
 320 -242 270 -249 225 -249 c 0
 141 -249 92 -213 51 -139 c 0
 29 -99 21 -47 20 -1 c 2
 20 3 l 2xf4
222 2 m 0
 190 2 164 -48 164 -110 c 0
 164 -172 190 -222 222 -222 c 0
 254 -222 281 -172 281 -110 c 0xf4
 281 -48 254 2 222 2 c 0
EndSplineSet
AlternateSubs2: "'ss09' Style Set 9 lookup 8 subtable" uniF50C
AlternateSubs2: "'ss04' Style Set 4 lookup 3 subtable" uniF446
AlternateSubs2: "'ss01' Style Set 1 lookup 0 subtable" uniF463
EndChar

StartChar: uniE087
Encoding: 57479 57479 129
Width: 441
GlyphClass: 2
Flags: MW
HStem: 61 103<231 349.5> 136 113<91.5 223.5>
VStem: 120 182<-227.5 -199.5> 326 95<63 200>
LayerCount: 2
Fore
SplineSet
20 49 m 1x60
 20 214 l 2
 20 223 25 226 30 226 c 0
 35 226 40 223 42 219 c 0
 47 209 60 195 68 195 c 0
 75 196 81 200 95 213 c 0
 109 226 124 249 182 249 c 0x70
 265 249 312 164 337 164 c 0
 362 164 376 221 383 233 c 0
 387 240 403 244 404 244 c 0
 421 244 421 231 421 204 c 2
 421 200 l 2xb0
 421 97 302 -46 302 -213 c 0
 302 -242 296 -250 286 -250 c 0
 276 -250 229 -241 204 -241 c 0
 179 -241 157 -250 139 -250 c 0
 120 -250 120 -240 120 -219 c 0x60
 120 -180 151 -122 189 -78 c 0
 249 -7 326 49 326 77 c 0
 325 83 323 86 319 86 c 0
 317 86 313 84 310 82 c 0
 302 76 288 61 260 61 c 0xb0
 202 61 154 136 114 136 c 0
 69 136 56 78 46 53 c 0
 42 42 39 33 31 33 c 0
 21 33 20 49 20 49 c 1x60
EndSplineSet
AlternateSubs2: "'ss09' Style Set 9 lookup 8 subtable" uniF50D
AlternateSubs2: "'ss04' Style Set 4 lookup 3 subtable" uniF447
AlternateSubs2: "'ss01' Style Set 1 lookup 0 subtable" uniF464
EndChar

StartChar: uniE088
Encoding: 57480 57480 130
Width: 436
GlyphClass: 2
Flags: MW
HStem: -259 33<171.5 238.5 171.5 259> -11 21G 230 29<196 233.5 162 234>
VStem: 20 57<-159.5 -107 -159.5 -100.5> 25 92<135.5 164> 303 113<-148.5 -119> 335 59<124 179>
LayerCount: 2
Fore
SplineSet
20 -132 m 0xf4
 20 -69 60 -36 112 -11 c 1
 64 16 25 53 25 122 c 0
 25 206 104 259 220 259 c 0
 247 259 394 244 394 142 c 0xea
 394 92 370 59 334 36 c 1
 381 12 416 -21 416 -81 c 0
 416 -216 309 -259 209 -259 c 0
 110 -259 20 -219 20 -132 c 0xf4
77 -127 m 0
 77 -192 138 -226 205 -226 c 0
 272 -226 303 -192 303 -152 c 0
 303 -86 229 -65 156 -33 c 1
 112 -50 77 -87 77 -127 c 0
218 230 m 0
 174 230 117 209 117 167 c 0
 117 104 202 87 282 59 c 1
 315 78 335 104 335 144 c 0xea
 335 214 250 230 218 230 c 0
EndSplineSet
AlternateSubs2: "'ss09' Style Set 9 lookup 8 subtable" uniF50E
AlternateSubs2: "'ss04' Style Set 4 lookup 3 subtable" uniF448
AlternateSubs2: "'ss01' Style Set 1 lookup 0 subtable" uniF465
EndChar

StartChar: uniE089
Encoding: 57481 57481 131
Width: 434
GlyphClass: 2
Flags: MW
HStem: -249 24<184 192> -48 48<132.5 228> -11 21G<267 271> 224 27<196 228>
VStem: 20 133<81 119.5> 49 144<-148 -135.5 -148 -135.5> 277 137<-35 -1>
LayerCount: 2
Fore
SplineSet
171 -48 m 0xda
 94 -48 20 19 20 97 c 0
 20 142 43 187 78 215 c 0
 114 244 164 251 209 251 c 0
 293 251 342 215 383 141 c 0
 405 101 413 49 414 3 c 2
 414 -1 l 2xda
 414 -48 397 -101 375 -143 c 0
 339 -211 268 -248 192 -249 c 0
 138 -249 60 -232 50 -168 c 0
 49 -164 49 -161 49 -157 c 0
 49 -114 87 -81 129 -81 c 0
 142 -81 171 -89 178 -102 c 0
 188 -113 193 -128 193 -143 c 0
 193 -153 191 -163 186 -172 c 0
 180 -184 161 -196 161 -210 c 0
 161 -220 174 -225 194 -225 c 0
 215 -225 274 -220 277 -35 c 0
 277 -19 274 -11 268 -11 c 0xb6
 266 -11 264 -11 262 -13 c 0
 236 -36 203 -48 171 -48 c 0xda
153 112 m 0
 153 50 180 0 212 0 c 0
 244 0 270 50 270 112 c 0
 270 174 244 224 212 224 c 0
 180 224 153 174 153 112 c 0
EndSplineSet
AlternateSubs2: "'ss09' Style Set 9 lookup 8 subtable" uniF50F
AlternateSubs2: "'ss04' Style Set 4 lookup 3 subtable" uniF449
AlternateSubs2: "'ss01' Style Set 1 lookup 0 subtable" uniF466
EndChar

StartChar: uniE08A
Encoding: 57482 57482 132
Width: 424
GlyphClass: 2
Flags: MW
HStem: -249 33<211.5 268 211.5 310.5> 22 149<313 320.5 293 327> 227 24<231 242.5 162 284>
VStem: 5 123<-42.5 57.5> 250 153<68.5 112.5> 394 30<-75.5 -50 -75.5 -48.5>
LayerCount: 2
Fore
SplineSet
70 -182 m 0xb4
 29 -132 5 -75 5 -10 c 0
 5 125 91 251 233 251 c 0
 252 251 403 239 403 108 c 0
 403 25 327 22 327 22 c 1
 299 22 250 40 250 97 c 0
 250 128 273 171 313 171 c 0
 328 171 331 184 331 193 c 0xf8
 331 203 310 227 258 227 c 0
 204 227 128 193 128 28 c 0
 128 -137 171 -216 252 -216 c 0
 284 -216 394 -186 394 -57 c 0
 394 -40 401 -39 409 -39 c 0
 413 -39 424 -39 424 -61 c 0
 424 -90 398 -249 223 -249 c 0
 163 -249 108 -228 70 -182 c 0xb4
EndSplineSet
AlternateSubs2: "'ss09' Style Set 9 lookup 8 subtable" uniF510
AlternateSubs2: "'ss04' Style Set 4 lookup 3 subtable" uniF44A
EndChar

StartChar: uniE08B
Encoding: 57483 57483 133
Width: 417
GlyphClass: 2
Flags: MW
HStem: 21 148<307 314.5 287 321> 225 23<249.5 263.5 221 277.5>
VStem: 0 123<-20.5 37.5> 175 35<-342 -265 -265 -263 -163 166 166 170 268.5 271 271 344> 244 153<67 110.5> 388 30<-74.5 -59 -74.5 -49.5>
LayerCount: 2
Fore
SplineSet
156 -240 m 0xf4
 60 -215 0 -104 0 -10 c 0
 0 85 46 191 136 230 c 1
 163 240 l 2
 165 240 175 249 175 256 c 2
 175 344 l 2
 175 352 184 361 192 361 c 0
 203 361 210 352 210 344 c 2
 210 271 l 2
 210 266 215 249 221 248 c 0
 306 248 397 205 397 107 c 0
 397 24 321 21 321 21 c 1
 293 21 244 39 244 95 c 0xf8
 244 126 267 169 307 169 c 0
 322 169 325 183 325 191 c 0
 325 201 303 225 252 225 c 0
 247 225 241 225 235 224 c 0
 228 223 210 206 210 199 c 2
 210 -197 l 2
 210 -205 216 -211 220 -212 c 0
 228 -214 236 -215 246 -215 c 0
 278 -215 388 -185 388 -57 c 0
 388 -42 394 -40 398 -40 c 2
 402 -40 l 2
 407 -40 417 -40 418 -59 c 0
 418 -90 391 -246 221 -249 c 0
 214 -252 210 -257 210 -263 c 2
 210 -342 l 2
 210 -351 203 -359 192 -359 c 0
 184 -359 175 -351 175 -342 c 2
 175 -265 l 2
 175 -256 163 -243 156 -240 c 0xf4
161 180 m 0
 139 149 123 102 123 26 c 0
 123 -67 137 -134 164 -172 c 0
 165 -174 167 -175 169 -175 c 0
 172 -175 175 -172 175 -163 c 2
 175 166 l 2
 175 174 169 182 164 182 c 0
 163 182 162 182 161 180 c 0
EndSplineSet
AlternateSubs2: "'ss09' Style Set 9 lookup 8 subtable" uniF511
AlternateSubs2: "'ss04' Style Set 4 lookup 3 subtable" uniF44B
EndChar

StartChar: uniE08C
Encoding: 57484 57484 134
Width: 500
GlyphClass: 2
Flags: MW
HStem: -38 75<9.5 197 13 197 300 301 301 485>
VStem: 212 75<-236 -54 55 236>
LayerCount: 2
Fore
SplineSet
-1 23 m 2
 -1 32 6 37 13 37 c 2
 197 37 l 2
 203 37 212 46 212 55 c 2
 212 236 l 2
 212 243 217 250 226 250 c 2
 272 250 l 2
 281 250 287 243 287 236 c 2
 287 55 l 2
 287 45 292 37 300 37 c 2
 485 37 l 2
 492 37 499 32 499 23 c 2
 499 -23 l 2
 499 -32 492 -38 485 -38 c 2
 301 -38 l 2
 294 -38 287 -44 287 -54 c 2
 287 -236 l 2
 287 -243 281 -250 272 -250 c 2
 226 -250 l 2
 217 -250 212 -243 212 -236 c 2
 212 -52 l 2
 212 -47 207 -38 197 -38 c 2
 13 -38 l 2
 6 -38 -1 -32 -1 -23 c 2
 -1 23 l 2
EndSplineSet
AlternateSubs2: "'ss09' Style Set 9 lookup 8 subtable" uniF512
AlternateSubs2: "'ss04' Style Set 4 lookup 3 subtable" uniF44C
EndChar

StartChar: uniE08D
Encoding: 57485 57485 135
Width: 254
GlyphClass: 2
Flags: MW
HStem: -24 38<5 101 7 101 153 154 154 247>
VStem: 108 38<-125 -33 23 115>
LayerCount: 2
Fore
SplineSet
-1 7 m 2
 -1 11 3 14 7 14 c 2
 101 14 l 2
 104 14 108 19 108 23 c 2
 108 115 l 2
 108 119 111 123 115 123 c 2
 139 123 l 2
 143 123 146 119 146 115 c 2
 146 23 l 2
 146 18 149 14 153 14 c 2
 247 14 l 2
 251 14 255 11 255 7 c 2
 255 -17 l 2
 255 -21 251 -24 247 -24 c 2
 154 -24 l 2
 150 -24 146 -27 146 -33 c 2
 146 -125 l 2
 146 -129 143 -133 139 -133 c 2
 115 -133 l 2
 111 -133 108 -129 108 -125 c 2
 108 -32 l 2
 108 -29 106 -24 101 -24 c 2
 7 -24 l 2
 3 -24 -1 -21 -1 -17 c 2
 -1 7 l 2
EndSplineSet
AlternateSubs2: "'ss09' Style Set 9 lookup 8 subtable" uniF513
AlternateSubs2: "'ss04' Style Set 4 lookup 3 subtable" uniF4EE
EndChar

StartChar: uniE08E
Encoding: 57486 57486 136
Width: 378
GlyphClass: 2
Flags: MW
HStem: -190 379<27 351>
VStem: 0 378<-163 162>
LayerCount: 2
Fore
SplineSet
0 -162 m 0
 0 -158 2 -154 5 -150 c 2
 338 183 l 2
 342 187 346 189 350 189 c 0
 352 189 354 188 355 187 c 2
 376 166 l 2
 377 165 378 163 378 161 c 0
 378 157 376 152 372 149 c 2
 39 -184 l 2
 36 -188 32 -190 28 -190 c 0
 26 -190 24 -189 23 -188 c 2
 1 -167 l 2
 0 -166 0 -164 0 -162 c 0
EndSplineSet
AlternateSubs2: "'ss09' Style Set 9 lookup 8 subtable" uniF514
AlternateSubs2: "'ss04' Style Set 4 lookup 3 subtable" uniF4EF
EndChar

StartChar: uniE08F
Encoding: 57487 57487 137
Width: 448
GlyphClass: 2
Flags: MW
HStem: -125 75<13.5 430 19 430> 49 75<13.5 430 19 430>
VStem: 0 448<-112 -63 -115.5 -59.5 62 111 -115.5 114.5>
LayerCount: 2
Fore
SplineSet
0 62 m 2
 0 111 l 2
 0 118 8 124 19 124 c 2
 430 124 l 2
 440 124 448 118 448 111 c 2
 448 62 l 2
 448 55 440 49 430 49 c 2
 19 49 l 2
 8 49 0 55 0 62 c 2
19 -125 m 2
 8 -125 0 -119 0 -112 c 2
 0 -63 l 2
 0 -56 8 -50 19 -50 c 2
 430 -50 l 2
 440 -50 448 -56 448 -63 c 2
 448 -112 l 2
 448 -119 440 -125 430 -125 c 2
 19 -125 l 2
EndSplineSet
AlternateSubs2: "'ss09' Style Set 9 lookup 8 subtable" uniF515
AlternateSubs2: "'ss04' Style Set 4 lookup 3 subtable" uniF4F0
EndChar

StartChar: uniE090
Encoding: 57488 57488 138
Width: 448
GlyphClass: 2
Flags: MW
HStem: -35 75<13.5 430 19 430>
VStem: 0 448<-22 27 -25.5 30.5>
LayerCount: 2
Fore
SplineSet
0 27 m 2
 0 34 8 40 19 40 c 2
 430 40 l 2
 440 40 448 34 448 27 c 2
 448 -22 l 2
 448 -29 440 -35 430 -35 c 2
 19 -35 l 2
 8 -35 0 -29 0 -22 c 2
 0 27 l 2
EndSplineSet
AlternateSubs2: "'ss09' Style Set 9 lookup 8 subtable" uniF516
AlternateSubs2: "'ss04' Style Set 4 lookup 3 subtable" uniF4F1
EndChar

StartChar: uniE091
Encoding: 57489 57489 139
Width: 396
GlyphClass: 2
Flags: MW
HStem: -198 396<46 50>
VStem: 0 395<-151 -149 149 151 -151 152.5>
LayerCount: 2
Fore
SplineSet
4 141 m 2
 1 144 0 147 0 151 c 0
 0 154 1 158 4 161 c 2
 36 193 l 2
 40 196 44 198 48 198 c 0
 52 198 55 196 57 194 c 2
 185 66 l 2
 189 62 194 59 199 59 c 0
 202 59 205 60 207 62 c 2
 338 193 l 2
 341 196 344 197 348 197 c 0
 351 197 355 196 358 193 c 2
 390 161 l 2
 393 157 395 153 395 149 c 0
 395 145 393 142 391 140 c 2
 261 10 l 2
 258 7 257 4 257 0 c 0
 257 -4 258 -8 262 -11 c 2
 391 -140 l 2
 393 -142 395 -145 395 -149 c 0
 395 -153 393 -157 390 -161 c 2
 358 -193 l 2
 355 -196 351 -197 348 -197 c 0
 344 -197 341 -196 338 -193 c 2
 338 -193 210 -66 208 -63 c 0
 206 -61 202 -59 198 -59 c 0
 194 -59 190 -61 187 -64 c 2
 57 -194 l 2
 55 -196 52 -198 48 -198 c 0
 44 -198 40 -196 36 -193 c 2
 4 -161 l 2
 1 -158 0 -154 0 -151 c 0
 0 -147 1 -144 4 -141 c 2
 134 -11 l 2
 136 -9 137 -5 137 -1 c 0
 137 4 135 9 132 13 c 2
 4 141 l 2
EndSplineSet
AlternateSubs2: "'ss09' Style Set 9 lookup 8 subtable" uniF517
AlternateSubs2: "'ss04' Style Set 4 lookup 3 subtable" uniF4F2
EndChar

StartChar: uniE092
Encoding: 57490 57490 140
Width: 110
GlyphClass: 2
Flags: MW
HStem: -251 500<107 108.5> 235 14<107 110>
VStem: 0 47<-50.5 51>
LayerCount: 2
Fore
SplineSet
108 -251 m 0xa0
 32 -189 0 -101 0 0 c 0
 0 102 34 189 107 249 c 0
 108 249 110 248 110 245 c 2
 110 235 l 1
 110 235 110 229 108 227 c 0x60
 68 171 47 111 47 0 c 0
 47 -111 67 -173 107 -228 c 0
 108 -229 110 -231 110 -234 c 2
 110 -247 l 2
 110 -248 109 -251 108 -251 c 0xa0
EndSplineSet
AlternateSubs2: "'ss09' Style Set 9 lookup 8 subtable" uniF518
AlternateSubs2: "'ss04' Style Set 4 lookup 3 subtable" uniF4F3
EndChar

StartChar: uniE093
Encoding: 57491 57491 141
Width: 110
GlyphClass: 2
Flags: MW
HStem: -251 500<1.5 3> 235 14<0 3>
VStem: 63 47<-50.5 51 -50.5 55.5>
LayerCount: 2
Fore
SplineSet
0 245 m 2x60
 0 248 2 249 3 249 c 0
 76 189 110 102 110 0 c 0
 110 -101 78 -189 2 -251 c 0
 1 -251 0 -248 0 -247 c 2
 0 -234 l 2
 0 -231 2 -229 3 -228 c 0
 43 -173 63 -111 63 0 c 0
 63 111 42 171 2 227 c 0
 0 229 0 235 0 235 c 1
 0 245 l 2x60
EndSplineSet
AlternateSubs2: "'ss09' Style Set 9 lookup 8 subtable" uniF519
AlternateSubs2: "'ss04' Style Set 4 lookup 3 subtable" uniF4F4
EndChar

StartChar: uniE094
Encoding: 57492 57492 142
Width: 184
GlyphClass: 2
Flags: MW
HStem: 471 20G<180.5 182>
VStem: 0 68<-97.5 101> 176 8
LayerCount: 2
Fore
SplineSet
179 -488 m 0
 54 -368 0 -196 0 1 c 0
 0 201 54 369 176 487 c 1
 176 487 180 491 181 491 c 0
 183 491 184 488 184 483 c 2
 184 462 l 1
 184 462 184 452 181 447 c 0
 106 349 68 219 68 1 c 0
 68 -216 108 -345 180 -445 c 0
 182 -447 184 -452 184 -457 c 2
 184 -483 l 2
 184 -485 183 -489 182 -489 c 0
 181 -489 180 -489 179 -488 c 0
EndSplineSet
AlternateSubs2: "'ss09' Style Set 9 lookup 8 subtable" uniF51A
AlternateSubs2: "'ss04' Style Set 4 lookup 3 subtable" uniF4F5
EndChar

StartChar: uniE095
Encoding: 57493 57493 143
Width: 184
GlyphClass: 2
Flags: MW
HStem: 471 20G<2 3.5>
VStem: 116 68<-97.5 101 -97.5 110>
LayerCount: 2
Fore
SplineSet
0 483 m 2
 0 488 1 491 3 491 c 0
 4 491 8 487 8 487 c 1
 130 369 184 201 184 1 c 0
 184 -196 130 -368 5 -488 c 0
 4 -489 3 -489 2 -489 c 0
 1 -489 0 -485 0 -483 c 2
 0 -457 l 2
 0 -452 2 -447 4 -445 c 0
 76 -345 116 -216 116 1 c 0
 116 219 78 349 3 447 c 0
 0 452 0 462 0 462 c 1
 0 483 l 2
EndSplineSet
AlternateSubs2: "'ss09' Style Set 9 lookup 8 subtable" uniF51B
AlternateSubs2: "'ss04' Style Set 4 lookup 3 subtable" uniF4F6
EndChar

StartChar: uniE096
Encoding: 57494 57494 144
Width: 198
GlyphClass: 2
Flags: MW
HStem: 1 21G<55 88> 1 137<66.5 88>
VStem: 9 175<46 48 23 86>
LayerCount: 2
Fore
SplineSet
9 66 m 0xa0
 9 106 41 138 92 138 c 0
 112 138 134 131 151 119 c 0
 170 104 184 82 184 48 c 2
 184 39 l 2x60
 184 7 177 -35 154 -70 c 0
 135 -99 76 -150 38 -150 c 0
 34 -150 31 -147 30 -141 c 0
 30 -140 28 -138 28 -137 c 0
 28 -131 33 -129 38 -127 c 0
 40 -125 70 -107 90 -82 c 0
 101 -67 108 -53 108 -36 c 0
 108 -32 108 -29 106 -24 c 2
 106 -24 102 1 74 1 c 0
 36 1 9 26 9 66 c 0xa0
EndSplineSet
AlternateSubs2: "'ss09' Style Set 9 lookup 8 subtable" uniF51C
AlternateSubs2: "'ss04' Style Set 4 lookup 3 subtable" uniF4F7
EndChar

StartChar: uniE097
Encoding: 57495 57495 145
Width: 415
GlyphClass: 2
Flags: MW
HStem: -248 20<262 264 264 270.5 262 371> -179 19<219 286 219 286 354 391> 16 14<47 50 50 52.5 147 150>
VStem: 21 14<130 139> 68 67<48 169 169 170.5> 252 89<-5.5 -3 -5.5 -3> 286 68<-210 -208 -208 -179 -216 -179 -160 -118 -118 -115>
LayerCount: 2
Fore
SplineSet
193 -179 m 2xea
 187 -179 183 -175 183 -170 c 0
 183 -169 184 -167 185 -165 c 0
 185 -164 185 -164 185 -163 c 2
 188 -159 l 2
 203 -139 252 -69 252 -7 c 0
 252 1 259 2 264 2 c 0
 287 2 310 2 333 2 c 0
 337 2 341 -1 341 -5 c 0
 341 -6 340 -6 340 -7 c 0xec
 339 -13 259 -126 219 -160 c 1
 286 -160 l 1
 286 -118 l 2
 286 -112 289 -109 291 -107 c 2
 338 -49 l 2
 341 -46 344 -45 348 -45 c 0
 354 -45 354 -49 354 -53 c 2
 354 -160 l 1
 391 -160 l 2
 396 -160 398 -163 398 -169 c 0
 398 -175 396 -179 391 -179 c 2
 354 -179 l 1
 354 -208 l 2
 354 -224 365 -227 370 -227 c 0
 375 -227 381 -230 381 -237 c 0
 381 -244 376 -248 371 -248 c 2
 264 -248 l 2
 257 -248 255 -242 255 -237 c 0
 255 -232 258 -228 266 -228 c 0
 275 -228 286 -224 286 -210 c 2
 286 -179 l 1
 193 -179 l 2xea
17 -143 m 0
 17 -139 19 -135 22 -131 c 2
 355 202 l 2
 359 206 363 208 367 208 c 0
 369 208 371 207 372 206 c 2
 393 185 l 2
 394 184 395 182 395 180 c 0
 395 176 393 171 389 168 c 2
 56 -165 l 2
 53 -169 49 -171 45 -171 c 0
 43 -171 41 -170 40 -169 c 2
 18 -148 l 2
 17 -147 17 -145 17 -143 c 0
19 133 m 0xfa
 19 136 21 139 21 139 c 1
 66 242 l 2
 68 246 70 251 75 251 c 2
 75 251 76 250 77 250 c 0
 84 249 93 249 102 249 c 0
 108 249 119 251 126 251 c 0
 133 250 135 248 135 240 c 2
 135 47 l 2
 135 39 144 30 150 30 c 0
 157 30 157 23 157 23 c 1
 157 23 157 16 150 16 c 2
 50 16 l 2
 44 16 40 18 40 23 c 0
 40 29 44 30 48 30 c 0
 57 30 68 37 68 48 c 2
 68 169 l 2
 68 172 67 176 65 176 c 2
 65 176 63 174 61 171 c 0
 56 162 35 130 35 130 c 1
 35 130 34 126 29 126 c 0
 28 126 26 126 25 126 c 0
 21 128 19 131 19 133 c 0xfa
EndSplineSet
AlternateSubs2: "'ss09' Style Set 9 lookup 8 subtable" uniF51D
AlternateSubs2: "'ss04' Style Set 4 lookup 3 subtable" uniF4F8
EndChar

StartChar: uniE098
Encoding: 57496 57496 146
Width: 424
GlyphClass: 2
Flags: MW
HStem: -248 18<217 234> -245 55<318.5 377.5> -219 47<258 309.5> -19 11<307 316> 13 14<47 50 50 52.5 147 150>
VStem: 21 14<127 136> 68 67<45 166 166 167.5> 215 76<-75 -62 -82 -57> 338 67<-86 -58>
LayerCount: 2
Fore
SplineSet
220 -92 m 0x9780
 217 -85 215 -78 215 -72 c 0
 215 -42 245 -16 273 -11 c 0
 285 -8 301 -8 313 -8 c 0
 357 -8 405 -29 405 -79 c 0
 405 -100 397 -113 385 -122 c 0
 370 -135 350 -139 343 -141 c 0
 333 -143 293 -158 283 -175 c 1
 288 -173 294 -172 300 -172 c 0xb780
 319 -172 341 -179 351 -183 c 0
 354 -185 369 -190 373 -190 c 0
 382 -190 386 -181 391 -169 c 0
 392 -165 394 -163 397 -163 c 0
 401 -163 403 -164 403 -170 c 0
 396 -243 360 -245 339 -245 c 0x5780
 298 -245 291 -219 272 -219 c 0xb780
 244 -219 239 -248 229 -248 c 0
 228 -248 226 -248 225 -247 c 0
 220 -244 216 -237 216 -232 c 0
 216 -231 217 -230 217 -230 c 1
 225 -200 243 -177 269 -160 c 0
 302 -140 338 -107 338 -65 c 0
 338 -51 337 -19 295 -19 c 0
 268 -19 259 -31 258 -37 c 0
 258 -47 291 -48 291 -76 c 0
 291 -88 287 -118 258 -118 c 0
 241 -118 227 -106 220 -92 c 0x9780
24 -142 m 2
 23 -141 23 -139 23 -137 c 0
 23 -133 25 -129 28 -125 c 2
 361 208 l 2
 365 212 369 214 373 214 c 0
 375 214 377 213 378 212 c 2
 399 191 l 2
 400 190 401 188 401 186 c 0
 401 182 399 177 395 174 c 2
 62 -159 l 2
 59 -163 55 -165 51 -165 c 0
 49 -165 47 -164 46 -163 c 2
 24 -142 l 2
19 130 m 0
 19 133 21 136 21 136 c 1
 66 239 l 2
 68 243 70 248 75 248 c 2
 75 248 76 247 77 247 c 0
 84 246 93 246 102 246 c 0
 108 246 119 248 126 248 c 0
 133 247 135 245 135 237 c 2
 135 44 l 2
 135 36 144 27 150 27 c 0
 157 27 157 20 157 20 c 1
 157 20 157 13 150 13 c 2
 50 13 l 2
 44 13 40 15 40 20 c 0
 40 26 44 27 48 27 c 0
 57 27 68 34 68 45 c 2x9f80
 68 166 l 2
 68 169 67 173 65 173 c 2
 65 173 63 171 61 168 c 0
 56 159 35 127 35 127 c 1
 35 127 34 123 29 123 c 0
 28 123 26 123 25 123 c 0
 21 125 19 128 19 130 c 0
EndSplineSet
AlternateSubs2: "'ss09' Style Set 9 lookup 8 subtable" uniF51E
AlternateSubs2: "'ss04' Style Set 4 lookup 3 subtable" uniF4F9
EndChar

StartChar: uniE099
Encoding: 57497 57497 147
Width: 449
GlyphClass: 2
Flags: MW
HStem: -250 20<295 297 297 303.5 295 404> -181 19<252 319 252 319 387 424> -2 20<104 104 104 109> 233 18<90 113.5>
VStem: 18 77<54.5 64.5 54.5 65.5> 21 50<186.5 219> 139 61<191 195 195 201> 141 69<62 69 69 72 46.5 80.5> 285 89<-7.5 -5 -7.5 -5> 319 68<-212 -210 -210 -181 -218 -181 -162 -120 -120 -117>
LayerCount: 2
Fore
SplineSet
104 -2 m 2xfa40
 55 -1 19 15 18 54 c 0
 18 77 31 92 53 98 c 1
 69 98 85 94 93 78 c 0
 95 73 95 67 95 62 c 0
 95 47 84 40 84 29 c 2
 84 26 l 2xfa40
 84 19 94 19 98 18 c 0
 132 18 141 47 141 77 c 0
 141 84 136 123 78 123 c 0
 74 123 65 123 65 129 c 0xf540
 65 135 73 137 78 138 c 0
 109 139 139 154 139 191 c 2
 139 195 l 2
 139 207 135 233 92 233 c 0
 88 233 72 229 71 221 c 2
 71 219 l 2
 71 212 79 213 81 212 c 0
 84 211 96 210 98 191 c 2
 98 187 l 2
 98 170 87 154 64 154 c 2
 62 154 l 2
 31 156 21 178 21 195 c 0
 21 222 64 251 108 251 c 0
 143 251 200 231 200 189 c 0
 200 177 197 165 188 156 c 0
 183 150 176 146 169 143 c 0
 164 140 159 140 153 138 c 0
 152 138 151 136 151 134 c 0
 151 133 151 132 152 131 c 0
 153 129 154 129 157 129 c 2
 173 124 l 1
 184 118 l 2xf640
 189 115 193 111 196 107 c 0
 206 97 210 86 210 72 c 2
 210 69 l 2xf940
 210 24 159 -2 109 -2 c 2
 104 -2 l 2xfa40
226 -181 m 2
 220 -181 216 -177 216 -172 c 0
 216 -171 217 -169 218 -167 c 0
 218 -166 218 -166 218 -165 c 2
 221 -161 l 2
 236 -141 285 -71 285 -9 c 0
 285 -1 292 0 297 0 c 0
 320 0 343 0 366 0 c 0
 370 0 374 -3 374 -7 c 0
 374 -8 373 -8 373 -9 c 0xfa80
 372 -15 292 -128 252 -162 c 1
 319 -162 l 1
 319 -120 l 2
 319 -114 322 -111 324 -109 c 2
 371 -51 l 2
 374 -48 377 -47 381 -47 c 0
 387 -47 387 -51 387 -55 c 2
 387 -162 l 1
 424 -162 l 2
 429 -162 431 -165 431 -171 c 0
 431 -177 429 -181 424 -181 c 2
 387 -181 l 1
 387 -210 l 2
 387 -226 398 -229 403 -229 c 0
 408 -229 414 -232 414 -239 c 0
 414 -246 409 -250 404 -250 c 2
 297 -250 l 2
 290 -250 288 -244 288 -239 c 0
 288 -234 291 -230 299 -230 c 0
 308 -230 319 -226 319 -212 c 2
 319 -181 l 1
 226 -181 l 2
36 -163 m 2
 35 -162 35 -160 35 -158 c 0
 35 -154 37 -150 40 -146 c 2
 373 187 l 2
 377 191 381 193 385 193 c 0
 387 193 389 192 390 191 c 2
 411 170 l 2
 412 169 413 167 413 165 c 0
 413 161 411 156 407 153 c 2
 74 -180 l 2
 71 -184 67 -186 63 -186 c 0
 61 -186 59 -185 58 -184 c 2
 36 -163 l 2
EndSplineSet
AlternateSubs2: "'ss09' Style Set 9 lookup 8 subtable" uniF51F
AlternateSubs2: "'ss04' Style Set 4 lookup 3 subtable" uniF4FA
EndChar

StartChar: uniE09A
Encoding: 57498 57498 148
Width: 441
GlyphClass: 2
Flags: MW
HStem: -250 20<316 321 316 316> -15 18<302 325.5> 15 14<47 50 50 52.5 147 150>
VStem: 21 14<129 138> 68 67<47 168 168 169.5> 230 77<-193.5 -183.5 -193.5 -182.5> 233 50<-61.5 -29> 351 61<-57 -53 -53 -47> 353 69<-186 -179 -179 -176 -201.5 -167.5>
LayerCount: 2
Fore
SplineSet
230 -194 m 0xcc80
 230 -171 243 -156 265 -150 c 1
 281 -150 297 -154 305 -170 c 0
 307 -175 307 -181 307 -186 c 0
 307 -201 296 -208 296 -219 c 2
 296 -222 l 2xcc80
 296 -229 306 -229 310 -230 c 0
 344 -230 353 -201 353 -171 c 0
 353 -164 348 -125 290 -125 c 0
 286 -125 277 -125 277 -119 c 0xca80
 277 -113 285 -111 290 -110 c 0
 321 -109 351 -94 351 -57 c 2
 351 -53 l 2
 351 -41 347 -15 304 -15 c 0
 300 -15 284 -19 283 -27 c 2
 283 -29 l 2
 283 -36 291 -35 293 -36 c 0
 296 -37 308 -38 310 -57 c 2
 310 -61 l 2
 310 -78 299 -94 276 -94 c 2
 274 -94 l 2
 243 -92 233 -70 233 -53 c 0
 233 -26 276 3 320 3 c 0
 356 3 412 -18 412 -60 c 0
 412 -71 409 -83 400 -92 c 0
 395 -98 388 -102 381 -105 c 0
 376 -108 371 -108 365 -110 c 0
 364 -110 363 -112 363 -114 c 0
 363 -115 363 -116 364 -117 c 0
 365 -119 366 -119 369 -120 c 2
 385 -124 l 1
 396 -130 l 2xcb
 401 -133 405 -137 408 -141 c 0
 418 -151 422 -162 422 -176 c 2
 422 -179 l 2
 422 -224 371 -250 321 -250 c 2
 316 -250 l 2
 267 -249 231 -233 230 -194 c 0xcc80
21 -149 m 2
 20 -148 20 -146 20 -144 c 0
 20 -140 22 -136 25 -132 c 2
 358 201 l 2
 362 205 366 207 370 207 c 0
 372 207 374 206 375 205 c 2
 396 184 l 2
 397 183 398 181 398 179 c 0
 398 175 396 170 392 167 c 2
 59 -166 l 2
 56 -170 52 -172 48 -172 c 0
 46 -172 44 -171 43 -170 c 2
 21 -149 l 2
19 132 m 0xfc80
 19 135 21 138 21 138 c 1
 66 241 l 2
 68 245 70 250 75 250 c 2
 75 250 76 249 77 249 c 0
 84 248 93 248 102 248 c 0
 108 248 119 250 126 250 c 0
 133 249 135 247 135 239 c 2
 135 46 l 2
 135 38 144 29 150 29 c 0
 157 29 157 22 157 22 c 1
 157 22 157 15 150 15 c 2
 50 15 l 2
 44 15 40 17 40 22 c 0
 40 28 44 29 48 29 c 0
 57 29 68 36 68 47 c 2
 68 168 l 2
 68 171 67 175 65 175 c 2
 65 175 63 173 61 170 c 0
 56 161 35 129 35 129 c 1
 35 129 34 125 29 125 c 0
 28 125 26 125 25 125 c 0
 21 127 19 130 19 132 c 0xfc80
EndSplineSet
AlternateSubs2: "'ss09' Style Set 9 lookup 8 subtable" uniF520
AlternateSubs2: "'ss04' Style Set 4 lookup 3 subtable" uniF4FB
EndChar

StartChar: uniE09B
Encoding: 57499 57499 149
Width: 446
GlyphClass: 2
Flags: MW
HStem: -250 20<326 326 326 331> -15 18<312 335.5> 14 55<118.5 177.5> 39 47<58 109.5> 239 11<107 116>
VStem: 15 76<183 196 176 201> 138 67<172.5 200.5> 240 77<-193.5 -183.5 -193.5 -182.5> 243 50<-61.5 -29> 361 61<-57 -53 -53 -47> 363 69<-186 -179 -179 -176 -201.5 -167.5>
LayerCount: 2
Fore
SplineSet
326 -250 m 2xcf40
 277 -249 241 -233 240 -194 c 0
 240 -171 253 -156 275 -150 c 1
 291 -150 307 -154 315 -170 c 0
 317 -175 317 -181 317 -186 c 0
 317 -201 306 -208 306 -219 c 2
 306 -222 l 2xcf40
 306 -229 316 -229 320 -230 c 0
 354 -230 363 -201 363 -171 c 0
 363 -164 358 -125 300 -125 c 0
 296 -125 287 -125 287 -119 c 0xcea0
 287 -113 295 -111 300 -110 c 0
 331 -109 361 -94 361 -57 c 2
 361 -53 l 2
 361 -41 357 -15 314 -15 c 0
 310 -15 294 -19 293 -27 c 2
 293 -29 l 2
 293 -36 301 -35 303 -36 c 0
 306 -37 318 -38 320 -57 c 2
 320 -61 l 2
 320 -78 309 -94 286 -94 c 2
 284 -94 l 2
 253 -92 243 -70 243 -53 c 0
 243 -26 286 3 330 3 c 0
 366 3 422 -18 422 -60 c 0
 422 -71 419 -83 410 -92 c 0
 405 -98 398 -102 391 -105 c 0
 386 -108 381 -108 375 -110 c 0
 374 -110 373 -112 373 -114 c 0
 373 -115 373 -116 374 -117 c 0
 375 -119 376 -119 379 -120 c 2
 395 -124 l 1
 406 -130 l 2xcec0
 411 -133 415 -137 418 -141 c 0
 428 -151 432 -162 432 -176 c 2
 432 -179 l 2xcf20
 432 -224 381 -250 331 -250 c 2
 326 -250 l 2xcf40
20 166 m 0
 17 173 15 180 15 186 c 0
 15 216 45 242 73 247 c 0
 85 250 101 250 113 250 c 0
 157 250 205 229 205 179 c 0
 205 158 197 145 185 136 c 0
 170 123 150 119 143 117 c 0
 133 115 93 101 83 84 c 1
 88 85 94 86 100 86 c 0xdf40
 119 86 141 79 151 75 c 0
 157 72 166 69 173 69 c 0
 182 69 186 78 191 89 c 0
 192 93 194 95 197 95 c 0
 201 95 203 94 203 88 c 0
 196 16 160 14 139 14 c 0xef40
 98 14 91 39 72 39 c 0
 44 39 39 10 29 10 c 0
 28 10 26 10 25 11 c 0
 17 17 17 21 17 29 c 0
 25 58 43 81 69 98 c 0xdf40
 103 119 138 151 138 194 c 0
 138 207 137 239 95 239 c 0
 68 239 59 227 58 221 c 0
 58 211 91 210 91 182 c 0
 91 170 87 140 58 140 c 0
 41 140 27 152 20 166 c 0
29 -157 m 0
 29 -153 31 -149 34 -145 c 2
 367 188 l 2
 371 192 375 194 379 194 c 0
 381 194 383 193 384 192 c 2
 405 171 l 2
 406 170 407 168 407 166 c 0
 407 162 405 157 401 154 c 2
 68 -179 l 2
 65 -183 61 -185 57 -185 c 0
 55 -185 53 -184 52 -183 c 2
 30 -162 l 2
 29 -161 29 -159 29 -157 c 0
EndSplineSet
AlternateSubs2: "'ss09' Style Set 9 lookup 8 subtable" uniF521
AlternateSubs2: "'ss04' Style Set 4 lookup 3 subtable" uniF4FC
EndChar

StartChar: uniE09C
Encoding: 57500 57500 150
Width: 405
GlyphClass: 2
Flags: MW
HStem: -377 752<0 73 0 73 332 405 0 332>
VStem: 0 405<-377 -377>
LayerCount: 2
Fore
SplineSet
0 375 m 1
 73 375 l 1
 202 72 l 1
 332 375 l 1
 405 375 l 1
 238 0 l 1
 405 -377 l 1
 332 -377 l 1
 202 -72 l 1
 73 -377 l 1
 0 -377 l 1
 167 0 l 1
 0 375 l 1
EndSplineSet
AlternateSubs2: "'ss09' Style Set 9 lookup 8 subtable" uniF522
AlternateSubs2: "'ss04' Style Set 4 lookup 3 subtable" uniF4FD
EndChar

StartChar: uniE09D
Encoding: 57501 57501 151
Width: 845
GlyphClass: 2
Flags: MW
HStem: -248 99<638.5 696.5> 117 133<173 248.5>
VStem: -1 50<-139.5 1 1 10 -139.5 84> 796 50<-48.5 1 1 101>
LayerCount: 2
Fore
SplineSet
-1 1 m 2
 -1 167 115 250 231 250 c 0
 348 250 448 167 481 34 c 1
 547 -115 597 -149 680 -149 c 0
 747 -149 796 -98 796 1 c 0
 796 201 813 201 813 201 c 1
 830 201 846 201 846 167 c 2
 846 1 l 2
 846 -149 763 -248 630 -248 c 0
 481 -248 414 -149 364 -48 c 1
 332 51 298 117 199 117 c 0
 132 117 49 68 49 -48 c 0
 49 -231 32 -231 32 -231 c 1
 16 -231 -1 -231 -1 -198 c 2
 -1 1 l 2
EndSplineSet
AlternateSubs2: "'ss09' Style Set 9 lookup 8 subtable" uniF523
AlternateSubs2: "'ss04' Style Set 4 lookup 3 subtable" uniF4FE
EndChar

StartChar: uniE0A0
Encoding: 57504 57504 154
Width: 599
GlyphClass: 2
Flags: MW
HStem: -125 24<305 348 305 375> 1 21G<509 509 509 509> 102 23<254.5 312>
VStem: 0 31<-148 147> 57 32<-148 147> 90 107<24 35.5> 401 108<-55.5 -1> 509 33<-148 1 -33.5 1 1 147> 566 33<-148 147>
LayerCount: 2
Fore
SplineSet
294 -125 m 0xfd80
 146 -125 90 -64 90 1 c 0
 90 70 172 125 304 125 c 0
 397 125 509 72 509 1 c 1
 509 147 l 2
 509 151 514 155 519 155 c 2
 532 155 l 2
 537 155 542 151 542 147 c 2
 542 -148 l 2
 542 -152 537 -155 532 -155 c 2
 519 -155 l 2
 514 -155 509 -152 509 -148 c 2
 509 1 l 1
 509 -68 456 -125 294 -125 c 0xfd80
197 40 m 0
 197 8 212 -26 230 -49 c 0
 256 -78 284 -101 326 -101 c 0
 370 -101 401 -80 401 -31 c 0xfe80
 401 29 346 102 278 102 c 0
 231 102 197 91 197 40 c 0
566 -148 m 2
 566 147 l 2
 566 151 572 155 576 155 c 2
 589 155 l 2
 595 155 599 151 599 147 c 2
 599 -148 l 2
 599 -152 595 -155 589 -155 c 2
 576 -155 l 2
 572 -155 566 -152 566 -148 c 2
57 147 m 2
 57 151 61 155 67 155 c 2
 79 155 l 2
 84 155 89 151 89 147 c 2
 89 -148 l 2
 89 -152 84 -155 79 -155 c 2
 67 -155 l 2
 61 -155 57 -152 57 -148 c 2
 57 147 l 2
9 -155 m 2
 3 -155 0 -152 0 -148 c 2
 0 147 l 2
 0 151 3 155 9 155 c 2
 22 155 l 2
 27 155 31 151 31 147 c 2
 31 -148 l 2
 31 -152 27 -155 22 -155 c 2
 9 -155 l 2
EndSplineSet
AlternateSubs2: "'salt' Stylistic Alternatives lookup 10 subtable" uniF43F
AlternateSubs2: "'ss05' Style Set 5 lookup 4 subtable" uniF4BA
AlternateSubs2: "'ss01' Style Set 1 lookup 0 subtable" uniF467
EndChar

StartChar: uniE0A1
Encoding: 57505 57505 155
Width: 416
GlyphClass: 2
Flags: MW
HStem: -125 78<41.5 338 81 338 338 354 81 367> 49 76<58.5 77 77 338>
VStem: 0 25<-177 -148 -24.5 -15 -15 16 141 149 149 186> 391 25<-177 -145 -145 -140.5 -15 21 21 29 151 186>
LayerCount: 2
Fore
SplineSet
0 186 m 2
 0 193 5 198 12 198 c 0
 19 198 25 193 25 186 c 2
 25 149 l 2
 25 133 36 125 43 125 c 2
 367 125 l 2
 378 125 391 133 391 151 c 2
 391 186 l 2
 391 193 396 198 403 198 c 0
 410 198 416 193 416 186 c 2
 416 -177 l 2
 416 -183 410 -190 403 -190 c 0
 396 -190 391 -183 391 -177 c 2
 391 -145 l 2
 391 -136 381 -125 367 -125 c 2
 46 -125 l 2
 37 -125 25 -137 25 -148 c 2
 25 -177 l 2
 25 -183 19 -190 12 -190 c 0
 5 -190 0 -183 0 -177 c 2
 0 186 l 2
25 16 m 2
 25 -15 l 2
 25 -34 46 -47 81 -47 c 2
 338 -47 l 2
 370 -47 391 -37 391 -15 c 2
 391 21 l 2
 391 37 370 49 338 49 c 2
 77 49 l 2
 40 49 25 38 25 16 c 2
EndSplineSet
AlternateSubs2: "'ss05' Style Set 5 lookup 4 subtable" uniF4BB
EndChar

StartChar: uniE0A2
Encoding: 57506 57506 156
Width: 422
GlyphClass: 2
Flags: MW
HStem: -125 23<219 242 219 288> 103 22<174.5 224.5>
VStem: 0 108<23 36> 314 108<-33 -1>
LayerCount: 2
Fore
SplineSet
0 2 m 0
 0 70 83 125 216 125 c 0
 309 125 422 73 422 2 c 0
 422 -68 370 -125 206 -125 c 0
 57 -125 0 -65 0 2 c 0
108 39 m 0
 108 7 123 -27 143 -50 c 0
 164 -78 201 -102 237 -102 c 0
 247 -102 258 -101 268 -98 c 0
 301 -90 314 -62 314 -31 c 0
 314 29 259 103 190 103 c 0
 159 103 122 98 111 63 c 0
 109 55 108 47 108 39 c 0
EndSplineSet
AlternateSubs2: "'ss05' Style Set 5 lookup 4 subtable" uniF4BC
AlternateSubs2: "'ss01' Style Set 1 lookup 0 subtable" uniF468
EndChar

StartChar: uniE0A3
Encoding: 57507 57507 157
Width: 295
GlyphClass: 2
Flags: MW
HStem: -125 38<69.5 99 64.5 179.5> 84 41<197.5 225 121.5 230.5>
VStem: 0 29<-47.5 -19.5 -47.5 -16> 264 31<25.5 47.5>
LayerCount: 2
Fore
SplineSet
97 -125 m 0
 42 -125 0 -95 0 -42 c 0
 0 10 47 125 196 125 c 0
 254 125 295 93 295 42 c 0
 295 9 262 -125 97 -125 c 0
29 -44 m 0
 29 -51 32 -58 35 -64 c 0
 42 -76 54 -87 75 -87 c 0
 123 -87 264 1 264 44 c 0
 264 51 261 57 258 63 c 0
 251 75 240 84 221 84 c 0
 174 84 29 5 29 -44 c 0
EndSplineSet
AlternateSubs2: "'ss05' Style Set 5 lookup 4 subtable" uniF4BD
AlternateSubs2: "'ss01' Style Set 1 lookup 0 subtable" uniF469
EndChar

StartChar: uniE0A4
Encoding: 57508 57508 158
Width: 295
GlyphClass: 2
Flags: MW
HStem: -125 250<70 226.5>
VStem: 0 295<-0.5 1>
LayerCount: 2
Fore
SplineSet
0 -42 m 0
 0 44 88 125 198 125 c 0
 255 125 295 93 295 42 c 0
 295 -43 186 -125 97 -125 c 0
 43 -125 0 -94 0 -42 c 0
EndSplineSet
AlternateSubs2: "'ss05' Style Set 5 lookup 4 subtable" uniF4BE
AlternateSubs2: "'ss01' Style Set 1 lookup 0 subtable" uniF46A
EndChar

StartChar: uniE0A6
Encoding: 57510 57510 160
Width: 546
GlyphClass: 2
Flags: MW
HStem: -125 27<144 192 144 194 352 401> 0 21G<185 185 253 253 292 292 360 360> 0 155 98 27<144 192 144 144 352 401 352 352>
VStem: 0 30<-149 148> 57 30<-149 -113 -91 91 113 148> 458 31<-149 -113 -113 -113 -92 92 92 92 113 148> 514 32<-149 148>
LayerCount: 2
Fore
SplineSet
65 -155 m 2xaf
 60 -155 57 -152 57 -149 c 2
 57 148 l 2
 57 151 60 155 65 155 c 2
 78 155 l 2xaf
 82 155 87 151 87 148 c 2
 87 113 l 1
 90 120 98 125 105 125 c 2
 194 125 l 2
 199 125 204 123 208 120 c 2
 273 66 l 1
 336 120 l 2
 340 123 346 125 351 125 c 2
 440 125 l 2xdf
 448 125 455 120 458 113 c 1
 458 148 l 2
 458 151 463 155 467 155 c 2
 481 155 l 2
 485 155 489 151 489 148 c 2
 489 -149 l 2
 489 -152 485 -155 481 -155 c 2
 467 -155 l 2
 463 -155 458 -152 458 -149 c 2
 458 -113 l 1
 455 -120 448 -125 439 -125 c 2
 351 -125 l 2
 346 -125 341 -123 337 -119 c 2
 273 -66 l 1
 208 -119 l 2
 204 -123 199 -125 194 -125 c 2
 105 -125 l 2
 97 -125 90 -120 87 -113 c 1
 87 -149 l 2
 87 -152 82 -155 78 -155 c 2
 65 -155 l 2xaf
253 0 m 1
 144 -98 l 1
 192 -98 l 1
 273 -31 l 1
 352 -98 l 1
 401 -98 l 1
 292 0 l 1
 401 98 l 1
 352 98 l 1
 273 31 l 1
 192 98 l 1
 144 98 l 1xdf
 253 0 l 1
514 148 m 2
 514 151 519 155 524 155 c 2
 536 155 l 2xaf
 542 155 546 151 546 148 c 2
 546 -149 l 2
 546 -152 542 -155 536 -155 c 2
 524 -155 l 2
 519 -155 514 -152 514 -149 c 2
 514 148 l 2
9 -155 m 2
 4 -155 0 -152 0 -149 c 2
 0 148 l 2
 0 151 4 155 9 155 c 2
 21 155 l 2
 27 155 30 151 30 148 c 2
 30 -149 l 2
 30 -152 27 -155 21 -155 c 2
 9 -155 l 2
360 0 m 1
 458 -92 l 1
 458 92 l 1
 360 0 l 1
185 0 m 1
 87 91 l 1
 87 -91 l 1
 185 0 l 1
EndSplineSet
EndChar

StartChar: uniE0A7
Encoding: 57511 57511 161
Width: 377
GlyphClass: 2
Flags: MW
HStem: -125 27<61 109 61 110 268 317> 0 21G<92 92 170 170 208 208 286 286> 98 27<61 109 61 61 268 317 268 268>
VStem: 0 377<-108.5 108.5>
LayerCount: 2
Fore
SplineSet
0 103 m 0
 0 114 11 125 21 125 c 2
 110 125 l 2
 115 125 120 123 124 119 c 2
 189 65 l 1
 253 119 l 2
 257 123 262 125 267 125 c 2
 356 125 l 2
 367 125 376 114 376 103 c 0
 376 97 374 91 369 86 c 2
 286 0 l 1
 369 -86 l 2
 374 -91 377 -97 377 -103 c 0
 377 -114 367 -125 355 -125 c 2
 267 -125 l 2
 262 -125 257 -123 253 -119 c 2
 189 -66 l 1
 124 -119 l 2
 120 -123 115 -125 110 -125 c 2
 22 -125 l 2
 10 -125 1 -114 1 -103 c 0
 1 -97 3 -91 8 -86 c 2
 92 0 l 1
 8 86 l 2
 3 91 0 97 0 103 c 0
170 0 m 1
 61 -98 l 1
 109 -98 l 1
 189 -31 l 1
 268 -98 l 1
 317 -98 l 1
 208 0 l 1
 317 98 l 1
 268 98 l 1
 189 31 l 1
 109 98 l 1
 61 98 l 1
 170 0 l 1
EndSplineSet
EndChar

StartChar: uniE0A8
Encoding: 57512 57512 162
Width: 334
GlyphClass: 2
Flags: MW
HStem: -125 22<49 102 49 128 267 309> -15 21G<237 237> -4 21G<190 190> 103 22<25 66 25 66 232 232 232 285>
VStem: 3 22<103 103 103 108.5>
LayerCount: 2
Fore
SplineSet
22 -125 m 2
 10 -125 0 -115 0 -103 c 0
 0 -96 2 -91 5 -88 c 2
 97 15 l 1
 10 86 l 2
 5 92 3 97 3 103 c 0
 3 114 13 125 25 125 c 2
 66 125 l 2
 72 125 76 123 80 119 c 2
 145 68 l 1
 188 118 l 2
 193 123 199 125 205 125 c 2
 311 125 l 2
 325 125 334 115 334 103 c 0
 334 96 333 91 329 88 c 2
 237 -15 l 1
 323 -87 l 2
 329 -91 332 -96 332 -102 c 0
 332 -113 320 -125 309 -125 c 2
 267 -125 l 2
 262 -125 257 -122 252 -119 c 2
 188 -69 l 1
 145 -118 l 2
 141 -123 134 -125 128 -125 c 2
 22 -125 l 2
66 103 m 1
 25 103 l 1
 143 3 l 1
 49 -103 l 1
 102 -103 l 1
 172 -24 l 1
 267 -103 l 1
 309 -103 l 1
 190 -4 l 1
 285 103 l 1
 232 103 l 1
 162 23 l 1
 66 103 l 1
EndSplineSet
EndChar

StartChar: uniE0A9
Encoding: 57513 57513 163
Width: 290
GlyphClass: 2
Flags: MW
HStem: -17 21G<144 144> 0 21G<124 124 166 166>
VStem: 0 290<-114 -108.5 -114 -108 110 115>
LayerCount: 2
Fore
SplineSet
0 -110 m 0x60
 0 -106 1 -102 5 -99 c 2
 124 0 l 1
 5 100 l 2
 2 103 0 108 0 112 c 0
 0 118 5 125 12 125 c 0
 15 125 18 124 20 123 c 2
 144 18 l 1
 270 123 l 2
 272 124 275 125 277 125 c 0
 283 125 290 119 290 111 c 0
 290 107 288 102 285 100 c 2
 166 0 l 1
 285 -99 l 2x60
 288 -102 290 -106 290 -111 c 0
 290 -117 285 -125 277 -125 c 0
 275 -125 272 -124 270 -122 c 2
 144 -17 l 1xa0
 20 -122 l 2
 18 -124 16 -125 13 -125 c 0
 5 -125 0 -118 0 -110 c 0x60
EndSplineSet
EndChar

StartChar: uniE0AA
Encoding: 57514 57514 164
Width: 248
GlyphClass: 2
Flags: MW
HStem: -126 93<48 52.5 193.5 200 200 208.5> -32 65<117 129.5> 33 93<38.5 49 37.5 130 200 210>
VStem: 0 90<-86 -77.5 -86 -69 80 88.5> 104 39<-3.5 4.5> 157 90<-87 -78 80 89>
CounterMasks: 1 1c
LayerCount: 2
Fore
SplineSet
0 -78 m 0xb4
 0 -60 2 -43 5 -40 c 0xb4
 11 -35 30 -33 48 -33 c 2
 58 -33 l 1
 72 -28 104 -12 104 1 c 0
 104 8 68 28 57 34 c 0
 54 34 51 33 47 33 c 0xbc
 30 33 12 37 5 43 c 0
 2 46 0 64 0 82 c 0
 0 100 2 117 5 119 c 0
 11 124 29 126 46 126 c 0
 62 126 78 124 82 119 c 0xb4
 87 115 90 97 90 80 c 1
 94 66 110 33 124 33 c 0
 136 33 152 69 157 80 c 1x54
 157 98 158 116 162 119 c 0
 167 124 185 126 203 126 c 0
 244 126 247 120 247 79 c 0
 247 63 245 48 240 43 c 0
 233 37 218 33 202 33 c 0xb4
 198 33 194 34 190 34 c 0
 176 29 143 14 143 0 c 0
 143 -7 179 -27 190 -33 c 1
 200 -33 l 2xbc
 217 -33 235 -35 240 -40 c 0
 244 -45 247 -63 247 -80 c 0
 247 -116 240 -126 202 -126 c 0
 185 -126 169 -122 162 -116 c 0xb4
 158 -113 157 -96 157 -78 c 1
 153 -64 136 -32 123 -32 c 0
 110 -32 98 -60 92 -74 c 0
 91 -75 90 -77 90 -78 c 0x54
 90 -94 88 -111 82 -116 c 0
 76 -123 60 -126 45 -126 c 0
 28 -126 12 -122 5 -116 c 0
 2 -114 0 -96 0 -78 c 0xb4
EndSplineSet
EndChar

StartChar: uniE0AB
Encoding: 57515 57515 165
Width: 250
GlyphClass: 2
Flags: MW
HStem: -169 24<102 145.5 102 180.5> -126 93<49 53.5 194.5 201 201 207.5> 117 9 145 24<101.5 147.5>
VStem: -67 24<-21.5 27 -21.5 60.5> 1 16 1 90<-86 -77.5 -86 -69 80 88.5> 105 39<-3.5 4.5> 158 90<-87 -80 -94 -78 80 86.5> 232 16 292 24<-25.5 27.5>
LayerCount: 2
Fore
SplineSet
-67 0 m 0xfda0
 -67 121 7 169 125 169 c 0
 240 169 316 125 316 0 c 0
 316 -120 236 -169 125 -169 c 0
 12 -169 -67 -123 -67 0 c 0xfda0
144 0 m 0
 144 -7 180 -27 191 -33 c 1
 201 -33 l 2
 218 -33 236 -35 241 -40 c 0
 245 -45 248 -63 248 -80 c 2
 248 -90 l 2
 248 -98 248 -107 244 -113 c 1
 276 -88 292 -51 292 0 c 0
 292 55 276 93 243 117 c 1
 246 110 248 94 248 79 c 0
 248 63 246 48 241 43 c 0
 234 37 219 33 203 33 c 0
 199 33 195 34 191 34 c 0
 177 29 144 14 144 0 c 0
4 115 m 1
 -27 92 -43 54 -43 0 c 0
 -43 -43 -32 -85 5 -115 c 1
 3 -110 1 -94 1 -78 c 0
 1 -60 3 -43 6 -40 c 0
 12 -35 31 -33 49 -33 c 2
 59 -33 l 1
 73 -28 105 -12 105 1 c 0
 105 8 69 28 58 34 c 0
 55 34 52 33 48 33 c 0
 31 33 13 37 6 43 c 0
 3 46 1 64 1 82 c 0
 1 96 3 109 4 115 c 1
15 -121 m 1
 42 -137 79 -145 125 -145 c 0
 166 -145 201 -138 227 -123 c 1
 220 -125 212 -126 203 -126 c 0
 186 -126 170 -122 163 -116 c 0
 159 -113 158 -96 158 -78 c 1
 154 -64 137 -32 124 -32 c 0
 111 -32 99 -60 93 -74 c 0
 92 -75 91 -77 91 -78 c 0xfba0
 91 -94 89 -111 83 -116 c 0
 77 -123 61 -126 46 -126 c 0
 34 -126 23 -124 15 -121 c 1
17 123 m 1xfd60
 25 125 36 126 47 126 c 0
 63 126 79 124 83 119 c 0
 88 115 91 97 91 80 c 1
 95 66 111 33 125 33 c 0
 137 33 153 69 158 80 c 1xfba0
 158 98 159 116 163 119 c 0
 168 124 186 126 204 126 c 0
 215 126 224 125 232 123 c 1
 205 138 170 145 125 145 c 0
 78 145 43 137 17 123 c 1xfd60
EndSplineSet
EndChar

StartChar: uniE0AC
Encoding: 57516 57516 166
Width: 473
GlyphClass: 2
Flags: MW
HStem: -125 19<201.5 250 222 250 222 268> 106 19<222 250 222 222>
VStem: 0 28<-150 149> 52 27<-150 149> 93 62<-13 14 -13 24 -13 27.5> 188 29 192 26 254 30 318 61<-13 14 14 14> 394 28<-150 149> 444 29<-150 149>
LayerCount: 2
Fore
SplineSet
93 24 m 2xfde0
 93 31 99 36 105 37 c 2
 185 52 l 1
 192 113 l 2
 193 120 199 125 205 125 c 2
 268 125 l 2
 275 125 280 119 281 113 c 2
 287 52 l 1
 369 37 l 2
 375 36 379 30 379 24 c 2
 379 -23 l 2
 379 -30 374 -35 369 -36 c 2
 287 -51 l 1
 281 -114 l 2
 280 -120 274 -125 268 -125 c 2
 205 -125 l 2
 198 -125 192 -120 192 -114 c 2xfbe0
 185 -51 l 1
 105 -36 l 2
 98 -35 93 -29 93 -23 c 2
 93 24 l 2xfde0
214 31 m 1
 155 14 l 1
 155 -13 l 1
 214 -30 l 1
 222 -106 l 1
 250 -106 l 1
 258 -30 l 1
 318 -13 l 1
 318 14 l 1
 258 31 l 1
 250 106 l 1
 222 106 l 1
 214 31 l 1
444 -150 m 2
 444 149 l 2
 444 152 449 155 453 155 c 2
 464 155 l 2
 469 155 473 152 473 149 c 2
 473 -150 l 2
 473 -153 469 -155 464 -155 c 2
 453 -155 l 2
 449 -155 444 -153 444 -150 c 2
8 -155 m 2
 3 -155 0 -153 0 -150 c 2
 0 149 l 2
 0 152 3 155 8 155 c 2
 20 155 l 2
 25 155 28 152 28 149 c 2
 28 -150 l 2
 28 -153 25 -155 20 -155 c 2
 8 -155 l 2
394 -150 m 2
 394 149 l 2
 394 152 398 155 402 155 c 2
 414 155 l 2
 418 155 422 152 422 149 c 2
 422 -150 l 2
 422 -153 418 -155 414 -155 c 2
 402 -155 l 2
 398 -155 394 -153 394 -150 c 2
52 -150 m 2
 52 149 l 2
 52 152 55 155 60 155 c 2
 71 155 l 2
 75 155 79 152 79 149 c 2
 79 -150 l 2
 79 -153 75 -155 71 -155 c 2
 60 -155 l 2
 55 -155 52 -153 52 -150 c 2
EndSplineSet
EndChar

StartChar: uniE0AD
Encoding: 57517 57517 167
Width: 285
GlyphClass: 2
Flags: MW
HStem: -125 19<108 157 129 157 129 174> 106 19<129 157 129 129>
VStem: 0 62<-13 14 -13 25 -13 28> 95 30 161 29 225 60<-13 14 14 14>
LayerCount: 2
Fore
SplineSet
10 -36 m 2
 4 -36 0 -29 0 -24 c 2
 0 25 l 2
 0 31 5 36 10 37 c 2
 92 51 l 1
 98 112 l 2
 99 120 105 125 111 125 c 2
 174 125 l 2
 180 125 186 119 187 112 c 2
 194 51 l 1
 275 37 l 2
 281 36 285 30 285 24 c 2
 285 -24 l 2
 285 -30 280 -36 275 -36 c 2
 193 -51 l 1
 187 -114 l 2
 186 -120 180 -125 174 -125 c 2
 111 -125 l 2
 105 -125 99 -121 98 -114 c 2
 91 -51 l 1
 10 -36 l 2
62 14 m 1
 62 -13 l 1
 121 -30 l 1
 129 -106 l 1
 157 -106 l 1
 165 -30 l 1
 225 -13 l 1
 225 14 l 1
 165 30 l 1
 157 106 l 1
 129 106 l 1
 121 30 l 1
 62 14 l 1
EndSplineSet
EndChar

StartChar: uniE0AE
Encoding: 57518 57518 168
Width: 261
GlyphClass: 2
Flags: MW
HStem: -125 26<98.5 136 122 136 136 138.5 122 156> -41 16 21 15<230 251> 98 27<120 122 122 136>
VStem: 0 24<-14 -12 -12 11 -14 26> 89 24<-115 -91 -93 -91 -93 -84.5> 238 23<-12 11 11 13.5>
LayerCount: 2
Fore
SplineSet
0 26 m 2
 0 33 6 38 11 39 c 0
 58 58 75 67 92 114 c 0
 93 120 100 125 106 125 c 2
 152 125 l 2
 159 125 165 119 165 114 c 0
 165 58 191 36 243 36 c 2
 251 36 l 2
 257 35 261 28 261 23 c 2
 261 -23 l 2
 261 -30 256 -36 251 -37 c 0
 202 -55 187 -66 169 -115 c 0
 168 -121 161 -125 156 -125 c 2
 102 -125 l 2
 95 -125 89 -120 89 -115 c 2
 89 -108 l 2
 89 -61 64 -41 18 -41 c 2
 11 -41 l 2
 5 -40 0 -33 0 -27 c 2
 0 26 l 2
24 11 m 2
 24 -12 l 2
 24 -16 27 -20 32 -21 c 2
 92 -29 l 2
 97 -30 101 -33 102 -38 c 2
 113 -91 l 2
 113 -95 118 -99 122 -99 c 2
 136 -99 l 2
 141 -99 145 -95 146 -91 c 2
 154 -38 l 2
 155 -33 160 -28 166 -28 c 2
 230 -21 l 2
 235 -20 238 -16 238 -12 c 2
 238 11 l 2
 238 16 233 21 230 21 c 2
 166 29 l 2
 161 30 157 31 156 37 c 2
 146 90 l 2
 145 95 141 98 136 98 c 2
 122 98 l 2
 118 98 113 95 113 90 c 2
 104 37 l 2
 103 31 98 28 92 27 c 2
 33 21 l 2
 27 20 24 16 24 11 c 2
EndSplineSet
EndChar

StartChar: uniE0AF
Encoding: 57519 57519 169
Width: 249
GlyphClass: 2
Flags: MW
HStem: -14 28<9 110 13 110 138 235>
VStem: 110 28<-111 -14 14 111>
LayerCount: 2
Fore
SplineSet
-1 0 m 0
 -1 8 5 14 13 14 c 2
 110 14 l 1
 110 111 l 2
 110 119 116 125 124 125 c 0
 131 125 138 119 138 111 c 2
 138 14 l 1
 235 14 l 2
 242 14 249 8 249 0 c 0
 249 -8 242 -14 235 -14 c 2
 138 -14 l 1
 138 -111 l 2
 138 -119 131 -125 124 -125 c 0
 116 -125 110 -119 110 -111 c 2
 110 -14 l 1
 13 -14 l 2
 5 -14 -1 -8 -1 0 c 0
EndSplineSet
EndChar

StartChar: uniE0B0
Encoding: 57520 57520 170
Width: 422
GlyphClass: 2
Flags: MW
HStem: -125 29<200.5 222 200.5 246> -19 21G<212 212> 1 21G<193 212 212 232> 1 154 97 28<201 222>
VStem: 0 31<-149 148> 56 30<-149 148> 88 62<-10.5 11.5 -10.5 35> 270 65<-76 35 -10.5 8> 336 31<-149 148> 391 31<-149 148>
LayerCount: 2
Fore
SplineSet
88 0 m 0xefe0
 88 70 143 125 211 125 c 0
 281 125 335 70 335 0 c 0
 335 -69 281 -125 211 -125 c 0
 143 -125 88 -69 88 0 c 0xefe0
0 148 m 2
 0 152 4 155 9 155 c 2
 21 155 l 2xd7e0
 26 155 31 152 31 148 c 2
 31 -149 l 2
 31 -152 26 -155 21 -155 c 2
 9 -155 l 2
 4 -155 0 -152 0 -149 c 2
 0 148 l 2
336 -149 m 2
 336 148 l 2
 336 152 341 155 345 155 c 2
 358 155 l 2
 363 155 367 152 367 148 c 2
 367 -149 l 2
 367 -152 363 -155 358 -155 c 2
 345 -155 l 2
 341 -155 336 -152 336 -149 c 2
400 -155 m 2
 396 -155 391 -152 391 -149 c 2
 391 148 l 2
 391 152 396 155 400 155 c 2
 413 155 l 2
 418 155 422 152 422 148 c 2
 422 -149 l 2
 422 -152 418 -155 413 -155 c 2
 400 -155 l 2
56 148 m 2
 56 152 60 155 65 155 c 2
 77 155 l 2
 82 155 86 152 86 148 c 2
 86 -149 l 2
 86 -152 82 -155 77 -155 c 2
 65 -155 l 2
 60 -155 56 -152 56 -149 c 2
 56 148 l 2
212 -19 m 1
 154 -76 l 1
 171 -89 190 -96 211 -96 c 0
 233 -96 253 -89 270 -76 c 1
 212 -19 l 1
156 78 m 1
 212 22 l 1
 269 78 l 1
 253 90 233 97 211 97 c 0xefe0
 191 97 172 90 156 78 c 1
150 0 m 0
 150 -21 138 -41 134 -57 c 1
 193 1 l 1
 135 59 l 1
 141 35 150 23 150 0 c 0
232 1 m 1
 290 -56 l 1
 284 -42 270 -21 270 0 c 0
 270 16 279 35 290 58 c 1
 232 1 l 1
EndSplineSet
EndChar

StartChar: uniE0B1
Encoding: 57521 57521 171
Width: 249
GlyphClass: 2
Flags: MW
HStem: -125 29<113.5 135 113.5 158.5> -19 21G<125 125> 1 21G<105 125 125 145> 97 28<114 135>
VStem: 0 60<-10.5 11.5 -10.5 35> 187 62<-9 11>
LayerCount: 2
Fore
SplineSet
0 0 m 0xbc
 0 70 56 125 124 125 c 0
 193 125 249 70 249 0 c 0
 249 -69 193 -125 124 -125 c 0
 56 -125 0 -69 0 0 c 0xbc
67 -77 m 1xdc
 83 -89 103 -96 124 -96 c 0
 146 -96 166 -89 183 -77 c 1
 125 -19 l 1
 67 -77 l 1xdc
69 78 m 1
 125 22 l 1xbc
 182 78 l 1
 165 90 146 97 124 97 c 0
 104 97 84 90 69 78 c 1
60 0 m 0xdc
 60 -21 51 -41 47 -57 c 1
 105 1 l 1
 47 59 l 1
 54 35 60 23 60 0 c 0xdc
145 1 m 1xbc
 202 -55 l 1
 196 -40 187 -18 187 0 c 0
 187 22 192 35 202 58 c 1
 145 1 l 1xbc
EndSplineSet
EndChar

StartChar: uniE0B2
Encoding: 57522 57522 172
Width: 250
GlyphClass: 2
Flags: MW
HStem: -125 39<91 108 91 158.5> -4 21G<101 101> 86 39<142 158.5>
VStem: 0 39<-34.5 -17.5 -34.5 35> 211 39<18 34.5>
LayerCount: 2
Fore
SplineSet
124 -125 m 0
 56 -125 0 -69 0 0 c 0
 0 70 56 125 124 125 c 0
 193 125 250 70 250 0 c 0
 250 -69 193 -125 124 -125 c 0
67 -77 m 1
 76 -84 85 -86 97 -86 c 0
 119 -86 143 -75 160 -62 c 1
 121 -23 l 1
 67 -77 l 1
39 -29 m 0
 39 -40 41 -49 47 -57 c 1
 101 -4 l 1
 62 36 l 1
 50 19 39 -6 39 -29 c 0
149 5 m 1
 188 -34 l 1
 200 -18 211 7 211 29 c 0
 211 40 208 49 202 58 c 1
 149 5 l 1
153 86 m 0
 131 86 106 76 91 64 c 1
 129 26 l 1
 182 78 l 1
 173 84 164 86 153 86 c 0
EndSplineSet
EndChar

StartChar: uniE0B3
Encoding: 57523 57523 173
Width: 249
GlyphClass: 2
Flags: MW
HStem: -125 29<113.5 135 113.5 158.5> -19 21G<125 125> 1 21G<105 105 145 145> 96 29<113.5 135>
VStem: 0 28<-10.5 11 -10.5 34.5> 220 29<-10.5 10.5>
LayerCount: 2
Fore
SplineSet
0 0 m 0xbc
 0 69 56 125 124 125 c 0
 193 125 249 69 249 0 c 0
 249 -69 193 -125 124 -125 c 0
 56 -125 0 -69 0 0 c 0xbc
48 58 m 1xdc
 35 42 28 22 28 0 c 0
 28 -21 34 -42 47 -58 c 1
 105 1 l 1
 48 58 l 1xdc
125 -19 m 1
 66 -77 l 1
 83 -89 103 -96 124 -96 c 0
 146 -96 166 -89 182 -77 c 1
 125 -19 l 1
145 1 m 1xbc
 203 -57 l 1
 214 -41 220 -21 220 0 c 0
 220 21 213 42 202 58 c 1
 145 1 l 1xbc
124 96 m 0
 103 96 84 89 68 78 c 1
 125 21 l 1
 181 78 l 1
 165 89 146 96 124 96 c 0
EndSplineSet
EndChar

StartChar: uniE0B4
Encoding: 57524 57524 174
Width: 597
GlyphClass: 2
Flags: MW
HStem: -125 23<320.5 330 320.5 373.5> -18 21G<305 305> 0 21G<328 328> 101 24<271.5 293>
VStem: 0 31<-148 147> 57 31<-148 147> 89 106<23 34> 399 108<-34.5 -21.5> 508 31<-148 147> 564 33<-148 147>
LayerCount: 2
Fore
SplineSet
89 0 m 0
 89 68 171 125 302 125 c 0
 395 125 507 71 507 0 c 0
 507 -69 455 -125 292 -125 c 0
 146 -125 89 -65 89 0 c 0
564 -148 m 2
 564 147 l 2
 564 150 570 154 575 154 c 2
 587 154 l 2
 593 154 597 150 597 147 c 2
 597 -148 l 2
 597 -151 593 -154 587 -154 c 2
 575 -154 l 2
 570 -154 564 -151 564 -148 c 2
508 147 m 2
 508 150 512 154 517 154 c 2
 530 154 l 2
 535 154 539 150 539 147 c 2
 539 -148 l 2
 539 -151 535 -154 530 -154 c 2
 517 -154 l 2
 512 -154 508 -151 508 -148 c 2
 508 147 l 2
0 147 m 2
 0 150 4 154 9 154 c 2
 22 154 l 2
 27 154 31 150 31 147 c 2
 31 -148 l 2
 31 -151 27 -154 22 -154 c 2
 9 -154 l 2
 4 -154 0 -151 0 -148 c 2
 0 147 l 2
57 147 m 2
 57 150 61 154 66 154 c 2
 79 154 l 2
 83 154 88 150 88 147 c 2
 88 -148 l 2
 88 -151 83 -154 79 -154 c 2
 66 -154 l 2
 61 -154 57 -151 57 -148 c 2
 57 147 l 2
199 62 m 0
 196 53 195 45 195 37 c 0
 195 9 208 -20 224 -43 c 1
 286 4 l 1
 215 85 l 1
 208 80 203 72 199 62 c 0
305 -18 m 1
 243 -65 l 1
 252 -72 l 2
 265 -84 281 -93 298 -99 c 0
 307 -101 316 -102 325 -102 c 0
 335 -102 345 -101 355 -99 c 2
 369 -93 l 1
 305 -18 l 1
277 101 m 0
 266 101 253 100 243 98 c 1
 308 22 l 1
 360 62 l 1
 338 85 309 101 277 101 c 0
377 38 m 1
 328 0 l 1
 389 -72 l 1
 393 -66 395 -59 397 -50 c 0
 398 -44 399 -39 399 -33 c 0
 399 -10 391 15 377 38 c 1
EndSplineSet
EndChar

StartChar: uniE0B5
Encoding: 57525 57525 175
Width: 420
GlyphClass: 2
Flags: MW
HStem: -125 23<223 242 223 287> -17 21G<217 217> 0 21G<240 240> 102 23<183.5 205.5>
VStem: 0 106<23 35> 312 108<-33.5 -20>
LayerCount: 2
Fore
SplineSet
0 1 m 0
 0 69 82 125 215 125 c 0
 308 125 420 72 420 1 c 0
 420 -68 369 -125 205 -125 c 0
 56 -125 0 -65 0 1 c 0
106 37 m 0
 106 9 120 -21 136 -43 c 1
 197 5 l 1
 126 87 l 1
 119 81 114 73 111 63 c 0
 108 55 106 46 106 37 c 0
155 -65 m 1
 163 -72 l 2
 184 -90 209 -102 237 -102 c 0
 247 -102 257 -101 267 -98 c 0
 272 -97 277 -95 281 -93 c 1
 217 -17 l 1
 155 -65 l 1
155 99 m 1
 221 23 l 1
 273 62 l 1
 251 86 222 102 189 102 c 0
 178 102 167 101 155 99 c 1
240 0 m 1
 302 -72 l 1
 307 -65 309 -58 310 -50 c 0
 311 -45 312 -38 312 -32 c 0
 312 -8 304 16 290 38 c 1
 240 0 l 1
EndSplineSet
EndChar

StartChar: uniE0B6
Encoding: 57526 57526 176
Width: 294
GlyphClass: 2
Flags: MW
HStem: -125 35<76 93.5 76 179.5> -18 21G<139 139> -2 21G<162 162> 87 38<206 219.5>
VStem: 0 29<-45 -31 -45 -16> 258 36<27 47>
LayerCount: 2
Fore
SplineSet
97 -125 m 0xbc
 42 -125 0 -95 0 -42 c 0
 0 10 47 125 196 125 c 0
 253 125 294 92 294 41 c 0
 294 9 262 -125 97 -125 c 0xbc
256 63 m 1
 162 -2 l 1
 185 -48 l 1
 239 -16 258 10 258 44 c 0
 258 50 257 56 256 63 c 1
29 -42 m 0
 29 -48 31 -54 33 -59 c 1
 126 7 l 1
 107 45 l 1
 48 10 29 -20 29 -42 c 0
48 -79 m 1xdc
 56 -85 68 -90 84 -90 c 0
 103 -90 127 -83 161 -63 c 1
 139 -18 l 1
 48 -79 l 1xdc
131 58 m 1
 149 22 l 1
 237 83 l 1
 231 86 224 87 215 87 c 0
 197 87 170 80 131 58 c 1
EndSplineSet
EndChar

StartChar: uniE0B7
Encoding: 57527 57527 177
Width: 289
GlyphClass: 2
Flags: MW
HStem: -125 25<91.5 115 91.5 130> -12 21G<139 139> 100 25<174 193>
VStem: 0 25<-45 -26.5 -45 -25> 264 25<34.5 46.5>
LayerCount: 2
Fore
SplineSet
0 -37 m 0
 0 -13 10 28 41 63 c 0
 65 91 110 125 189 125 c 0
 242 125 289 94 289 37 c 0
 289 21 282 -19 253 -56 c 0
 215 -106 161 -125 99 -125 c 0
 46 -125 0 -93 0 -37 c 0
237 87 m 1
 157 6 l 1
 220 -57 l 1
 233 -41 l 2
 247 -24 254 -6 258 5 c 0
 262 19 264 32 264 37 c 0
 264 56 257 71 244 82 c 2
 237 87 l 1
25 -37 m 0
 25 -53 30 -67 39 -77 c 1
 122 6 l 1
 70 58 l 1
 59 46 l 2
 35 19 25 -16 25 -37 c 0
139 -12 m 1
 59 -91 l 1
 71 -97 84 -100 99 -100 c 0
 131 -100 160 -94 184 -82 c 0
 189 -79 195 -76 200 -72 c 1
 139 -12 l 1
109 84 m 2
 89 74 l 1
 139 23 l 1
 213 98 l 1
 206 99 197 100 189 100 c 0
 159 100 132 95 109 84 c 2
EndSplineSet
EndChar

StartChar: uniE0B8
Encoding: 57528 57528 178
Width: 313
GlyphClass: 2
Flags: MW
HStem: -125 29<28 285 28 313 0 285> 97 28<28 285 28 28>
VStem: 0 28<-96 -96 -96 97> 285 28<-96 97 97 97>
LayerCount: 2
Fore
SplineSet
313 -125 m 1
 0 -125 l 1
 0 125 l 1
 313 125 l 1
 313 -125 l 1
28 -96 m 1
 285 -96 l 1
 285 97 l 1
 28 97 l 1
 28 -96 l 1
EndSplineSet
EndChar

StartChar: uniE0B9
Encoding: 57529 57529 179
Width: 313
GlyphClass: 2
Flags: MW
HStem: -125 250<0 313 0 313>
VStem: 0 313<-125 125 -125 125>
LayerCount: 2
Fore
SplineSet
313 -125 m 1
 0 -125 l 1
 0 125 l 1
 313 125 l 1
 313 -125 l 1
EndSplineSet
EndChar

StartChar: uniE0BA
Encoding: 57530 57530 180
Width: 483
GlyphClass: 2
Flags: MW
HStem: -125 30<201 282 282 286.5 201 390>
VStem: 0 32<-148 148> 53 32<-148 -121 -107 148> 398 32<-148 -121 -121 -121 -107 148> 450 33<-148 148>
LayerCount: 2
Fore
SplineSet
53 148 m 2
 53 151 58 155 63 155 c 2
 75 155 l 2
 81 155 85 151 85 148 c 2
 85 -107 l 1
 232 120 l 2
 234 123 237 125 240 125 c 0
 244 125 246 123 248 120 c 2
 398 -107 l 1
 398 148 l 2
 398 151 403 155 408 155 c 2
 420 155 l 2
 426 155 430 151 430 148 c 2
 430 -148 l 2
 430 -152 426 -155 420 -155 c 2
 408 -155 l 2
 403 -155 398 -152 398 -148 c 2
 398 -121 l 1
 396 -123 393 -125 390 -125 c 2
 93 -125 l 2
 90 -125 87 -123 85 -121 c 1
 85 -148 l 2
 85 -152 81 -155 75 -155 c 2
 63 -155 l 2
 58 -155 53 -152 53 -148 c 2
 53 148 l 2
240 74 m 1
 219 38 184 -12 184 -67 c 0
 184 -76 191 -95 201 -95 c 2
 282 -95 l 2
 291 -95 297 -77 297 -68 c 0
 297 -12 262 37 240 74 c 1
450 -148 m 2
 450 148 l 2
 450 151 455 155 460 155 c 2
 473 155 l 2
 479 155 483 151 483 148 c 2
 483 -148 l 2
 483 -152 479 -155 473 -155 c 2
 460 -155 l 2
 455 -155 450 -152 450 -148 c 2
0 148 m 2
 0 151 5 155 10 155 c 2
 22 155 l 2
 28 155 32 151 32 148 c 2
 32 -148 l 2
 32 -152 28 -155 22 -155 c 2
 10 -155 l 2
 5 -155 0 -152 0 -148 c 2
 0 148 l 2
EndSplineSet
EndChar

StartChar: uniE0BB
Encoding: 57531 57531 181
Width: 319
GlyphClass: 2
Flags: MW
HStem: -125 30<118 200 200 204.5 118 309>
VStem: 0 319<-117.5 -114>
LayerCount: 2
Fore
SplineSet
0 -115 m 0
 0 -113 1 -111 1 -110 c 2
 150 120 l 2
 152 123 156 125 158 125 c 0
 162 125 165 123 166 120 c 2
 318 -110 l 2
 318 -111 319 -113 319 -115 c 0
 319 -120 315 -125 309 -125 c 2
 10 -125 l 2
 4 -125 0 -120 0 -115 c 0
101 -67 m 0
 101 -76 109 -95 118 -95 c 2
 200 -95 l 2
 209 -95 215 -77 215 -68 c 0
 215 -12 180 38 158 75 c 1
 137 39 101 -12 101 -67 c 0
EndSplineSet
EndChar

StartChar: uniE0BC
Encoding: 57532 57532 182
Width: 285
GlyphClass: 2
Flags: MW
HStem: -125 29<80 171 80 275>
VStem: 0 285<-117.5 -114>
LayerCount: 2
Fore
SplineSet
10 -125 m 2
 5 -125 0 -120 0 -115 c 0
 0 -113 1 -111 2 -109 c 2
 140 120 l 2
 142 123 146 125 149 125 c 0
 153 125 157 121 158 120 c 2
 284 -110 l 2
 285 -112 285 -113 285 -115 c 0
 285 -120 282 -125 275 -125 c 2
 10 -125 l 2
80 -96 m 1
 171 -96 l 1
 206 -26 l 1
 161 53 l 1
 80 -96 l 1
EndSplineSet
EndChar

StartChar: uniE0BD
Encoding: 57533 57533 183
Width: 293
GlyphClass: 2
Flags: MW
HStem: -125 28<49 243 49 293>
VStem: 0 293<-125 -125>
LayerCount: 2
Fore
SplineSet
293 -125 m 1
 0 -125 l 1
 145 125 l 1
 293 -125 l 1
49 -97 m 1
 243 -97 l 1
 145 69 l 1
 49 -97 l 1
EndSplineSet
EndChar

StartChar: uniE0BE
Encoding: 57534 57534 184
Width: 293
GlyphClass: 2
Flags: MW
HStem: -125 250<144 144 144 293 0 144>
VStem: 0 293<-125 -125>
LayerCount: 2
Fore
SplineSet
293 -125 m 1
 0 -125 l 1
 144 125 l 1
 293 -125 l 1
EndSplineSet
EndChar

StartChar: uniE0BF
Encoding: 57535 57535 185
Width: 339
GlyphClass: 2
Flags: MW
HStem: -125 29<28 253 28 339 0 253>
VStem: 0 28<-96 -96 -96 71>
LayerCount: 2
Fore
SplineSet
339 -125 m 1
 0 -125 l 1
 0 125 l 1
 339 -125 l 1
28 -96 m 1
 253 -96 l 1
 28 71 l 1
 28 -96 l 1
EndSplineSet
EndChar

StartChar: uniE0C0
Encoding: 57536 57536 186
Width: 339
GlyphClass: 2
Flags: MW
HStem: -125 250<0 339 0 0>
VStem: 0 339<-125 125 -125 125>
LayerCount: 2
Fore
SplineSet
339 -125 m 1
 0 -125 l 1
 0 125 l 1
 339 -125 l 1
EndSplineSet
EndChar

StartChar: uniE0C1
Encoding: 57537 57537 187
Width: 339
GlyphClass: 2
Flags: MW
HStem: -125 29<86 310 86 339>
VStem: 310 29<-96 71 71 71>
LayerCount: 2
Fore
SplineSet
339 125 m 1
 339 -125 l 1
 0 -125 l 1
 339 125 l 1
310 71 m 1
 86 -96 l 1
 310 -96 l 1
 310 71 l 1
EndSplineSet
EndChar

StartChar: uniE0C2
Encoding: 57538 57538 188
Width: 339
GlyphClass: 2
Flags: MW
HStem: -125 250<0 339>
VStem: 0 339<-125 125>
LayerCount: 2
Fore
SplineSet
339 125 m 1
 339 -125 l 1
 0 -125 l 1
 339 125 l 1
EndSplineSet
EndChar

StartChar: uniE0C3
Encoding: 57539 57539 189
Width: 483
GlyphClass: 2
Flags: MW
HStem: 95 30<196 201 201 282>
VStem: 0 32<-148 148> 53 32<-148 107 121 148> 398 32<-148 107 107 107 121 148> 450 33<-148 148>
LayerCount: 2
Fore
SplineSet
53 148 m 2
 53 152 58 155 63 155 c 2
 75 155 l 2
 81 155 85 152 85 148 c 2
 85 121 l 1
 87 123 90 125 93 125 c 2
 390 125 l 2
 393 125 396 123 398 121 c 1
 398 148 l 2
 398 152 403 155 408 155 c 2
 420 155 l 2
 426 155 430 152 430 148 c 2
 430 -148 l 2
 430 -151 426 -155 420 -155 c 2
 408 -155 l 2
 403 -155 398 -151 398 -148 c 2
 398 107 l 1
 248 -120 l 2
 246 -123 244 -125 240 -125 c 0
 237 -125 234 -123 232 -120 c 2
 85 107 l 1
 85 -148 l 2
 85 -151 81 -155 75 -155 c 2
 63 -155 l 2
 58 -155 53 -151 53 -148 c 2
 53 148 l 2
201 95 m 2
 191 95 184 76 184 67 c 0
 184 12 219 -38 240 -74 c 1
 262 -37 297 12 297 68 c 0
 297 77 291 95 282 95 c 2
 201 95 l 2
450 148 m 2
 450 152 455 155 460 155 c 2
 473 155 l 2
 479 155 483 152 483 148 c 2
 483 -148 l 2
 483 -151 479 -155 473 -155 c 2
 460 -155 l 2
 455 -155 450 -151 450 -148 c 2
 450 148 l 2
0 148 m 2
 0 152 5 155 10 155 c 2
 22 155 l 2
 28 155 32 152 32 148 c 2
 32 -148 l 2
 32 -151 28 -155 22 -155 c 2
 10 -155 l 2
 5 -155 0 -151 0 -148 c 2
 0 148 l 2
EndSplineSet
EndChar

StartChar: uniE0C4
Encoding: 57540 57540 190
Width: 319
GlyphClass: 2
Flags: MW
HStem: 95 30<113.5 118 118 200>
VStem: 0 319<114 117.5>
LayerCount: 2
Fore
SplineSet
0 115 m 0
 0 120 4 125 10 125 c 2
 309 125 l 2
 315 125 319 120 319 115 c 0
 319 113 318 111 318 110 c 2
 166 -120 l 2
 165 -123 162 -125 158 -125 c 0
 156 -125 152 -123 150 -120 c 2
 1 110 l 2
 1 111 0 113 0 115 c 0
118 95 m 2
 109 95 101 76 101 67 c 0
 101 12 137 -39 158 -75 c 1
 180 -38 215 12 215 68 c 0
 215 77 209 95 200 95 c 2
 118 95 l 2
EndSplineSet
EndChar

StartChar: uniE0C5
Encoding: 57541 57541 191
Width: 285
GlyphClass: 2
Flags: MW
HStem: 96 29<114 205 114 114>
VStem: 0 285<114 117.5>
LayerCount: 2
Fore
SplineSet
0 115 m 0
 0 120 3 125 10 125 c 2
 275 125 l 2
 280 125 285 120 285 115 c 0
 285 113 284 111 283 109 c 2
 145 -120 l 2
 143 -123 139 -125 136 -125 c 0
 132 -125 128 -121 127 -120 c 2
 1 110 l 2
 0 112 0 113 0 115 c 0
79 26 m 1
 124 -53 l 1
 205 96 l 1
 114 96 l 1
 79 26 l 1
EndSplineSet
EndChar

StartChar: uniE0C6
Encoding: 57542 57542 192
Width: 293
GlyphClass: 2
Flags: MW
HStem: 97 28<49 243 49 49>
VStem: 0 293<125 125>
LayerCount: 2
Fore
SplineSet
145 -125 m 1
 0 125 l 1
 293 125 l 1
 145 -125 l 1
145 -69 m 1
 243 97 l 1
 49 97 l 1
 145 -69 l 1
EndSplineSet
EndChar

StartChar: uniE0C7
Encoding: 57543 57543 193
Width: 292
GlyphClass: 2
Flags: MW
HStem: -125 250<144 144>
VStem: 0 292<125 125>
LayerCount: 2
Fore
SplineSet
144 -125 m 1
 0 125 l 1
 292 125 l 1
 144 -125 l 1
EndSplineSet
EndChar

StartChar: uniE0C8
Encoding: 57544 57544 194
Width: 339
GlyphClass: 2
Flags: MW
HStem: 97 28<86 311 86 86>
VStem: 311 28<-70 97 97 97>
LayerCount: 2
Fore
SplineSet
0 125 m 1
 339 125 l 1
 339 -125 l 1
 0 125 l 1
311 97 m 1
 86 97 l 1
 311 -70 l 1
 311 97 l 1
EndSplineSet
EndChar

StartChar: uniE0C9
Encoding: 57545 57545 195
Width: 339
GlyphClass: 2
Flags: MW
HStem: -125 250<0 339>
VStem: 0 339<-125 125>
LayerCount: 2
Fore
SplineSet
0 125 m 1
 339 125 l 1
 339 -125 l 1
 0 125 l 1
EndSplineSet
EndChar

StartChar: uniE0CA
Encoding: 57546 57546 196
Width: 315
GlyphClass: 2
Flags: MW
HStem: -125 28<118 190 99.5 198> 97 28<28 287 28 28>
VStem: 0 28<0 97> 287 28<0 97 97 97>
LayerCount: 2
Fore
SplineSet
0 0 m 2
 0 125 l 1
 315 125 l 1
 315 0 l 2
 315 -90 238 -125 158 -125 c 0
 78 -125 0 -91 0 0 c 2
287 97 m 1
 28 97 l 1
 28 0 l 2
 28 -29 41 -97 158 -97 c 0
 222 -97 287 -74 287 0 c 2
 287 97 l 1
EndSplineSet
EndChar

StartChar: uniE0CB
Encoding: 57547 57547 197
Width: 315
GlyphClass: 2
Flags: MW
HStem: -125 250<118 198>
VStem: 0 315<0 125 -45 125>
LayerCount: 2
Fore
SplineSet
0 0 m 2
 0 125 l 1
 315 125 l 1
 315 0 l 2
 315 -90 238 -125 158 -125 c 0
 78 -125 0 -91 0 0 c 2
EndSplineSet
EndChar

StartChar: uniE0CC
Encoding: 57548 57548 198
Width: 278
GlyphClass: 2
Flags: MW
HStem: 97 28<121 155>
VStem: 0 278<78 78>
LayerCount: 2
Fore
SplineSet
0 78 m 1
 11 86 l 2
 51 112 94 125 138 125 c 0
 183 125 227 112 266 86 c 2
 278 78 l 1
 139 -125 l 1
 0 78 l 1
138 97 m 0
 104 97 70 88 39 70 c 1
 139 -76 l 1
 239 70 l 1
 207 88 172 97 138 97 c 0
EndSplineSet
EndChar

StartChar: uniE0CD
Encoding: 57549 57549 199
Width: 278
GlyphClass: 2
Flags: MW
HStem: -125 250<139 139>
VStem: 0 278<78 78>
LayerCount: 2
Fore
SplineSet
139 -125 m 1
 0 78 l 1
 11 86 l 2
 51 112 94 125 138 125 c 0
 183 125 227 112 266 86 c 2
 278 78 l 1
 139 -125 l 1
EndSplineSet
EndChar

StartChar: uniE0CE
Encoding: 57550 57550 200
Width: 295
GlyphClass: 2
Flags: MW
HStem: -180 362<31 32 32 265>
VStem: -73 37<-18 42.5 -18 44> 332 36<-18 42.5>
LayerCount: 2
Fore
SplineSet
31 -180 m 1
 -33 -139 -73 -76 -73 2 c 0
 -73 86 -34 137 32 182 c 1
 36 175 l 1
 -25 124 -36 82 -36 3 c 0
 -36 -39 -31 -71 -21 -100 c 0
 -10 -132 2 -147 36 -173 c 1
 31 -180 l 1
259 -173 m 1
 293 -147 305 -132 317 -100 c 0
 327 -71 332 -39 332 3 c 0
 332 82 321 125 259 175 c 1
 263 182 l 1
 329 139 368 85 368 2 c 0
 368 -75 329 -140 265 -180 c 1
 259 -173 l 1
EndSplineSet
EndChar

StartChar: uniE0CF
Encoding: 57551 57551 201
Width: 295
GlyphClass: 2
Flags: MW
HStem: -165 332
VStem: -80 455<-152.5 155.5>
LayerCount: 2
Fore
SplineSet
-77 -159 m 0
 -79 -156 -80 -154 -80 -151 c 0
 -80 -147 -77 -142 -74 -140 c 2
 9 -80 l 1
 3 -69 0 -57 0 -43 c 0
 0 44 88 125 197 125 c 0
 225 125 249 117 267 103 c 1
 352 164 l 2
 354 166 357 167 360 167 c 0
 367 167 375 159 375 152 c 0
 375 148 372 144 368 141 c 2
 285 81 l 1
 292 70 295 56 295 41 c 0
 295 -43 186 -125 97 -125 c 0
 69 -125 44 -118 27 -103 c 1
 -58 -163 l 2
 -60 -164 -63 -165 -66 -165 c 0
 -70 -165 -75 -163 -77 -159 c 0
EndSplineSet
EndChar

StartChar: uniE0D0
Encoding: 57552 57552 202
Width: 295
GlyphClass: 2
Flags: MW
HStem: -164 332
VStem: -79 455<-151.5 154.5>
LayerCount: 2
Fore
SplineSet
-73 142 m 2
 -77 144 -79 149 -79 153 c 0
 -79 156 -78 159 -77 161 c 0
 -74 165 -69 168 -65 168 c 0
 -62 168 -59 167 -56 165 c 2
 64 79 l 1
 100 107 146 125 198 125 c 0
 255 125 295 92 295 41 c 0
 295 7 279 -26 252 -54 c 1
 369 -139 l 2
 373 -141 376 -146 376 -150 c 0
 376 -153 375 -156 373 -158 c 0
 370 -162 366 -164 361 -164 c 0
 359 -164 355 -164 352 -162 c 2
 230 -75 l 1
 191 -106 142 -125 97 -125 c 0
 43 -125 0 -95 0 -43 c 0
 0 -6 16 30 43 59 c 1
 -73 142 l 2
EndSplineSet
EndChar

StartChar: uniE0D1
Encoding: 57553 57553 203
Width: 292
GlyphClass: 2
Flags: MW
HStem: -125 39<79.5 98 69 177.5> 83 42<195.5 211 120 223.5>
VStem: 0 29<-46 -20 -46 -16.5> 261 31<25 46>
LayerCount: 2
Fore
SplineSet
-65 -135 m 0
 -66 -133 -67 -130 -67 -128 c 0
 -67 -123 -65 -119 -61 -116 c 2
 5 -73 l 1
 2 -64 0 -54 0 -42 c 0
 0 9 45 125 195 125 c 0
 227 125 253 114 270 97 c 1
 364 158 l 2
 367 160 370 160 372 160 c 0
 377 160 381 158 383 154 c 0
 385 151 386 148 386 146 c 0
 386 142 383 137 379 135 c 2
 286 74 l 1
 291 64 292 53 292 41 c 0
 292 9 260 -125 95 -125 c 0
 64 -125 38 -116 20 -97 c 1
 -46 -140 l 2
 -48 -141 -51 -142 -53 -142 c 0
 -58 -142 -62 -140 -65 -135 c 0
48 -79 m 1
 55 -83 63 -86 75 -86 c 0
 121 -86 261 0 261 44 c 0
 261 48 260 52 258 56 c 1
 48 -79 l 1
219 83 m 0
 172 83 29 4 29 -44 c 0
 29 -48 30 -53 32 -57 c 1
 241 78 l 1
 235 81 228 83 219 83 c 0
EndSplineSet
EndChar

StartChar: uniE0D2
Encoding: 57554 57554 204
Width: 293
GlyphClass: 2
Flags: MW
HStem: -125 39<69 85.5 64.5 134> 84 41<210.5 224 168 229.5>
VStem: 0 29<-47.5 -34 -47.5 -27.5> 262 31<37 47.5>
LayerCount: 2
Fore
SplineSet
-73 154 m 0
 -73 156 -72 159 -71 162 c 0
 -68 166 -64 168 -59 168 c 0
 -57 168 -54 168 -52 166 c 2
 70 88 l 1
 100 109 141 125 195 125 c 0
 253 125 293 93 293 42 c 0
 293 27 287 -6 266 -40 c 1
 373 -108 l 2
 377 -111 380 -115 380 -120 c 0
 380 -122 379 -125 377 -127 c 0
 375 -132 371 -134 366 -134 c 0
 364 -134 361 -133 358 -132 c 2
 249 -61 l 1
 220 -96 172 -125 96 -125 c 0
 42 -125 0 -94 0 -41 c 0
 0 -14 13 32 48 69 c 1
 -66 143 l 2
 -71 145 -73 150 -73 154 c 0
101 34 m 1
 47 0 29 -24 29 -44 c 0
 29 -51 32 -58 35 -64 c 0
 42 -76 54 -86 75 -86 c 0
 96 -86 126 -75 172 -46 c 0
 181 -39 190 -34 198 -28 c 1
 101 34 l 1
128 50 m 1
 221 -10 l 1
 251 14 262 30 262 44 c 0
 262 51 260 57 255 64 c 0
 248 76 239 84 220 84 c 0
 201 84 172 75 128 50 c 1
EndSplineSet
EndChar

